<?xml version="1.0" encoding="UTF-8"?>
<svg xmlns="http://www.w3.org/2000/svg" xmlns:xlink="http://www.w3.org/1999/xlink" width="30px" height="30px" viewBox="0 0 30 30" version="1.1">
<g id="surface1">
<path style=" stroke:none;fill-rule:nonzero;fill:rgb(15.686275%,82.352942%,89.411765%);fill-opacity:1;" d="M 22.484375 20.136719 C 22.484375 18.265625 24 16.746094 25.875 16.746094 C 26.632812 16.746094 27.335938 16.996094 27.902344 17.421875 L 27.902344 2.328125 L 0.734375 2.328125 L 0.734375 21.835938 L 22.941406 21.835938 C 22.652344 21.335938 22.484375 20.757812 22.484375 20.136719 Z M 22.484375 20.136719 "/>
<path style=" stroke:none;fill-rule:nonzero;fill:rgb(100%,85.882354%,46.666667%);fill-opacity:1;" d="M 29.265625 20.136719 C 29.265625 18.265625 27.746094 16.746094 25.875 16.746094 C 24 16.746094 22.484375 18.265625 22.484375 20.136719 C 22.484375 22.007812 24 23.527344 25.875 23.527344 C 27.746094 23.527344 29.265625 22.007812 29.265625 20.136719 Z M 29.265625 20.136719 "/>
<path style=" stroke:none;fill-rule:nonzero;fill:rgb(7.450981%,50.980395%,60.784316%);fill-opacity:1;" d="M 25.875 23.527344 C 25.011719 23.527344 24.222656 23.203125 23.625 22.671875 L 23.625 27.671875 L 25.875 25.421875 L 28.125 27.671875 L 28.125 22.671875 C 27.527344 23.203125 26.738281 23.527344 25.875 23.527344 Z M 25.875 23.527344 "/>
<path style=" stroke:none;fill-rule:nonzero;fill:rgb(13.333334%,19.215687%,24.705882%);fill-opacity:1;" d="M 4.308594 15.464844 L 24.332031 15.464844 C 24.738281 15.464844 25.066406 15.132812 25.066406 14.726562 C 25.066406 14.320312 24.738281 13.992188 24.332031 13.992188 L 4.308594 13.992188 C 3.902344 13.992188 3.570312 14.320312 3.570312 14.726562 C 3.570312 15.132812 3.902344 15.464844 4.308594 15.464844 Z M 4.308594 15.464844 "/>
<path style=" stroke:none;fill-rule:nonzero;fill:rgb(13.333334%,19.215687%,24.705882%);fill-opacity:1;" d="M 19.773438 17.339844 L 4.308594 17.339844 C 3.902344 17.339844 3.570312 17.667969 3.570312 18.074219 C 3.570312 18.480469 3.902344 18.8125 4.308594 18.8125 L 19.773438 18.8125 C 20.179688 18.8125 20.507812 18.480469 20.507812 18.074219 C 20.507812 17.667969 20.179688 17.339844 19.773438 17.339844 Z M 19.773438 17.339844 "/>
<path style=" stroke:none;fill-rule:nonzero;fill:rgb(13.333334%,19.215687%,24.705882%);fill-opacity:1;" d="M 9.5 11.640625 L 19.136719 11.640625 C 19.542969 11.640625 19.875 11.3125 19.875 10.90625 L 19.875 5.914062 C 19.875 5.507812 19.542969 5.179688 19.136719 5.179688 L 9.5 5.179688 C 9.09375 5.179688 8.765625 5.507812 8.765625 5.914062 L 8.765625 10.90625 C 8.765625 11.3125 9.09375 11.640625 9.5 11.640625 Z M 10.238281 6.652344 L 18.402344 6.652344 L 18.402344 10.167969 L 10.238281 10.167969 C 10.238281 10.167969 10.238281 6.652344 10.238281 6.652344 Z M 10.238281 6.652344 "/>
<path style=" stroke:none;fill-rule:nonzero;fill:rgb(13.333334%,19.215687%,24.705882%);fill-opacity:1;" d="M 28.636719 17.078125 L 28.636719 2.328125 C 28.636719 1.921875 28.308594 1.589844 27.902344 1.589844 L 0.734375 1.589844 C 0.328125 1.589844 0 1.921875 0 2.328125 L 0 21.835938 C 0 22.242188 0.328125 22.574219 0.734375 22.574219 L 22.546875 22.574219 C 22.652344 22.714844 22.765625 22.851562 22.886719 22.980469 L 22.886719 27.671875 C 22.886719 28.328125 23.683594 28.652344 24.144531 28.191406 L 25.875 26.460938 L 27.605469 28.191406 C 28.066406 28.65625 28.859375 28.328125 28.859375 27.671875 L 28.859375 22.980469 C 30.457031 21.300781 30.367188 18.640625 28.636719 17.078125 Z M 25.875 22.792969 C 24.402344 22.792969 23.21875 21.589844 23.21875 20.136719 C 23.21875 18.675781 24.410156 17.484375 25.875 17.484375 C 27.339844 17.484375 28.527344 18.679688 28.527344 20.136719 C 28.527344 21.605469 27.335938 22.792969 25.875 22.792969 Z M 21.863281 21.101562 L 1.472656 21.101562 L 1.472656 3.0625 L 27.167969 3.0625 L 27.167969 16.21875 C 24.113281 15.210938 21.105469 17.957031 21.863281 21.101562 Z M 27.386719 25.894531 L 26.394531 24.902344 C 26.105469 24.613281 25.640625 24.613281 25.351562 24.902344 L 24.359375 25.894531 L 24.359375 23.976562 C 25.328125 24.359375 26.417969 24.359375 27.386719 23.976562 Z M 27.386719 25.894531 "/>
</g>
</svg>
