<?xml version="1.0" encoding="UTF-8"?>
<svg xmlns="http://www.w3.org/2000/svg" xmlns:xlink="http://www.w3.org/1999/xlink" width="30px" height="30px" viewBox="0 0 30 30" version="1.1">
<g id="surface1">
<path style=" stroke:none;fill-rule:nonzero;fill:rgb(70.980394%,6.27451%,25.098041%);fill-opacity:1;" d="M 13.125 16.40625 L 3.75 16.40625 L 3.75 12.65625 C 3.75 11.101562 5.007812 9.84375 6.5625 9.84375 L 11.25 9.84375 C 12.285156 9.84375 13.125 10.683594 13.125 11.71875 Z M 13.125 16.40625 "/>
<path style=" stroke:none;fill-rule:nonzero;fill:rgb(12.941177%,16.470589%,25.490198%);fill-opacity:1;" d="M 13.125 16.640625 L 3.75 16.640625 C 3.621094 16.640625 3.515625 16.535156 3.515625 16.40625 L 3.515625 12.65625 C 3.515625 10.976562 4.882812 9.609375 6.5625 9.609375 L 11.25 9.609375 C 12.414062 9.609375 13.359375 10.554688 13.359375 11.71875 L 13.359375 16.40625 C 13.359375 16.535156 13.253906 16.640625 13.125 16.640625 Z M 3.984375 16.171875 L 12.890625 16.171875 L 12.890625 11.71875 C 12.890625 10.8125 12.15625 10.078125 11.25 10.078125 L 6.5625 10.078125 C 5.140625 10.078125 3.984375 11.234375 3.984375 12.65625 Z M 3.984375 16.171875 "/>
<path style=" stroke:none;fill-rule:nonzero;fill:rgb(42.352942%,41.176471%,43.529412%);fill-opacity:1;" d="M 15 14.53125 L 15 12.65625 C 15 11.101562 13.742188 9.84375 12.1875 9.84375 L 8.4375 9.84375 C 6.882812 9.84375 5.625 11.101562 5.625 12.65625 L 5.625 15.46875 C 5.625 15.988281 6.042969 16.40625 6.5625 16.40625 L 17.34375 16.40625 L 17.34375 14.53125 Z M 15 14.53125 "/>
<path style=" stroke:none;fill-rule:nonzero;fill:rgb(12.941177%,16.470589%,25.490198%);fill-opacity:1;" d="M 17.34375 16.640625 L 6.5625 16.640625 C 5.917969 16.640625 5.390625 16.113281 5.390625 15.46875 L 5.390625 12.65625 C 5.390625 10.976562 6.757812 9.609375 8.4375 9.609375 L 12.1875 9.609375 C 13.867188 9.609375 15.234375 10.976562 15.234375 12.65625 L 15.234375 14.296875 L 17.34375 14.296875 C 17.472656 14.296875 17.578125 14.402344 17.578125 14.53125 L 17.578125 16.40625 C 17.578125 16.535156 17.472656 16.640625 17.34375 16.640625 Z M 8.4375 10.078125 C 7.015625 10.078125 5.859375 11.234375 5.859375 12.65625 L 5.859375 15.46875 C 5.859375 15.855469 6.175781 16.171875 6.5625 16.171875 L 17.109375 16.171875 L 17.109375 14.765625 L 15 14.765625 C 14.871094 14.765625 14.765625 14.660156 14.765625 14.53125 L 14.765625 12.65625 C 14.765625 11.234375 13.609375 10.078125 12.1875 10.078125 Z M 8.4375 10.078125 "/>
<path style=" stroke:none;fill-rule:nonzero;fill:rgb(87.843138%,87.843138%,87.843138%);fill-opacity:1;" d="M 10.3125 13.125 L 8.90625 9.84375 L 11.71875 9.84375 Z M 10.3125 13.125 "/>
<path style=" stroke:none;fill-rule:nonzero;fill:rgb(12.941177%,16.470589%,25.490198%);fill-opacity:1;" d="M 10.3125 13.359375 C 10.21875 13.359375 10.132812 13.304688 10.097656 13.21875 L 8.691406 9.9375 C 8.660156 9.863281 8.667969 9.78125 8.710938 9.714844 C 8.753906 9.648438 8.828125 9.609375 8.90625 9.609375 L 11.71875 9.609375 C 11.796875 9.609375 11.871094 9.648438 11.914062 9.714844 C 11.957031 9.78125 11.964844 9.863281 11.933594 9.9375 L 10.527344 13.21875 C 10.492188 13.304688 10.40625 13.359375 10.3125 13.359375 Z M 9.261719 10.078125 L 10.3125 12.53125 L 11.363281 10.078125 Z M 9.261719 10.078125 "/>
<path style=" stroke:none;fill-rule:nonzero;fill:rgb(87.843138%,78.431374%,64.313728%);fill-opacity:1;" d="M 10.78125 9.84375 L 9.84375 9.84375 C 8.808594 9.84375 7.96875 9.003906 7.96875 7.96875 L 7.96875 6.09375 C 7.96875 5.058594 8.808594 4.21875 9.84375 4.21875 L 10.78125 4.21875 C 11.816406 4.21875 12.65625 5.058594 12.65625 6.09375 L 12.65625 7.96875 C 12.65625 9.003906 11.816406 9.84375 10.78125 9.84375 Z M 10.78125 9.84375 "/>
<path style=" stroke:none;fill-rule:nonzero;fill:rgb(12.941177%,16.470589%,25.490198%);fill-opacity:1;" d="M 10.78125 10.078125 L 9.84375 10.078125 C 8.679688 10.078125 7.734375 9.132812 7.734375 7.96875 L 7.734375 6.09375 C 7.734375 4.929688 8.679688 3.984375 9.84375 3.984375 L 10.78125 3.984375 C 11.945312 3.984375 12.890625 4.929688 12.890625 6.09375 L 12.890625 7.96875 C 12.890625 9.132812 11.945312 10.078125 10.78125 10.078125 Z M 9.84375 4.453125 C 8.9375 4.453125 8.203125 5.1875 8.203125 6.09375 L 8.203125 7.96875 C 8.203125 8.875 8.9375 9.609375 9.84375 9.609375 L 10.78125 9.609375 C 11.6875 9.609375 12.421875 8.875 12.421875 7.96875 L 12.421875 6.09375 C 12.421875 5.1875 11.6875 4.453125 10.78125 4.453125 Z M 9.84375 4.453125 "/>
<path style=" stroke:none;fill-rule:nonzero;fill:rgb(76.078433%,76.078433%,76.078433%);fill-opacity:1;" d="M 21.09375 17.8125 L 2.34375 17.8125 C 2.085938 17.8125 1.875 17.601562 1.875 17.34375 L 1.875 16.875 C 1.875 16.617188 2.085938 16.40625 2.34375 16.40625 L 21.09375 16.40625 C 21.351562 16.40625 21.5625 16.617188 21.5625 16.875 L 21.5625 17.34375 C 21.5625 17.601562 21.351562 17.8125 21.09375 17.8125 Z M 21.09375 17.8125 "/>
<path style=" stroke:none;fill-rule:nonzero;fill:rgb(12.941177%,16.470589%,25.490198%);fill-opacity:1;" d="M 21.09375 18.046875 L 2.34375 18.046875 C 1.957031 18.046875 1.640625 17.730469 1.640625 17.34375 L 1.640625 16.875 C 1.640625 16.488281 1.957031 16.171875 2.34375 16.171875 L 21.09375 16.171875 C 21.480469 16.171875 21.796875 16.488281 21.796875 16.875 L 21.796875 17.34375 C 21.796875 17.730469 21.480469 18.046875 21.09375 18.046875 Z M 2.34375 16.640625 C 2.214844 16.640625 2.109375 16.746094 2.109375 16.875 L 2.109375 17.34375 C 2.109375 17.472656 2.214844 17.578125 2.34375 17.578125 L 21.09375 17.578125 C 21.222656 17.578125 21.328125 17.472656 21.328125 17.34375 L 21.328125 16.875 C 21.328125 16.746094 21.222656 16.640625 21.09375 16.640625 Z M 2.34375 16.640625 "/>
<path style=" stroke:none;fill-rule:nonzero;fill:rgb(87.843138%,87.843138%,87.843138%);fill-opacity:1;" d="M 27.65625 17.8125 L 8.90625 17.8125 C 8.648438 17.8125 8.4375 17.601562 8.4375 17.34375 L 8.4375 16.875 C 8.4375 16.617188 8.648438 16.40625 8.90625 16.40625 L 27.65625 16.40625 C 27.914062 16.40625 28.125 16.617188 28.125 16.875 L 28.125 17.34375 C 28.125 17.601562 27.914062 17.8125 27.65625 17.8125 Z M 27.65625 17.8125 "/>
<path style=" stroke:none;fill-rule:nonzero;fill:rgb(12.941177%,16.470589%,25.490198%);fill-opacity:1;" d="M 27.65625 18.046875 L 8.90625 18.046875 C 8.519531 18.046875 8.203125 17.730469 8.203125 17.34375 L 8.203125 16.875 C 8.203125 16.488281 8.519531 16.171875 8.90625 16.171875 L 27.65625 16.171875 C 28.042969 16.171875 28.359375 16.488281 28.359375 16.875 L 28.359375 17.34375 C 28.359375 17.730469 28.042969 18.046875 27.65625 18.046875 Z M 8.90625 16.640625 C 8.777344 16.640625 8.671875 16.746094 8.671875 16.875 L 8.671875 17.34375 C 8.671875 17.472656 8.777344 17.578125 8.90625 17.578125 L 27.65625 17.578125 C 27.785156 17.578125 27.890625 17.472656 27.890625 17.34375 L 27.890625 16.875 C 27.890625 16.746094 27.785156 16.640625 27.65625 16.640625 Z M 8.90625 16.640625 "/>
<path style=" stroke:none;fill-rule:nonzero;fill:rgb(76.078433%,76.078433%,76.078433%);fill-opacity:1;" d="M 19.21875 28.125 L 4.21875 28.125 C 3.960938 28.125 3.75 27.914062 3.75 27.65625 L 3.75 17.8125 L 19.6875 17.8125 L 19.6875 27.65625 C 19.6875 27.914062 19.476562 28.125 19.21875 28.125 Z M 19.21875 28.125 "/>
<path style=" stroke:none;fill-rule:nonzero;fill:rgb(12.941177%,16.470589%,25.490198%);fill-opacity:1;" d="M 19.21875 28.359375 L 4.21875 28.359375 C 3.832031 28.359375 3.515625 28.042969 3.515625 27.65625 L 3.515625 17.8125 C 3.515625 17.683594 3.621094 17.578125 3.75 17.578125 L 19.6875 17.578125 C 19.816406 17.578125 19.921875 17.683594 19.921875 17.8125 L 19.921875 27.65625 C 19.921875 28.042969 19.605469 28.359375 19.21875 28.359375 Z M 3.984375 18.046875 L 3.984375 27.65625 C 3.984375 27.785156 4.089844 27.890625 4.21875 27.890625 L 19.21875 27.890625 C 19.347656 27.890625 19.453125 27.785156 19.453125 27.65625 L 19.453125 18.046875 Z M 3.984375 18.046875 "/>
<path style=" stroke:none;fill-rule:nonzero;fill:rgb(87.843138%,87.843138%,87.843138%);fill-opacity:1;" d="M 25.78125 28.125 L 10.78125 28.125 C 10.523438 28.125 10.3125 27.914062 10.3125 27.65625 L 10.3125 17.8125 L 26.25 17.8125 L 26.25 27.65625 C 26.25 27.914062 26.039062 28.125 25.78125 28.125 Z M 25.78125 28.125 "/>
<path style=" stroke:none;fill-rule:nonzero;fill:rgb(12.941177%,16.470589%,25.490198%);fill-opacity:1;" d="M 25.78125 28.359375 L 10.78125 28.359375 C 10.394531 28.359375 10.078125 28.042969 10.078125 27.65625 L 10.078125 17.8125 C 10.078125 17.683594 10.183594 17.578125 10.3125 17.578125 L 26.25 17.578125 C 26.378906 17.578125 26.484375 17.683594 26.484375 17.8125 L 26.484375 27.65625 C 26.484375 28.042969 26.167969 28.359375 25.78125 28.359375 Z M 10.546875 18.046875 L 10.546875 27.65625 C 10.546875 27.785156 10.652344 27.890625 10.78125 27.890625 L 25.78125 27.890625 C 25.910156 27.890625 26.015625 27.785156 26.015625 27.65625 L 26.015625 18.046875 Z M 10.546875 18.046875 "/>
<path style=" stroke:none;fill-rule:nonzero;fill:rgb(12.941177%,16.470589%,25.490198%);fill-opacity:1;" d="M 9.84375 16.640625 C 9.714844 16.640625 9.609375 16.535156 9.609375 16.40625 L 9.609375 14.765625 L 7.5 14.765625 C 7.371094 14.765625 7.265625 14.660156 7.265625 14.53125 L 7.265625 12.65625 C 7.265625 12.527344 7.371094 12.421875 7.5 12.421875 C 7.628906 12.421875 7.734375 12.527344 7.734375 12.65625 L 7.734375 14.296875 L 9.84375 14.296875 C 9.972656 14.296875 10.078125 14.402344 10.078125 14.53125 L 10.078125 16.40625 C 10.078125 16.535156 9.972656 16.640625 9.84375 16.640625 Z M 9.84375 16.640625 "/>
<path style=" stroke:none;fill-rule:nonzero;fill:rgb(12.941177%,16.470589%,25.490198%);fill-opacity:1;" d="M 13.125 16.640625 C 12.996094 16.640625 12.890625 16.535156 12.890625 16.40625 L 12.890625 12.65625 C 12.890625 12.527344 12.996094 12.421875 13.125 12.421875 C 13.253906 12.421875 13.359375 12.527344 13.359375 12.65625 L 13.359375 16.40625 C 13.359375 16.535156 13.253906 16.640625 13.125 16.640625 Z M 13.125 16.640625 "/>
<path style=" stroke:none;fill-rule:nonzero;fill:rgb(12.941177%,16.470589%,25.490198%);fill-opacity:1;" d="M 10.3125 16.640625 C 10.183594 16.640625 10.078125 16.535156 10.078125 16.40625 L 10.078125 13.125 C 10.078125 12.996094 10.183594 12.890625 10.3125 12.890625 C 10.441406 12.890625 10.546875 12.996094 10.546875 13.125 L 10.546875 16.40625 C 10.546875 16.535156 10.441406 16.640625 10.3125 16.640625 Z M 10.3125 16.640625 "/>
<path style=" stroke:none;fill-rule:nonzero;fill:rgb(76.078433%,76.078433%,76.078433%);fill-opacity:1;" d="M 25.3125 27.421875 C 25.183594 27.421875 25.078125 27.316406 25.078125 27.1875 L 25.078125 18.75 C 25.078125 18.621094 25.183594 18.515625 25.3125 18.515625 C 25.441406 18.515625 25.546875 18.621094 25.546875 18.75 L 25.546875 27.1875 C 25.546875 27.316406 25.441406 27.421875 25.3125 27.421875 Z M 25.3125 27.421875 "/>
<path style=" stroke:none;fill-rule:nonzero;fill:rgb(99.607843%,99.607843%,99.607843%);fill-opacity:1;" d="M 11.25 27.421875 C 11.121094 27.421875 11.015625 27.316406 11.015625 27.1875 L 11.015625 18.75 C 11.015625 18.621094 11.121094 18.515625 11.25 18.515625 C 11.378906 18.515625 11.484375 18.621094 11.484375 18.75 L 11.484375 27.1875 C 11.484375 27.316406 11.378906 27.421875 11.25 27.421875 Z M 11.25 27.421875 "/>
<path style=" stroke:none;fill-rule:nonzero;fill:rgb(87.843138%,87.843138%,87.843138%);fill-opacity:1;" d="M 4.6875 27.421875 C 4.558594 27.421875 4.453125 27.316406 4.453125 27.1875 L 4.453125 18.75 C 4.453125 18.621094 4.558594 18.515625 4.6875 18.515625 C 4.816406 18.515625 4.921875 18.621094 4.921875 18.75 L 4.921875 27.1875 C 4.921875 27.316406 4.816406 27.421875 4.6875 27.421875 Z M 4.6875 27.421875 "/>
<path style=" stroke:none;fill-rule:nonzero;fill:rgb(64.313728%,64.313728%,64.313728%);fill-opacity:1;" d="M 9.375 27.421875 C 9.246094 27.421875 9.140625 27.316406 9.140625 27.1875 L 9.140625 18.75 C 9.140625 18.621094 9.246094 18.515625 9.375 18.515625 C 9.503906 18.515625 9.609375 18.621094 9.609375 18.75 L 9.609375 27.1875 C 9.609375 27.316406 9.503906 27.421875 9.375 27.421875 Z M 9.375 27.421875 "/>
<path style=" stroke:none;fill-rule:nonzero;fill:rgb(85.882354%,55.686277%,6.666667%);fill-opacity:1;" d="M 9.84375 4.21875 L 9.84375 6.5625 C 9.84375 7.082031 9.425781 7.5 8.90625 7.5 L 7.96875 7.5 L 7.96875 5.15625 C 7.96875 4.636719 8.386719 4.21875 8.90625 4.21875 Z M 9.84375 4.21875 "/>
<path style=" stroke:none;fill-rule:nonzero;fill:rgb(12.941177%,16.470589%,25.490198%);fill-opacity:1;" d="M 8.90625 7.734375 L 7.96875 7.734375 C 7.839844 7.734375 7.734375 7.628906 7.734375 7.5 L 7.734375 5.15625 C 7.734375 4.511719 8.261719 3.984375 8.90625 3.984375 L 9.84375 3.984375 C 9.972656 3.984375 10.078125 4.089844 10.078125 4.21875 L 10.078125 6.5625 C 10.078125 7.207031 9.550781 7.734375 8.90625 7.734375 Z M 8.203125 7.265625 L 8.90625 7.265625 C 9.292969 7.265625 9.609375 6.949219 9.609375 6.5625 L 9.609375 4.453125 L 8.90625 4.453125 C 8.519531 4.453125 8.203125 4.769531 8.203125 5.15625 Z M 8.203125 7.265625 "/>
<path style=" stroke:none;fill-rule:nonzero;fill:rgb(97.647059%,67.450982%,18.431373%);fill-opacity:1;" d="M 13.125 3.75 L 13.125 5.15625 C 13.125 5.675781 12.707031 6.09375 12.1875 6.09375 L 8.90625 6.09375 L 8.90625 4.6875 C 8.90625 4.167969 9.324219 3.75 9.84375 3.75 Z M 13.125 3.75 "/>
<path style=" stroke:none;fill-rule:nonzero;fill:rgb(12.941177%,16.470589%,25.490198%);fill-opacity:1;" d="M 12.1875 6.328125 L 8.90625 6.328125 C 8.777344 6.328125 8.671875 6.222656 8.671875 6.09375 L 8.671875 4.6875 C 8.671875 4.042969 9.199219 3.515625 9.84375 3.515625 L 13.125 3.515625 C 13.253906 3.515625 13.359375 3.621094 13.359375 3.75 L 13.359375 5.15625 C 13.359375 5.800781 12.832031 6.328125 12.1875 6.328125 Z M 9.140625 5.859375 L 12.1875 5.859375 C 12.574219 5.859375 12.890625 5.542969 12.890625 5.15625 L 12.890625 3.984375 L 9.84375 3.984375 C 9.457031 3.984375 9.140625 4.300781 9.140625 4.6875 Z M 9.140625 5.859375 "/>
<path style=" stroke:none;fill-rule:nonzero;fill:rgb(60.000002%,63.529414%,72.549021%);fill-opacity:1;" d="M 24.375 1.875 L 16.875 1.875 C 15.839844 1.875 15 2.714844 15 3.75 L 15 7.96875 C 15 9.003906 15.839844 9.84375 16.875 9.84375 L 17.8125 9.84375 L 17.8125 12.1875 L 19.6875 12.1875 L 19.6875 9.84375 L 24.375 9.84375 C 25.410156 9.84375 26.25 9.003906 26.25 7.96875 L 26.25 3.75 C 26.25 2.714844 25.410156 1.875 24.375 1.875 Z M 24.375 1.875 "/>
<path style=" stroke:none;fill-rule:nonzero;fill:rgb(12.941177%,16.470589%,25.490198%);fill-opacity:1;" d="M 19.6875 12.421875 L 17.8125 12.421875 C 17.683594 12.421875 17.578125 12.316406 17.578125 12.1875 L 17.578125 10.078125 L 16.875 10.078125 C 15.710938 10.078125 14.765625 9.132812 14.765625 7.96875 L 14.765625 3.75 C 14.765625 2.585938 15.710938 1.640625 16.875 1.640625 L 24.375 1.640625 C 25.539062 1.640625 26.484375 2.585938 26.484375 3.75 L 26.484375 7.96875 C 26.484375 9.132812 25.539062 10.078125 24.375 10.078125 L 19.921875 10.078125 L 19.921875 12.1875 C 19.921875 12.316406 19.816406 12.421875 19.6875 12.421875 Z M 18.046875 11.953125 L 19.453125 11.953125 L 19.453125 9.84375 C 19.453125 9.714844 19.558594 9.609375 19.6875 9.609375 L 24.375 9.609375 C 25.28125 9.609375 26.015625 8.875 26.015625 7.96875 L 26.015625 3.75 C 26.015625 2.84375 25.28125 2.109375 24.375 2.109375 L 16.875 2.109375 C 15.96875 2.109375 15.234375 2.84375 15.234375 3.75 L 15.234375 7.96875 C 15.234375 8.875 15.96875 9.609375 16.875 9.609375 L 17.8125 9.609375 C 17.941406 9.609375 18.046875 9.714844 18.046875 9.84375 Z M 18.046875 11.953125 "/>
<path style=" stroke:none;fill-rule:nonzero;fill:rgb(71.764708%,75.294119%,84.313726%);fill-opacity:1;" d="M 26.25 1.875 L 18.75 1.875 C 17.714844 1.875 16.875 2.714844 16.875 3.75 L 16.875 7.96875 C 16.875 9.003906 17.714844 9.84375 18.75 9.84375 L 19.6875 9.84375 L 19.6875 12.1875 L 22.5 9.84375 L 26.25 9.84375 C 27.285156 9.84375 28.125 9.003906 28.125 7.96875 L 28.125 3.75 C 28.125 2.714844 27.285156 1.875 26.25 1.875 Z M 26.25 1.875 "/>
<path style=" stroke:none;fill-rule:nonzero;fill:rgb(12.941177%,16.470589%,25.490198%);fill-opacity:1;" d="M 19.6875 12.421875 C 19.652344 12.421875 19.621094 12.414062 19.589844 12.398438 C 19.503906 12.363281 19.453125 12.277344 19.453125 12.1875 L 19.453125 10.078125 L 18.75 10.078125 C 17.585938 10.078125 16.640625 9.132812 16.640625 7.96875 L 16.640625 3.75 C 16.640625 2.585938 17.585938 1.640625 18.75 1.640625 L 26.25 1.640625 C 27.414062 1.640625 28.359375 2.585938 28.359375 3.75 L 28.359375 7.96875 C 28.359375 9.132812 27.414062 10.078125 26.25 10.078125 L 22.585938 10.078125 L 19.835938 12.367188 C 19.792969 12.402344 19.742188 12.421875 19.6875 12.421875 Z M 18.75 2.109375 C 17.84375 2.109375 17.109375 2.84375 17.109375 3.75 L 17.109375 7.96875 C 17.109375 8.875 17.84375 9.609375 18.75 9.609375 L 19.6875 9.609375 C 19.816406 9.609375 19.921875 9.714844 19.921875 9.84375 L 19.921875 11.6875 L 22.351562 9.664062 C 22.390625 9.628906 22.445312 9.609375 22.5 9.609375 L 26.25 9.609375 C 27.15625 9.609375 27.890625 8.875 27.890625 7.96875 L 27.890625 3.75 C 27.890625 2.84375 27.15625 2.109375 26.25 2.109375 Z M 18.75 2.109375 "/>
<path style=" stroke:none;fill-rule:nonzero;fill:rgb(83.529413%,87.058824%,96.078432%);fill-opacity:1;" d="M 17.8125 8.203125 C 17.683594 8.203125 17.578125 8.097656 17.578125 7.96875 L 17.578125 3.75 C 17.578125 3.621094 17.683594 3.515625 17.8125 3.515625 C 17.941406 3.515625 18.046875 3.621094 18.046875 3.75 L 18.046875 7.96875 C 18.046875 8.097656 17.941406 8.203125 17.8125 8.203125 Z M 17.8125 8.203125 "/>
<path style=" stroke:none;fill-rule:nonzero;fill:rgb(60.000002%,63.529414%,72.549021%);fill-opacity:1;" d="M 27.1875 8.203125 C 27.058594 8.203125 26.953125 8.097656 26.953125 7.96875 L 26.953125 3.75 C 26.953125 3.621094 27.058594 3.515625 27.1875 3.515625 C 27.316406 3.515625 27.421875 3.621094 27.421875 3.75 L 27.421875 7.96875 C 27.421875 8.097656 27.316406 8.203125 27.1875 8.203125 Z M 27.1875 8.203125 "/>
<path style=" stroke:none;fill-rule:nonzero;fill:rgb(87.843138%,87.843138%,87.843138%);fill-opacity:1;" d="M 18.984375 21.09375 L 15.703125 21.09375 C 15.445312 21.09375 15.234375 21.304688 15.234375 21.5625 L 15.234375 22.96875 C 15.234375 23.226562 15.445312 23.4375 15.703125 23.4375 L 18.984375 23.4375 L 21.328125 24.375 L 21.328125 20.15625 Z M 18.984375 21.09375 "/>
<path style=" stroke:none;fill-rule:nonzero;fill:rgb(12.941177%,16.470589%,25.490198%);fill-opacity:1;" d="M 21.328125 24.609375 C 21.296875 24.609375 21.269531 24.605469 21.242188 24.59375 L 18.9375 23.671875 L 15.703125 23.671875 C 15.316406 23.671875 15 23.355469 15 22.96875 L 15 21.5625 C 15 21.175781 15.316406 20.859375 15.703125 20.859375 L 18.9375 20.859375 L 21.242188 19.9375 C 21.3125 19.910156 21.394531 19.917969 21.460938 19.960938 C 21.523438 20.003906 21.5625 20.078125 21.5625 20.15625 L 21.5625 24.375 C 21.5625 24.453125 21.523438 24.527344 21.460938 24.570312 C 21.421875 24.597656 21.375 24.609375 21.328125 24.609375 Z M 15.703125 21.328125 C 15.574219 21.328125 15.46875 21.433594 15.46875 21.5625 L 15.46875 22.96875 C 15.46875 23.097656 15.574219 23.203125 15.703125 23.203125 L 18.984375 23.203125 C 19.015625 23.203125 19.042969 23.207031 19.070312 23.21875 L 21.09375 24.027344 L 21.09375 20.503906 L 19.070312 21.3125 C 19.042969 21.324219 19.015625 21.328125 18.984375 21.328125 Z M 15.703125 21.328125 "/>
<path style=" stroke:none;fill-rule:nonzero;fill:rgb(0%,47.450981%,65.882355%);fill-opacity:1;" d="M 17.109375 25.78125 L 16.640625 25.78125 C 16.382812 25.78125 16.171875 25.570312 16.171875 25.3125 L 16.171875 23.4375 L 17.578125 23.4375 L 17.578125 25.3125 C 17.578125 25.570312 17.367188 25.78125 17.109375 25.78125 Z M 17.109375 25.78125 "/>
<path style=" stroke:none;fill-rule:nonzero;fill:rgb(12.941177%,16.470589%,25.490198%);fill-opacity:1;" d="M 17.109375 26.015625 L 16.640625 26.015625 C 16.253906 26.015625 15.9375 25.699219 15.9375 25.3125 L 15.9375 23.4375 C 15.9375 23.308594 16.042969 23.203125 16.171875 23.203125 L 17.578125 23.203125 C 17.707031 23.203125 17.8125 23.308594 17.8125 23.4375 L 17.8125 25.3125 C 17.8125 25.699219 17.496094 26.015625 17.109375 26.015625 Z M 16.40625 23.671875 L 16.40625 25.3125 C 16.40625 25.441406 16.511719 25.546875 16.640625 25.546875 L 17.109375 25.546875 C 17.238281 25.546875 17.34375 25.441406 17.34375 25.3125 L 17.34375 23.671875 Z M 16.40625 23.671875 "/>
<path style=" stroke:none;fill-rule:nonzero;fill:rgb(12.941177%,16.470589%,25.490198%);fill-opacity:1;" d="M 18.984375 23.671875 C 18.855469 23.671875 18.75 23.566406 18.75 23.4375 L 18.75 21.09375 C 18.75 20.964844 18.855469 20.859375 18.984375 20.859375 C 19.113281 20.859375 19.21875 20.964844 19.21875 21.09375 L 19.21875 23.4375 C 19.21875 23.566406 19.113281 23.671875 18.984375 23.671875 Z M 18.984375 23.671875 "/>
<path style=" stroke:none;fill-rule:nonzero;fill:rgb(12.941177%,16.470589%,25.490198%);fill-opacity:1;" d="M 25.863281 4.453125 L 19.300781 4.453125 C 19.171875 4.453125 19.066406 4.347656 19.066406 4.21875 C 19.066406 4.089844 19.171875 3.984375 19.300781 3.984375 L 25.863281 3.984375 C 25.992188 3.984375 26.097656 4.089844 26.097656 4.21875 C 26.097656 4.347656 25.992188 4.453125 25.863281 4.453125 Z M 25.863281 4.453125 "/>
<path style=" stroke:none;fill-rule:nonzero;fill:rgb(12.941177%,16.470589%,25.490198%);fill-opacity:1;" d="M 25.863281 6.328125 L 19.300781 6.328125 C 19.171875 6.328125 19.066406 6.222656 19.066406 6.09375 C 19.066406 5.964844 19.171875 5.859375 19.300781 5.859375 L 25.863281 5.859375 C 25.992188 5.859375 26.097656 5.964844 26.097656 6.09375 C 26.097656 6.222656 25.992188 6.328125 25.863281 6.328125 Z M 25.863281 6.328125 "/>
<path style=" stroke:none;fill-rule:nonzero;fill:rgb(12.941177%,16.470589%,25.490198%);fill-opacity:1;" d="M 25.863281 8.203125 L 19.300781 8.203125 C 19.171875 8.203125 19.066406 8.097656 19.066406 7.96875 C 19.066406 7.839844 19.171875 7.734375 19.300781 7.734375 L 25.863281 7.734375 C 25.992188 7.734375 26.097656 7.839844 26.097656 7.96875 C 26.097656 8.097656 25.992188 8.203125 25.863281 8.203125 Z M 25.863281 8.203125 "/>
<path style=" stroke:none;fill-rule:nonzero;fill:rgb(87.843138%,78.431374%,64.313728%);fill-opacity:1;" d="M 10.78125 16.40625 L 9.84375 16.40625 L 9.84375 14.53125 L 10.78125 14.53125 C 11.039062 14.53125 11.25 14.742188 11.25 15 L 11.25 15.9375 C 11.25 16.195312 11.039062 16.40625 10.78125 16.40625 Z M 10.78125 16.40625 "/>
<path style=" stroke:none;fill-rule:nonzero;fill:rgb(12.941177%,16.470589%,25.490198%);fill-opacity:1;" d="M 10.78125 16.640625 L 9.84375 16.640625 C 9.714844 16.640625 9.609375 16.535156 9.609375 16.40625 L 9.609375 14.53125 C 9.609375 14.402344 9.714844 14.296875 9.84375 14.296875 L 10.78125 14.296875 C 11.167969 14.296875 11.484375 14.613281 11.484375 15 L 11.484375 15.9375 C 11.484375 16.324219 11.167969 16.640625 10.78125 16.640625 Z M 10.078125 16.171875 L 10.78125 16.171875 C 10.910156 16.171875 11.015625 16.066406 11.015625 15.9375 L 11.015625 15 C 11.015625 14.871094 10.910156 14.765625 10.78125 14.765625 L 10.078125 14.765625 Z M 10.078125 16.171875 "/>
<path style=" stroke:none;fill-rule:nonzero;fill:rgb(87.843138%,78.431374%,64.313728%);fill-opacity:1;" d="M 18.28125 16.40625 L 17.34375 16.40625 L 17.34375 14.53125 L 18.28125 14.53125 C 18.539062 14.53125 18.75 14.742188 18.75 15 L 18.75 15.9375 C 18.75 16.195312 18.539062 16.40625 18.28125 16.40625 Z M 18.28125 16.40625 "/>
<path style=" stroke:none;fill-rule:nonzero;fill:rgb(12.941177%,16.470589%,25.490198%);fill-opacity:1;" d="M 18.28125 16.640625 L 17.34375 16.640625 C 17.214844 16.640625 17.109375 16.535156 17.109375 16.40625 L 17.109375 14.53125 C 17.109375 14.402344 17.214844 14.296875 17.34375 14.296875 L 18.28125 14.296875 C 18.667969 14.296875 18.984375 14.613281 18.984375 15 L 18.984375 15.9375 C 18.984375 16.324219 18.667969 16.640625 18.28125 16.640625 Z M 17.578125 16.171875 L 18.28125 16.171875 C 18.410156 16.171875 18.515625 16.066406 18.515625 15.9375 L 18.515625 15 C 18.515625 14.871094 18.410156 14.765625 18.28125 14.765625 L 17.578125 14.765625 Z M 17.578125 16.171875 "/>
<path style=" stroke:none;fill-rule:nonzero;fill:rgb(12.941177%,16.470589%,25.490198%);fill-opacity:1;" d="M 10.3125 13.359375 C 10.261719 13.359375 10.210938 13.34375 10.171875 13.3125 C 10.085938 13.246094 10.054688 13.132812 10.097656 13.03125 L 11.503906 9.75 C 11.535156 9.671875 11.613281 9.617188 11.695312 9.609375 C 11.785156 9.601562 11.867188 9.640625 11.914062 9.714844 L 12.851562 11.121094 C 12.917969 11.222656 12.898438 11.355469 12.800781 11.433594 L 10.457031 13.308594 C 10.417969 13.34375 10.363281 13.359375 10.3125 13.359375 Z M 11.765625 10.332031 L 10.894531 12.359375 L 12.339844 11.203125 Z M 11.765625 10.332031 "/>
<path style=" stroke:none;fill-rule:nonzero;fill:rgb(12.941177%,16.470589%,25.490198%);fill-opacity:1;" d="M 10.3125 13.359375 C 10.261719 13.359375 10.207031 13.34375 10.167969 13.308594 L 7.824219 11.433594 C 7.726562 11.355469 7.707031 11.222656 7.773438 11.121094 L 8.710938 9.714844 C 8.757812 9.644531 8.839844 9.601562 8.929688 9.609375 C 9.011719 9.617188 9.085938 9.671875 9.121094 9.75 L 10.527344 13.03125 C 10.570312 13.132812 10.539062 13.246094 10.453125 13.3125 C 10.414062 13.34375 10.363281 13.359375 10.3125 13.359375 Z M 8.28125 11.203125 L 9.726562 12.359375 L 8.859375 10.332031 Z M 8.28125 11.203125 "/>
</g>
</svg>
