<?xml version="1.0" encoding="UTF-8"?>
<svg xmlns="http://www.w3.org/2000/svg" xmlns:xlink="http://www.w3.org/1999/xlink" width="30px" height="19px" viewBox="0 0 29 19" version="1.1">
<g id="surface1">
<path style=" stroke:none;fill-rule:nonzero;fill:rgb(62.7451%,45.09804%,19.607843%);fill-opacity:1;" d="M 29 5.695312 C 25.101562 9.667969 19.074219 15.273438 14.785156 17.765625 C 10.449219 20.289062 9.074219 18.613281 10.667969 15.578125 C 12.898438 11.316406 15.953125 8.066406 19.058594 4.65625 C 18.53125 5.742188 16.757812 9.851562 18.570312 10.792969 C 20.980469 12.046875 26.875 7.457031 29 5.695312 Z M 29 5.695312 "/>
<path style=" stroke:none;fill-rule:nonzero;fill:rgb(17.647059%,23.529412%,35.294119%);fill-opacity:1;" d="M 0 13.296875 C 3.898438 9.324219 9.925781 3.722656 14.214844 1.230469 C 18.550781 -1.292969 19.925781 0.378906 18.332031 3.417969 C 16.101562 7.675781 13.046875 10.925781 9.941406 14.339844 C 10.46875 13.25 12.242188 9.144531 10.429688 8.199219 C 8.019531 6.945312 2.125 11.535156 0 13.296875 Z M 0 13.296875 "/>
<path style=" stroke:none;fill-rule:nonzero;fill:rgb(17.647059%,23.529412%,35.294119%);fill-opacity:1;" d="M 16.949219 11.148438 C 16.050781 12.523438 14.226562 12.898438 12.875 11.988281 L 16.125 7.007812 C 17.476562 7.917969 17.84375 9.773438 16.949219 11.148438 Z M 16.949219 11.148438 "/>
<path style=" stroke:none;fill-rule:nonzero;fill:rgb(62.7451%,45.09804%,19.607843%);fill-opacity:1;" d="M 12.875 11.988281 C 11.523438 11.074219 11.15625 9.21875 12.050781 7.84375 C 12.949219 6.472656 14.773438 6.09375 16.125 7.007812 Z M 12.875 11.988281 "/>
<path style=" stroke:none;fill-rule:nonzero;fill:rgb(100%,100%,100%);fill-opacity:1;" d="M 15.601562 7.382812 L 15.585938 7.417969 L 15.59375 7.453125 L 15.601562 7.46875 L 15.636719 7.457031 L 15.578125 7.480469 L 15.546875 7.5625 L 15.519531 7.621094 L 15.535156 7.664062 L 15.527344 7.691406 L 15.523438 7.703125 L 15.527344 7.707031 L 15.546875 7.714844 L 15.574219 7.699219 L 15.589844 7.710938 L 15.570312 7.742188 L 15.542969 7.746094 L 15.558594 7.761719 L 15.546875 7.832031 L 15.570312 7.859375 L 15.53125 7.867188 L 15.484375 7.867188 L 15.46875 7.914062 L 15.472656 7.964844 L 15.417969 7.996094 L 15.410156 7.976562 L 15.382812 7.992188 L 15.378906 8.007812 L 15.402344 8.046875 L 15.375 8.03125 L 15.394531 8.035156 L 15.378906 8.011719 L 15.367188 8.046875 L 15.375 8.011719 L 15.320312 8.074219 L 15.335938 8.074219 L 15.335938 8.109375 L 15.339844 8.101562 L 15.339844 8.097656 L 15.339844 8.101562 L 15.347656 8.117188 L 15.375 8.121094 L 15.378906 8.121094 L 15.359375 8.144531 L 15.375 8.15625 L 15.339844 8.167969 L 15.328125 8.199219 L 15.300781 8.195312 L 15.335938 8.257812 L 15.253906 8.242188 L 15.257812 8.222656 L 15.238281 8.226562 L 15.242188 8.210938 L 15.214844 8.199219 L 15.1875 8.222656 L 15.152344 8.222656 L 15.171875 8.273438 L 15.140625 8.296875 L 15.136719 8.296875 L 15.109375 8.300781 L 15.105469 8.28125 L 15.066406 8.304688 L 15.058594 8.34375 L 15.023438 8.316406 L 15.027344 8.332031 L 15.007812 8.324219 L 14.992188 8.335938 L 15 8.351562 L 15.015625 8.34375 C 14.972656 8.371094 14.972656 8.445312 14.964844 8.371094 L 14.996094 8.257812 L 14.964844 8.242188 L 14.984375 8.246094 L 14.980469 8.234375 L 14.925781 8.214844 L 14.886719 8.25 L 14.886719 8.226562 L 14.847656 8.238281 L 14.863281 8.214844 L 14.832031 8.210938 L 14.820312 8.25 L 14.832031 8.277344 L 14.820312 8.28125 L 14.804688 8.289062 L 14.828125 8.300781 L 14.808594 8.300781 L 14.785156 8.332031 L 14.785156 8.316406 L 14.75 8.324219 L 14.746094 8.339844 L 14.765625 8.332031 L 14.6875 8.390625 L 14.691406 8.417969 L 14.675781 8.410156 L 14.703125 8.453125 L 14.609375 8.480469 L 14.621094 8.539062 L 14.667969 8.574219 L 14.679688 8.65625 L 14.683594 8.667969 L 14.667969 8.65625 L 14.660156 8.660156 L 14.644531 8.660156 L 14.632812 8.664062 L 14.617188 8.664062 L 14.617188 8.65625 L 14.613281 8.648438 L 14.613281 8.609375 L 14.609375 8.605469 L 14.609375 8.558594 L 14.582031 8.542969 L 14.570312 8.554688 L 14.578125 8.574219 L 14.546875 8.570312 L 14.589844 8.621094 L 14.550781 8.605469 L 14.527344 8.519531 L 14.53125 8.554688 L 14.496094 8.59375 L 14.515625 8.636719 L 14.511719 8.667969 L 14.507812 8.710938 L 14.546875 8.703125 L 14.578125 8.722656 L 14.589844 8.757812 L 14.578125 8.78125 L 14.605469 8.796875 L 14.570312 8.777344 L 14.558594 8.71875 L 14.523438 8.730469 L 14.527344 8.785156 L 14.46875 8.863281 L 14.410156 8.835938 L 14.464844 8.824219 L 14.503906 8.746094 L 14.484375 8.71875 L 14.492188 8.667969 L 14.492188 8.621094 L 14.476562 8.589844 L 14.496094 8.527344 L 14.476562 8.519531 L 14.445312 8.515625 L 14.421875 8.582031 L 14.390625 8.601562 L 14.386719 8.65625 L 14.382812 8.679688 L 14.40625 8.683594 L 14.425781 8.714844 L 14.402344 8.757812 L 14.355469 8.695312 L 14.371094 8.703125 L 14.28125 8.648438 L 14.269531 8.660156 L 14.273438 8.699219 L 14.253906 8.699219 L 14.246094 8.71875 L 14.238281 8.683594 L 14.203125 8.695312 L 14.167969 8.6875 L 14.15625 8.703125 L 14.125 8.691406 L 14.140625 8.664062 L 14.160156 8.660156 L 14.152344 8.65625 L 14.113281 8.679688 L 14.117188 8.667969 L 14.035156 8.671875 L 14.039062 8.691406 L 14.015625 8.683594 L 13.996094 8.710938 L 13.96875 8.703125 L 13.964844 8.667969 L 14.003906 8.664062 L 14.007812 8.648438 L 13.96875 8.59375 L 13.972656 8.621094 L 13.917969 8.726562 L 13.898438 8.683594 L 13.859375 8.691406 L 13.824219 8.703125 L 13.820312 8.722656 L 13.8125 8.757812 L 13.804688 8.746094 L 13.785156 8.71875 L 13.773438 8.722656 L 13.785156 8.714844 L 13.765625 8.6875 L 13.75 8.699219 L 13.761719 8.734375 L 13.738281 8.753906 L 13.714844 8.6875 L 13.730469 8.648438 L 13.757812 8.632812 L 13.738281 8.59375 L 13.753906 8.597656 L 13.75 8.542969 L 13.832031 8.667969 L 13.859375 8.660156 L 13.898438 8.648438 L 13.898438 8.585938 L 13.863281 8.496094 L 13.839844 8.476562 L 13.820312 8.488281 L 13.84375 8.472656 L 13.828125 8.453125 L 13.839844 8.441406 L 13.851562 8.453125 L 13.84375 8.433594 L 13.820312 8.441406 L 13.820312 8.417969 L 13.800781 8.417969 L 13.804688 8.398438 L 13.808594 8.386719 L 13.824219 8.410156 L 13.84375 8.40625 L 13.839844 8.367188 L 13.808594 8.367188 L 13.835938 8.355469 L 13.832031 8.34375 L 13.800781 8.359375 L 13.789062 8.355469 L 13.816406 8.335938 L 13.761719 8.351562 L 13.800781 8.332031 L 13.792969 8.3125 L 13.742188 8.335938 L 13.742188 8.332031 L 13.738281 8.300781 L 13.726562 8.316406 L 13.71875 8.328125 L 13.71875 8.304688 L 13.679688 8.316406 L 13.683594 8.3125 L 13.699219 8.300781 L 13.679688 8.304688 L 13.699219 8.296875 L 13.679688 8.292969 L 13.671875 8.3125 L 13.667969 8.285156 L 13.628906 8.304688 L 13.613281 8.292969 L 13.621094 8.316406 L 13.605469 8.296875 L 13.582031 8.316406 L 13.597656 8.296875 L 13.582031 8.289062 L 13.582031 8.300781 L 13.570312 8.289062 L 13.566406 8.316406 L 13.542969 8.300781 L 13.542969 8.324219 L 13.519531 8.296875 L 13.519531 8.308594 L 13.484375 8.3125 L 13.5 8.324219 L 13.476562 8.3125 L 13.46875 8.324219 L 13.46875 8.316406 L 13.433594 8.324219 L 13.445312 8.339844 L 13.410156 8.324219 L 13.425781 8.335938 L 13.40625 8.328125 L 13.402344 8.34375 L 13.386719 8.339844 L 13.398438 8.324219 L 13.34375 8.324219 L 13.347656 8.34375 L 13.382812 8.347656 L 13.347656 8.359375 L 13.332031 8.34375 L 13.34375 8.332031 L 13.324219 8.316406 L 13.304688 8.335938 L 13.300781 8.316406 L 13.292969 8.335938 L 13.292969 8.300781 L 13.289062 8.328125 L 13.269531 8.296875 L 13.257812 8.324219 L 13.265625 8.308594 L 13.25 8.316406 L 13.25 8.300781 L 13.246094 8.3125 L 13.246094 8.28125 L 13.230469 8.292969 L 13.214844 8.296875 L 13.21875 8.320312 L 13.207031 8.300781 L 13.214844 8.316406 L 13.199219 8.316406 L 13.214844 8.339844 L 13.226562 8.335938 L 13.21875 8.355469 L 13.234375 8.351562 L 13.226562 8.363281 L 13.207031 8.359375 L 13.214844 8.34375 L 13.191406 8.3125 L 13.191406 8.328125 L 13.183594 8.316406 L 13.175781 8.328125 L 13.1875 8.335938 L 13.167969 8.332031 L 13.160156 8.34375 L 13.171875 8.34375 L 13.148438 8.351562 L 13.1875 8.367188 L 13.132812 8.355469 L 13.128906 8.371094 L 13.148438 8.386719 L 13.121094 8.382812 L 13.128906 8.398438 L 13.113281 8.398438 L 13.113281 8.378906 L 13.097656 8.390625 L 13.089844 8.4375 L 13.105469 8.460938 L 13.160156 8.457031 L 13.167969 8.476562 L 13.207031 8.460938 L 13.148438 8.519531 L 13.15625 8.523438 L 13.136719 8.539062 L 13.15625 8.53125 L 13.128906 8.546875 L 13.101562 8.609375 L 13.085938 8.605469 L 13.054688 8.648438 L 13.074219 8.675781 L 13.109375 8.660156 L 13.125 8.691406 L 13.1875 8.660156 L 13.21875 8.621094 L 13.226562 8.628906 L 13.222656 8.609375 L 13.246094 8.628906 L 13.265625 8.621094 L 13.253906 8.640625 L 13.285156 8.636719 L 13.277344 8.621094 L 13.304688 8.625 L 13.320312 8.578125 L 13.3125 8.558594 L 13.40625 8.492188 L 13.40625 8.507812 L 13.457031 8.511719 L 13.476562 8.515625 L 13.511719 8.503906 L 13.542969 8.46875 L 13.542969 8.480469 L 13.5625 8.460938 L 13.5625 8.476562 L 13.582031 8.46875 L 13.601562 8.496094 L 13.585938 8.542969 L 13.445312 8.558594 L 13.40625 8.613281 L 13.371094 8.640625 L 13.371094 8.671875 L 13.386719 8.675781 L 13.367188 8.695312 L 13.492188 8.757812 L 13.480469 8.773438 L 13.496094 8.816406 L 13.449219 8.785156 L 13.4375 8.800781 L 13.40625 8.75 L 13.355469 8.726562 L 13.328125 8.765625 L 13.34375 8.78125 L 13.304688 8.820312 L 13.28125 8.816406 L 13.289062 8.765625 L 13.265625 8.757812 L 13.21875 8.777344 L 13.167969 8.839844 L 13.15625 8.828125 L 13.191406 8.8125 L 13.164062 8.824219 L 13.148438 8.820312 L 13.148438 8.816406 L 13.136719 8.824219 L 13.136719 8.828125 L 13.148438 8.835938 L 13.132812 8.832031 L 13.113281 8.828125 L 13.136719 8.824219 L 13.109375 8.8125 L 13.109375 8.777344 L 13.03125 8.734375 L 13.015625 8.746094 L 13.023438 8.679688 L 12.976562 8.648438 L 12.996094 8.636719 L 12.980469 8.617188 L 12.992188 8.582031 L 13.027344 8.558594 L 13.070312 8.570312 L 13.070312 8.542969 L 13.117188 8.523438 L 13.070312 8.496094 L 13.050781 8.511719 L 13.074219 8.507812 L 13.082031 8.53125 L 13.070312 8.519531 L 13.054688 8.535156 L 13.0625 8.519531 L 13.050781 8.515625 L 13.050781 8.511719 L 12.972656 8.558594 L 12.984375 8.5625 L 12.96875 8.585938 L 12.960938 8.582031 L 12.945312 8.632812 L 12.945312 8.59375 L 12.925781 8.605469 L 12.929688 8.582031 L 12.914062 8.566406 L 12.90625 8.582031 L 12.894531 8.539062 L 12.875 8.539062 L 12.863281 8.5625 L 12.847656 8.558594 L 12.867188 8.523438 L 12.820312 8.535156 L 12.816406 8.558594 L 12.796875 8.53125 L 12.796875 8.558594 L 12.753906 8.496094 L 12.730469 8.519531 L 12.71875 8.515625 L 12.679688 8.496094 L 12.679688 8.429688 L 12.644531 8.476562 L 12.628906 8.4375 L 12.640625 8.417969 L 12.617188 8.378906 L 12.609375 8.402344 L 12.609375 8.386719 L 12.59375 8.410156 L 12.59375 8.476562 L 12.5625 8.515625 L 12.5625 8.539062 L 12.535156 8.554688 L 12.535156 8.558594 L 12.457031 8.601562 L 12.417969 8.429688 L 12.429688 8.398438 L 12.398438 8.363281 L 12.375 8.402344 L 12.300781 8.449219 L 12.253906 8.453125 L 12.257812 8.46875 L 12.242188 8.472656 L 12.242188 8.484375 L 12.199219 8.515625 L 12.21875 8.582031 L 12.1875 8.660156 L 12.21875 8.683594 L 12.238281 8.761719 L 12.265625 8.765625 L 12.277344 8.789062 L 12.300781 8.777344 L 12.316406 8.785156 L 12.320312 8.789062 L 12.324219 8.777344 L 12.328125 8.761719 L 12.347656 8.746094 L 12.355469 8.75 L 12.398438 8.75 L 12.457031 8.796875 L 12.480469 8.761719 L 12.5 8.757812 L 12.519531 8.777344 L 12.527344 8.855469 L 12.613281 8.886719 L 12.617188 8.945312 L 12.582031 9.023438 L 12.59375 9.238281 L 12.578125 9.296875 L 12.539062 9.308594 L 12.546875 9.324219 L 12.582031 9.308594 L 12.597656 9.320312 L 12.605469 9.273438 L 12.632812 9.261719 L 12.648438 9.296875 L 12.644531 9.324219 L 12.65625 9.320312 L 12.644531 9.199219 L 12.660156 9.1875 L 12.636719 9.144531 L 12.660156 9.058594 L 12.660156 9 L 12.695312 8.953125 L 12.734375 8.980469 L 12.707031 9.023438 L 12.734375 9.023438 L 12.703125 9.125 L 12.71875 9.15625 L 12.71875 9.199219 L 12.710938 9.171875 L 12.730469 9.238281 L 12.730469 9.289062 L 12.683594 9.328125 L 12.679688 9.378906 L 12.675781 9.425781 L 12.6875 9.429688 L 12.675781 9.429688 L 12.671875 9.457031 L 12.714844 9.523438 L 12.703125 9.523438 L 12.675781 9.46875 L 12.65625 9.476562 L 12.644531 9.53125 L 12.660156 9.535156 L 12.65625 9.570312 L 12.667969 9.554688 L 12.675781 9.589844 L 12.691406 9.535156 L 12.707031 9.558594 L 12.703125 9.527344 L 12.71875 9.535156 L 12.722656 9.566406 L 12.738281 9.546875 L 12.742188 9.5625 L 12.753906 9.53125 L 12.742188 9.492188 L 12.726562 9.488281 L 12.738281 9.542969 L 12.714844 9.476562 L 12.734375 9.488281 L 12.738281 9.46875 L 12.746094 9.488281 L 12.757812 9.417969 L 12.773438 9.421875 L 12.777344 9.476562 L 12.785156 9.453125 L 12.792969 9.480469 L 12.792969 9.4375 L 12.835938 9.464844 L 12.871094 9.523438 L 12.835938 9.53125 L 12.894531 9.527344 L 12.933594 9.5625 L 12.9375 9.472656 L 12.925781 9.46875 L 12.988281 9.453125 L 13.03125 9.402344 L 13.03125 9.414062 L 13.050781 9.421875 L 13.074219 9.382812 L 13.070312 9.394531 L 13.074219 9.394531 L 13.101562 9.390625 L 13.121094 9.375 L 13.160156 9.386719 L 13.164062 9.414062 L 13.140625 9.390625 L 13.148438 9.40625 L 13.140625 9.410156 L 13.1875 9.449219 L 13.179688 9.46875 L 13.136719 9.460938 L 13.15625 9.472656 L 13.140625 9.515625 L 13.152344 9.539062 L 13.238281 9.546875 L 13.207031 9.527344 L 13.203125 9.511719 L 13.199219 9.484375 L 13.191406 9.472656 L 13.238281 9.46875 L 13.222656 9.484375 L 13.261719 9.476562 L 13.367188 9.511719 L 13.332031 9.527344 L 13.308594 9.511719 L 13.316406 9.539062 L 13.273438 9.5625 L 13.246094 9.554688 L 13.304688 9.695312 L 13.339844 9.753906 L 13.332031 9.800781 L 13.308594 9.816406 L 13.265625 9.8125 L 13.257812 9.808594 L 13.207031 9.773438 L 13.152344 9.722656 L 13.128906 9.65625 L 13.082031 9.621094 L 13 9.613281 L 12.945312 9.554688 L 12.9375 9.578125 L 12.953125 9.597656 L 12.929688 9.578125 L 12.921875 9.589844 L 12.863281 9.53125 L 12.832031 9.535156 L 12.820312 9.550781 L 12.847656 9.570312 L 12.816406 9.597656 L 12.828125 9.621094 L 12.8125 9.609375 L 12.8125 9.589844 L 12.796875 9.597656 L 12.816406 9.640625 L 12.804688 9.644531 L 12.8125 9.679688 L 12.792969 9.679688 L 12.828125 9.703125 L 12.792969 9.695312 L 12.824219 9.714844 L 12.84375 9.773438 L 12.867188 9.792969 L 12.886719 9.773438 L 12.902344 9.785156 L 12.933594 9.859375 L 12.972656 9.878906 L 13.007812 9.871094 L 13.027344 9.898438 L 13.054688 9.902344 L 13.019531 9.945312 L 13.007812 9.992188 L 12.890625 10.082031 L 12.816406 10.039062 L 12.8125 10.09375 L 12.8125 10.167969 L 12.832031 10.226562 L 12.890625 10.175781 L 12.851562 10.222656 L 12.871094 10.238281 L 12.902344 10.398438 L 12.898438 10.4375 L 12.929688 10.488281 L 12.941406 10.554688 L 12.929688 10.605469 L 12.953125 10.652344 L 12.976562 10.695312 L 13.03125 10.851562 L 13.011719 10.902344 L 13.03125 11.011719 L 13.101562 11.042969 L 13.128906 11.035156 L 13.265625 11.074219 L 13.300781 11.066406 L 13.433594 11.082031 L 13.449219 11.054688 L 13.570312 11.070312 L 13.59375 11.046875 L 13.636719 11.058594 L 13.660156 11.03125 L 13.710938 11.035156 L 13.71875 10.984375 L 13.734375 10.976562 L 13.75 10.988281 L 13.820312 10.929688 L 13.777344 10.863281 L 13.707031 10.832031 L 13.6875 10.796875 L 13.679688 10.746094 L 13.695312 10.71875 L 13.574219 10.777344 L 13.507812 10.753906 L 13.484375 10.757812 L 13.453125 10.726562 L 13.480469 10.664062 L 13.457031 10.65625 L 13.433594 10.703125 L 13.414062 10.636719 L 13.425781 10.613281 L 13.382812 10.550781 L 13.371094 10.464844 L 13.355469 10.453125 L 13.378906 10.457031 L 13.375 10.433594 L 13.375 10.429688 L 13.410156 10.445312 L 13.417969 10.433594 L 13.4375 10.460938 L 13.460938 10.460938 L 13.464844 10.46875 L 13.492188 10.578125 L 13.53125 10.605469 L 13.578125 10.664062 L 13.621094 10.691406 L 13.707031 10.683594 L 13.726562 10.753906 L 13.839844 10.804688 L 13.917969 10.832031 L 14.132812 10.84375 L 14.140625 10.875 L 14.171875 10.882812 L 14.175781 10.921875 L 14.21875 10.921875 L 14.214844 10.941406 L 14.238281 10.929688 L 14.222656 10.941406 L 14.253906 10.976562 L 14.3125 10.972656 L 14.300781 10.992188 L 14.242188 10.996094 L 14.332031 11.070312 L 14.390625 11.050781 L 14.402344 11.003906 L 14.429688 11.007812 L 14.410156 11.023438 L 14.410156 11.03125 L 14.429688 11.03125 L 14.414062 11.050781 L 14.429688 11.070312 L 14.414062 11.109375 L 14.453125 11.257812 L 14.570312 11.4375 L 14.609375 11.507812 L 14.65625 11.535156 L 14.6875 11.523438 L 14.695312 11.503906 L 14.742188 11.492188 L 14.726562 11.484375 L 14.738281 11.464844 L 14.746094 11.457031 L 14.773438 11.453125 L 14.765625 11.40625 L 14.78125 11.382812 L 14.796875 11.347656 L 14.777344 11.285156 L 14.785156 11.261719 L 14.824219 11.257812 L 14.835938 11.234375 L 14.886719 11.21875 L 14.882812 11.199219 L 14.972656 11.136719 L 15.011719 11.089844 L 15.074219 11.058594 L 15.101562 11.023438 L 15.09375 11 L 15.132812 10.976562 L 15.140625 10.953125 L 15.15625 10.976562 L 15.171875 10.953125 L 15.191406 10.964844 L 15.1875 10.945312 L 15.199219 10.960938 L 15.210938 10.941406 L 15.222656 10.949219 L 15.226562 10.925781 L 15.242188 10.945312 L 15.257812 10.910156 L 15.261719 10.933594 L 15.269531 10.925781 L 15.257812 10.902344 L 15.296875 10.894531 L 15.371094 10.980469 L 15.378906 10.960938 L 15.378906 10.980469 L 15.417969 10.980469 L 15.433594 10.996094 L 15.40625 11.003906 L 15.429688 11.019531 L 15.4375 10.996094 L 15.46875 11.058594 L 15.457031 11.121094 L 15.476562 11.105469 L 15.46875 11.125 L 15.476562 11.113281 L 15.496094 11.121094 L 15.5 11.105469 L 15.515625 11.113281 L 15.527344 11.089844 L 15.554688 11.074219 L 15.539062 11.0625 L 15.558594 11.070312 L 15.578125 11.050781 L 15.574219 11.027344 L 15.597656 11.054688 L 15.617188 11.046875 L 15.628906 11.109375 L 15.652344 11.148438 L 15.652344 11.132812 L 15.679688 11.164062 L 15.675781 11.199219 L 15.695312 11.199219 L 15.675781 11.242188 L 15.683594 11.265625 L 15.695312 11.246094 L 15.691406 11.261719 L 15.675781 11.328125 L 15.695312 11.3125 L 15.761719 11.34375 L 15.769531 11.34375 L 15.792969 11.402344 L 15.828125 11.433594 L 15.929688 11.429688 L 15.949219 11.410156 L 15.964844 11.410156 L 15.925781 11.386719 L 15.925781 11.335938 L 15.910156 11.320312 L 15.832031 11.304688 L 15.777344 11.320312 L 15.753906 11.277344 L 15.746094 11.265625 L 15.714844 11.277344 L 15.714844 11.25 L 15.710938 11.242188 L 15.742188 11.164062 L 15.742188 11.160156 L 15.738281 11.152344 L 15.734375 11.125 L 15.777344 11.097656 L 15.777344 11.132812 L 15.820312 11.113281 L 15.859375 11.113281 L 15.890625 11.148438 L 15.90625 11.128906 L 15.910156 11.148438 L 15.921875 11.132812 L 15.976562 11.132812 L 15.96875 11.175781 L 15.992188 11.167969 L 16.03125 11.128906 C 16.023438 11.125 16.019531 11.121094 16.011719 11.113281 L 16.042969 11.113281 L 16.03125 11.105469 L 16.027344 11.101562 L 16.035156 11.105469 L 16.046875 11.105469 L 16.03125 11.097656 L 16.050781 11.089844 L 16.035156 11.089844 C 15.867188 11.027344 15.949219 11.117188 16.035156 11.089844 L 16.050781 11.085938 L 16.046875 11.074219 L 16.070312 11.070312 L 16.140625 10.996094 L 16.140625 10.949219 L 16.148438 10.941406 L 16.109375 10.867188 L 16.078125 10.847656 L 16.023438 10.851562 L 15.945312 10.808594 L 15.949219 10.765625 L 15.96875 10.734375 L 15.964844 10.71875 L 15.976562 10.714844 L 15.964844 10.703125 L 15.996094 10.691406 L 16.007812 10.660156 L 16.035156 10.644531 L 16.03125 10.628906 L 16.066406 10.636719 L 16.078125 10.609375 L 16.09375 10.613281 L 16.089844 10.636719 L 16.105469 10.660156 L 16.121094 10.652344 L 16.109375 10.605469 L 16.117188 10.613281 L 16.160156 10.570312 L 16.15625 10.558594 L 16.183594 10.546875 L 16.179688 10.53125 L 16.203125 10.527344 L 16.195312 10.5 L 16.207031 10.511719 L 16.210938 10.496094 L 16.222656 10.496094 L 16.207031 10.464844 L 16.25 10.472656 L 16.242188 10.464844 L 16.261719 10.441406 L 16.265625 10.445312 L 16.277344 10.421875 L 16.289062 10.425781 L 16.320312 10.390625 L 16.328125 10.371094 L 16.3125 10.371094 L 16.335938 10.34375 L 16.335938 10.328125 L 16.347656 10.332031 L 16.359375 10.292969 L 16.34375 10.292969 L 16.371094 10.269531 L 16.367188 10.257812 L 16.378906 10.246094 L 16.367188 10.238281 L 16.382812 10.226562 L 16.378906 10.210938 L 16.394531 10.210938 L 16.378906 10.1875 L 16.386719 10.164062 L 16.375 10.171875 L 16.382812 10.164062 L 16.367188 10.160156 L 16.382812 10.152344 L 16.386719 10.148438 L 16.390625 10.082031 L 16.378906 10.082031 L 16.40625 10.046875 L 16.390625 10.035156 L 16.398438 10.015625 L 16.382812 10.015625 L 16.402344 10 L 16.394531 9.984375 L 16.382812 10.007812 L 16.394531 9.96875 L 16.382812 9.96875 L 16.359375 9.976562 L 16.328125 10.011719 L 16.367188 9.9375 L 16.316406 9.929688 L 16.351562 9.902344 L 16.304688 9.902344 L 16.25 9.847656 L 16.242188 9.851562 L 16.210938 9.859375 L 16.207031 9.847656 L 16.214844 9.800781 L 16.21875 9.78125 L 16.207031 9.777344 L 16.226562 9.765625 L 16.21875 9.746094 L 16.242188 9.695312 L 16.261719 9.6875 L 16.253906 9.664062 L 16.1875 9.695312 L 16.175781 9.726562 L 16.160156 9.761719 L 16.128906 9.726562 L 16.089844 9.75 L 16.074219 9.71875 L 16.109375 9.683594 L 16.117188 9.625 L 16.128906 9.570312 L 16.144531 9.539062 L 16.167969 9.554688 L 16.167969 9.621094 L 16.1875 9.601562 L 16.179688 9.648438 L 16.21875 9.539062 L 16.273438 9.5 L 16.285156 9.539062 L 16.300781 9.535156 L 16.285156 9.554688 L 16.289062 9.582031 L 16.304688 9.566406 L 16.304688 9.582031 L 16.316406 9.570312 L 16.316406 9.558594 L 16.34375 9.546875 L 16.378906 9.574219 L 16.363281 9.574219 L 16.359375 9.597656 L 16.375 9.597656 L 16.371094 9.585938 L 16.382812 9.609375 L 16.394531 9.597656 L 16.402344 9.652344 L 16.425781 9.664062 L 16.414062 9.671875 L 16.425781 9.675781 L 16.433594 9.636719 L 16.445312 9.644531 L 16.441406 9.625 L 16.453125 9.628906 L 16.445312 9.617188 L 16.464844 9.601562 L 16.460938 9.582031 L 16.476562 9.574219 L 16.464844 9.523438 L 16.433594 9.492188 L 16.367188 9.460938 L 16.328125 9.46875 L 16.320312 9.445312 L 16.34375 9.339844 L 16.316406 9.304688 L 16.324219 9.261719 L 16.308594 9.25 L 16.328125 9.238281 L 16.3125 9.195312 L 16.359375 9.183594 L 16.375 9.097656 L 16.339844 8.921875 L 16.289062 8.796875 L 16.28125 8.769531 L 16.246094 8.734375 L 16.21875 8.714844 L 16.183594 8.644531 L 16.132812 8.632812 L 16.148438 8.625 L 16.136719 8.609375 L 16.089844 8.621094 L 16.078125 8.621094 L 16.066406 8.648438 L 16.074219 8.65625 L 16.074219 8.703125 L 16.050781 8.667969 L 16.058594 8.707031 L 16.027344 8.675781 L 16.011719 8.707031 L 15.992188 8.707031 L 15.976562 8.589844 L 15.953125 8.515625 L 15.917969 8.414062 L 15.9375 8.339844 L 15.953125 8.339844 L 15.945312 8.324219 L 15.96875 8.273438 L 15.953125 8.25 L 15.992188 8.199219 L 15.992188 8.230469 L 16.007812 8.230469 L 16.007812 8.132812 L 15.996094 8.132812 L 15.992188 8.152344 L 15.976562 8.144531 L 15.914062 8.058594 L 15.90625 7.980469 L 15.90625 7.972656 L 15.925781 7.988281 L 15.933594 7.996094 L 15.953125 8 L 15.949219 7.996094 L 15.945312 7.984375 L 15.96875 7.996094 L 15.921875 7.933594 L 15.921875 7.914062 L 15.882812 7.90625 L 15.875 7.875 L 15.886719 7.863281 L 15.894531 7.890625 L 15.960938 7.914062 L 15.976562 7.960938 L 16.03125 8.027344 L 16.074219 8.085938 L 16.078125 8.125 L 16.121094 8.167969 L 16.183594 8.210938 L 16.363281 8.273438 L 16.3125 8.191406 L 16.285156 8.179688 L 16.285156 8.132812 L 16.277344 8.128906 L 16.265625 8.128906 L 16.261719 8.125 L 16.25 8.121094 L 16.242188 8.113281 L 16.222656 8.046875 L 16.164062 8.027344 L 16.164062 7.996094 L 16.109375 7.992188 L 16.09375 7.972656 L 16.085938 8 L 15.996094 7.933594 L 15.992188 7.910156 L 16.007812 7.90625 L 15.972656 7.867188 L 16.003906 7.871094 L 15.976562 7.847656 L 15.964844 7.800781 L 15.992188 7.78125 L 15.96875 7.773438 L 15.902344 7.695312 L 15.851562 7.621094 L 15.851562 7.578125 L 15.832031 7.566406 L 15.761719 7.589844 L 15.773438 7.589844 L 15.753906 7.605469 L 15.773438 7.632812 L 15.757812 7.632812 L 15.761719 7.652344 L 15.738281 7.566406 L 15.722656 7.558594 L 15.699219 7.542969 L 15.664062 7.546875 L 15.65625 7.53125 L 15.695312 7.53125 L 15.679688 7.496094 L 15.710938 7.476562 L 15.714844 7.441406 L 15.699219 7.4375 L 15.714844 7.433594 L 15.699219 7.414062 L 15.691406 7.433594 L 15.671875 7.417969 L 15.652344 7.417969 L 15.648438 7.433594 L 15.644531 7.402344 L 15.632812 7.410156 L 15.632812 7.394531 Z M 15.429688 7.527344 L 15.421875 7.5625 L 15.433594 7.566406 L 15.464844 7.578125 L 15.457031 7.566406 Z M 13.328125 7.65625 L 13.320312 7.710938 L 13.308594 7.695312 L 13.300781 7.710938 L 13.300781 7.671875 L 13.265625 7.722656 L 13.246094 7.699219 L 13.246094 7.734375 L 13.234375 7.757812 L 13.21875 7.78125 L 13.234375 7.8125 L 13.253906 7.847656 L 13.285156 7.867188 L 13.289062 7.851562 L 13.292969 7.867188 L 13.339844 7.824219 L 13.351562 7.832031 L 13.34375 7.820312 L 13.363281 7.804688 L 13.339844 7.800781 L 13.34375 7.765625 L 13.320312 7.777344 L 13.347656 7.757812 L 13.328125 7.75 L 13.335938 7.738281 L 13.34375 7.730469 L 13.304688 7.722656 L 13.34375 7.714844 L 13.367188 7.675781 L 13.339844 7.695312 L 13.359375 7.675781 L 13.332031 7.679688 L 13.34375 7.664062 L 13.328125 7.671875 Z M 15.535156 7.71875 L 15.535156 7.738281 L 15.550781 7.730469 Z M 15.257812 7.910156 L 15.21875 7.949219 L 15.253906 7.953125 L 15.273438 7.933594 Z M 16.039062 7.917969 L 16.039062 7.941406 L 16.066406 7.957031 Z M 14.050781 7.925781 L 14 7.976562 L 14.039062 7.976562 L 14.023438 7.988281 L 14.039062 7.988281 L 14.035156 8.003906 L 13.996094 7.984375 L 13.980469 7.996094 L 14.007812 8.015625 L 13.984375 8.003906 L 13.984375 8.019531 L 13.976562 8 L 13.957031 8.027344 L 13.953125 8.054688 L 14.039062 8.019531 L 14.054688 8.019531 L 14.070312 8.023438 L 14.085938 7.976562 L 14.074219 7.976562 L 14.09375 7.953125 L 14.046875 7.984375 L 14.078125 7.949219 L 14.050781 7.957031 L 14.054688 7.933594 L 14.078125 7.9375 Z M 14.105469 7.957031 L 14.09375 7.976562 L 14.113281 7.996094 L 14.089844 7.996094 L 14.097656 8.023438 L 14.148438 8.019531 L 14.152344 7.996094 L 14.132812 7.992188 L 14.148438 7.976562 L 14.121094 7.992188 L 14.128906 7.964844 L 14.132812 7.957031 L 14.117188 7.96875 Z M 15.21875 7.960938 L 15.171875 7.988281 L 15.195312 8.007812 L 15.179688 8.011719 L 15.160156 8.011719 L 15.175781 8.042969 L 15.214844 8.054688 L 15.222656 8.035156 L 15.242188 7.996094 L 15.199219 7.988281 L 15.234375 7.992188 Z M 14.050781 8.023438 L 14.042969 8.039062 L 14.066406 8.03125 Z M 15.304688 8.027344 L 15.28125 8.035156 L 15.285156 8.066406 L 15.289062 8.074219 L 15.289062 8.070312 L 15.316406 8.042969 Z M 14.039062 8.042969 L 14.011719 8.0625 L 14.03125 8.066406 L 14.015625 8.082031 L 14.039062 8.078125 L 14.054688 8.050781 Z M 14.6875 8.078125 L 14.667969 8.136719 L 14.691406 8.144531 L 14.71875 8.125 L 14.71875 8.101562 Z M 14.339844 8.085938 L 14.292969 8.105469 L 14.332031 8.105469 Z M 12.820312 8.109375 L 12.804688 8.132812 L 12.785156 8.125 L 12.78125 8.164062 L 12.753906 8.148438 L 12.757812 8.179688 L 12.738281 8.140625 L 12.734375 8.160156 L 12.722656 8.148438 L 12.726562 8.171875 L 12.714844 8.160156 L 12.71875 8.175781 L 12.707031 8.171875 L 12.730469 8.214844 L 12.753906 8.253906 L 12.824219 8.214844 L 12.847656 8.226562 L 12.875 8.195312 L 12.859375 8.167969 L 12.871094 8.171875 L 12.875 8.15625 L 12.859375 8.160156 L 12.871094 8.148438 L 12.84375 8.136719 L 12.84375 8.152344 L 12.824219 8.152344 Z M 14.40625 8.113281 L 14.402344 8.128906 L 14.425781 8.113281 Z M 12.988281 8.117188 L 12.976562 8.125 L 12.992188 8.128906 L 13.011719 8.125 Z M 14.378906 8.125 L 14.378906 8.144531 L 14.394531 8.132812 Z M 14.722656 8.125 L 14.691406 8.167969 L 14.730469 8.183594 L 14.765625 8.171875 L 14.765625 8.164062 L 14.757812 8.148438 L 14.757812 8.144531 L 14.75 8.132812 L 14.746094 8.132812 L 14.734375 8.125 L 14.726562 8.140625 Z M 14.402344 8.128906 L 14.402344 8.132812 Z M 12.972656 8.132812 L 12.953125 8.160156 L 12.960938 8.152344 Z M 14.777344 8.140625 L 14.789062 8.214844 L 14.828125 8.171875 L 14.796875 8.148438 L 14.792969 8.167969 Z M 12.988281 8.148438 L 12.957031 8.171875 L 12.9375 8.160156 L 12.945312 8.191406 L 12.878906 8.199219 L 12.90625 8.199219 L 12.921875 8.207031 L 12.910156 8.222656 L 12.910156 8.210938 L 12.867188 8.226562 L 12.855469 8.238281 L 12.867188 8.234375 L 12.882812 8.277344 L 12.859375 8.273438 L 12.84375 8.296875 L 12.851562 8.300781 L 12.824219 8.308594 L 12.816406 8.324219 L 12.804688 8.285156 L 12.78125 8.277344 L 12.792969 8.296875 L 12.777344 8.308594 L 12.742188 8.285156 L 12.734375 8.347656 L 12.757812 8.367188 L 12.730469 8.367188 L 12.722656 8.332031 L 12.671875 8.316406 L 12.6875 8.371094 L 12.707031 8.367188 L 12.734375 8.457031 L 12.761719 8.488281 L 12.773438 8.480469 L 12.765625 8.449219 L 12.773438 8.460938 L 12.816406 8.460938 L 12.832031 8.4375 L 12.820312 8.40625 L 12.816406 8.40625 L 12.84375 8.386719 L 12.847656 8.378906 L 12.84375 8.367188 L 12.851562 8.382812 L 12.867188 8.371094 L 12.875 8.332031 L 12.925781 8.277344 L 12.925781 8.230469 L 12.9375 8.257812 L 12.9375 8.238281 L 12.953125 8.253906 L 13 8.246094 L 12.976562 8.1875 L 13.035156 8.195312 L 13.027344 8.148438 L 12.992188 8.167969 Z M 14.667969 8.148438 L 14.675781 8.164062 L 14.691406 8.160156 L 14.695312 8.148438 Z M 12.917969 8.167969 L 12.925781 8.179688 L 12.929688 8.171875 Z M 13.601562 8.257812 L 13.601562 8.269531 L 13.621094 8.257812 Z M 13.621094 8.269531 L 13.589844 8.277344 L 13.605469 8.28125 Z M 13.605469 8.28125 L 13.625 8.285156 Z M 13.664062 8.273438 L 13.640625 8.277344 L 13.664062 8.285156 Z M 16.363281 8.289062 L 16.386719 8.328125 L 16.378906 8.300781 Z M 15.023438 8.292969 L 15.003906 8.304688 L 15.023438 8.3125 Z M 14.453125 8.3125 L 14.40625 8.339844 L 14.363281 8.332031 L 14.347656 8.339844 L 14.285156 8.367188 L 14.289062 8.394531 L 14.257812 8.410156 L 14.273438 8.425781 L 14.253906 8.414062 L 14.234375 8.425781 L 14.257812 8.441406 L 14.230469 8.449219 L 14.265625 8.464844 L 14.269531 8.4375 L 14.28125 8.449219 L 14.273438 8.429688 L 14.289062 8.445312 L 14.289062 8.421875 L 14.296875 8.433594 L 14.304688 8.410156 L 14.3125 8.414062 L 14.332031 8.402344 L 14.351562 8.378906 L 14.449219 8.347656 Z M 14.214844 8.453125 L 14.214844 8.46875 L 14.195312 8.472656 L 14.210938 8.480469 L 14.164062 8.507812 L 14.164062 8.527344 L 14.191406 8.53125 L 14.183594 8.574219 L 14.238281 8.589844 L 14.21875 8.519531 L 14.230469 8.488281 L 14.257812 8.46875 L 14.238281 8.453125 Z M 14.457031 8.492188 L 14.453125 8.511719 L 14.46875 8.507812 L 14.472656 8.492188 Z M 16.109375 8.546875 L 16.109375 8.558594 L 16.132812 8.5625 Z M 16.132812 8.5625 L 16.136719 8.566406 L 16.136719 8.5625 Z M 16.136719 8.566406 L 16.136719 8.601562 L 16.175781 8.632812 L 16.226562 8.65625 L 16.265625 8.691406 L 16.40625 8.820312 L 16.386719 8.78125 L 16.40625 8.761719 L 16.425781 8.777344 L 16.414062 8.757812 L 16.351562 8.75 L 16.308594 8.695312 L 16.320312 8.664062 L 16.347656 8.664062 L 16.289062 8.644531 L 16.226562 8.621094 Z M 13.023438 8.578125 L 13.007812 8.585938 L 13.015625 8.605469 L 13.035156 8.585938 Z M 13.042969 8.589844 L 13.011719 8.652344 L 13.03125 8.636719 L 13.0625 8.636719 L 13.074219 8.609375 L 13.054688 8.621094 L 13.0625 8.605469 Z M 14.082031 8.605469 L 14.054688 8.613281 L 14.0625 8.636719 L 14.09375 8.628906 Z M 14.253906 8.609375 L 14.25 8.628906 L 14.265625 8.648438 L 14.273438 8.640625 L 14.273438 8.632812 Z M 16.503906 8.628906 L 16.5 8.664062 L 16.523438 8.714844 Z M 13.023438 8.6875 L 13.027344 8.703125 L 13.035156 8.691406 Z M 13.207031 8.6875 L 13.191406 8.707031 L 13.238281 8.691406 Z M 13.320312 8.710938 L 13.320312 8.730469 L 13.332031 8.734375 L 13.328125 8.71875 Z M 13.304688 8.722656 L 13.285156 8.746094 L 13.285156 8.75 L 13.328125 8.753906 Z M 16.515625 8.730469 L 16.507812 8.742188 L 16.523438 8.773438 L 16.53125 8.785156 Z M 16.503906 8.769531 L 16.511719 8.800781 L 16.492188 8.824219 L 16.421875 8.835938 L 16.484375 8.917969 L 16.46875 8.949219 L 16.484375 8.957031 L 16.484375 8.992188 L 16.519531 9.015625 L 16.53125 8.972656 L 16.503906 8.988281 L 16.496094 8.972656 L 16.511719 8.964844 L 16.511719 8.929688 L 16.554688 8.90625 L 16.535156 8.851562 L 16.542969 8.78125 L 16.539062 8.800781 Z M 12.371094 8.835938 L 12.371094 8.863281 L 12.386719 8.867188 L 12.394531 8.851562 Z M 12.539062 8.949219 L 12.519531 8.992188 L 12.550781 8.988281 L 12.578125 8.953125 Z M 16.546875 8.976562 L 16.539062 8.996094 L 16.558594 9.003906 L 16.535156 9.015625 L 16.542969 9.042969 L 16.542969 9.054688 L 16.5625 9.082031 L 16.566406 9.070312 L 16.566406 9.066406 L 16.578125 9.078125 L 16.582031 9.085938 L 16.609375 9.144531 L 16.613281 9.257812 L 16.59375 9.261719 L 16.589844 9.230469 L 16.582031 9.253906 L 16.617188 9.335938 L 16.554688 9.429688 L 16.535156 9.546875 L 16.546875 9.558594 L 16.578125 9.523438 L 16.570312 9.496094 L 16.582031 9.503906 L 16.601562 9.425781 L 16.625 9.390625 L 16.640625 9.429688 L 16.664062 9.421875 L 16.664062 9.402344 L 16.667969 9.359375 L 16.652344 9.359375 L 16.644531 9.335938 L 16.65625 9.339844 L 16.652344 9.332031 L 16.664062 9.324219 L 16.660156 9.339844 L 16.683594 9.300781 L 16.679688 9.269531 L 16.699219 9.28125 L 16.6875 9.25 L 16.699219 9.234375 L 16.683594 9.214844 L 16.691406 9.210938 L 16.695312 9.210938 L 16.703125 9.222656 L 16.707031 9.238281 L 16.707031 9.230469 L 16.703125 9.179688 L 16.683594 9.167969 L 16.671875 9.132812 L 16.636719 9.097656 L 16.640625 9.078125 L 16.613281 9.015625 Z M 16.546875 9.558594 L 16.527344 9.621094 L 16.546875 9.625 L 16.535156 9.625 L 16.546875 9.644531 L 16.5625 9.621094 L 16.542969 9.613281 L 16.550781 9.597656 L 16.570312 9.613281 L 16.582031 9.675781 L 16.601562 9.667969 L 16.59375 9.644531 L 16.605469 9.671875 L 16.617188 9.636719 L 16.597656 9.554688 Z M 12.492188 8.980469 L 12.4375 9.050781 L 12.464844 9.082031 L 12.503906 9.046875 L 12.515625 9.003906 Z M 12.476562 9.210938 L 12.46875 9.230469 L 12.492188 9.335938 L 12.546875 9.296875 Z M 16.621094 9.429688 L 16.601562 9.449219 L 16.597656 9.492188 L 16.585938 9.488281 L 16.585938 9.546875 L 16.59375 9.527344 L 16.613281 9.546875 L 16.617188 9.527344 L 16.617188 9.492188 L 16.636719 9.480469 L 16.636719 9.441406 Z M 12.660156 9.4375 L 12.648438 9.441406 L 12.65625 9.457031 Z M 12.8125 9.554688 L 12.8125 9.574219 L 12.824219 9.582031 L 12.828125 9.558594 Z M 12.664062 9.628906 L 12.65625 9.644531 L 12.679688 9.683594 L 12.71875 9.726562 L 12.730469 9.71875 L 12.714844 9.710938 Z M 13.65625 9.699219 L 13.722656 9.699219 L 13.777344 9.726562 L 13.78125 9.746094 L 13.75 9.792969 L 13.765625 9.8125 L 13.703125 9.785156 L 13.679688 9.804688 L 13.699219 9.828125 L 13.660156 9.804688 L 13.648438 9.816406 L 13.667969 9.835938 L 13.667969 9.886719 L 13.710938 9.929688 L 13.691406 9.953125 L 13.695312 10.007812 L 13.710938 9.964844 L 13.738281 9.964844 L 13.761719 10.03125 L 13.71875 10.039062 L 13.699219 10.007812 L 13.679688 10.042969 L 13.683594 10.074219 L 13.683594 10.058594 L 13.707031 10.070312 L 13.707031 10.09375 L 13.691406 10.078125 L 13.679688 10.097656 L 13.703125 10.097656 L 13.710938 10.121094 L 13.6875 10.222656 L 13.601562 10.203125 L 13.519531 10.117188 L 13.523438 10.054688 L 13.546875 10.039062 L 13.5625 10.003906 L 13.597656 10.007812 L 13.570312 9.980469 L 13.542969 9.863281 L 13.558594 9.804688 L 13.542969 9.816406 L 13.542969 9.753906 L 13.582031 9.710938 L 13.625 9.726562 Z M 12.789062 9.722656 L 12.792969 9.734375 L 12.8125 9.726562 Z M 16.632812 9.792969 L 16.621094 9.816406 L 16.632812 9.816406 Z M 12.902344 9.878906 L 12.910156 9.921875 L 12.953125 9.933594 L 12.953125 9.917969 L 12.984375 9.914062 Z M 16.476562 10.15625 L 16.457031 10.160156 L 16.433594 10.261719 L 16.441406 10.285156 L 16.484375 10.300781 Z M 16.578125 10.382812 L 16.519531 10.429688 L 16.539062 10.519531 L 16.523438 10.527344 L 16.515625 10.527344 L 16.515625 10.546875 L 16.535156 10.570312 L 16.539062 10.574219 L 16.554688 10.574219 L 16.554688 10.558594 L 16.570312 10.550781 L 16.566406 10.59375 L 16.589844 10.574219 L 16.601562 10.550781 L 16.640625 10.550781 L 16.628906 10.527344 L 16.664062 10.53125 L 16.6875 10.507812 L 16.695312 10.523438 L 16.695312 10.5 L 16.679688 10.515625 L 16.667969 10.507812 L 16.679688 10.488281 L 16.667969 10.488281 L 16.652344 10.5 L 16.652344 10.515625 L 16.636719 10.507812 L 16.621094 10.527344 L 16.621094 10.535156 L 16.597656 10.539062 L 16.578125 10.515625 L 16.601562 10.429688 L 16.578125 10.410156 Z M 16.726562 10.484375 L 16.703125 10.511719 L 16.730469 10.515625 L 16.734375 10.527344 L 16.757812 10.511719 L 16.742188 10.484375 Z M 16.734375 10.527344 L 16.710938 10.546875 L 16.71875 10.558594 L 16.742188 10.570312 L 16.742188 10.558594 L 16.75 10.550781 Z M 16.664062 10.546875 L 16.667969 10.570312 L 16.679688 10.550781 L 16.699219 10.550781 Z M 16.785156 10.550781 L 16.757812 10.5625 L 16.765625 10.585938 L 16.742188 10.609375 L 16.742188 10.625 L 16.730469 10.636719 L 16.710938 10.679688 L 16.714844 10.660156 L 16.699219 10.664062 L 16.660156 10.722656 L 16.65625 10.761719 L 16.664062 10.761719 L 16.679688 10.71875 L 16.707031 10.703125 L 16.714844 10.679688 L 16.734375 10.675781 L 16.734375 10.710938 L 16.765625 10.695312 L 16.773438 10.679688 L 16.78125 10.691406 L 16.789062 10.667969 L 16.773438 10.660156 L 16.78125 10.628906 L 16.800781 10.640625 L 16.800781 10.625 L 16.8125 10.597656 L 16.800781 10.570312 L 16.785156 10.574219 Z M 16.703125 10.5625 L 16.691406 10.644531 L 16.699219 10.617188 L 16.707031 10.59375 Z M 16.671875 10.582031 L 16.660156 10.59375 L 16.625 10.613281 L 16.640625 10.65625 L 16.671875 10.59375 Z M 16.601562 10.585938 L 16.558594 10.609375 L 16.578125 10.613281 L 16.597656 10.625 L 16.605469 10.617188 Z M 16.726562 10.585938 L 16.714844 10.59375 L 16.710938 10.605469 L 16.703125 10.617188 L 16.714844 10.617188 L 16.730469 10.59375 Z M 16.691406 10.59375 L 16.679688 10.597656 L 16.671875 10.636719 L 16.667969 10.648438 L 16.65625 10.660156 L 16.683594 10.667969 L 16.691406 10.648438 L 16.683594 10.632812 Z M 16.148438 10.644531 L 16.082031 10.6875 L 16.066406 10.726562 L 16.089844 10.75 L 16.109375 10.746094 L 16.140625 10.707031 L 16.15625 10.65625 Z M 13.691406 10.6875 L 13.640625 10.695312 L 13.675781 10.695312 Z M 16.542969 10.703125 L 16.546875 10.726562 L 16.539062 10.726562 L 16.542969 10.742188 L 16.527344 10.769531 L 16.480469 10.871094 L 16.503906 10.832031 L 16.527344 10.773438 L 16.53125 10.769531 L 16.5625 10.722656 Z M 16.671875 10.761719 L 16.660156 10.769531 L 16.660156 10.78125 Z M 16.566406 10.898438 L 16.535156 10.914062 L 16.519531 10.929688 L 16.519531 10.917969 L 16.503906 10.933594 L 16.507812 10.914062 L 16.484375 10.914062 L 16.472656 10.9375 L 16.46875 10.921875 L 16.441406 10.992188 L 16.421875 11.011719 L 16.429688 11.011719 L 16.425781 11.027344 L 16.367188 11.074219 L 16.335938 11.144531 L 16.269531 11.199219 L 16.261719 11.242188 L 16.207031 11.265625 L 16.195312 11.265625 L 16.167969 11.308594 L 16.167969 11.328125 L 16.183594 11.328125 L 16.175781 11.347656 L 16.195312 11.339844 L 16.179688 11.347656 L 16.199219 11.347656 L 16.1875 11.359375 L 16.210938 11.339844 L 16.222656 11.378906 L 16.28125 11.335938 L 16.285156 11.351562 L 16.335938 11.308594 L 16.359375 11.292969 L 16.359375 11.300781 L 16.394531 11.273438 L 16.394531 11.289062 L 16.410156 11.277344 L 16.464844 11.21875 L 16.457031 11.214844 L 16.464844 11.210938 L 16.476562 11.183594 L 16.460938 11.1875 L 16.484375 11.15625 L 16.488281 11.152344 L 16.515625 11.117188 L 16.511719 11.097656 L 16.53125 11.0625 L 16.523438 11.058594 L 16.542969 11.050781 L 16.566406 11.027344 L 16.523438 11.039062 L 16.519531 11.035156 L 16.53125 11.019531 L 16.488281 11.015625 L 16.519531 10.992188 L 16.503906 10.988281 L 16.542969 10.949219 L 16.527344 10.945312 Z M 16.132812 11.238281 L 16.125 11.25 L 16.128906 11.257812 L 16.140625 11.242188 Z M 15.410156 11.25 L 15.398438 11.265625 L 15.410156 11.273438 Z M 16.425781 11.351562 L 16.398438 11.371094 L 16.378906 11.382812 L 16.398438 11.378906 Z M 16.367188 11.371094 L 16.3125 11.40625 L 16.34375 11.394531 Z M 16.375 11.375 L 16.328125 11.414062 L 16.304688 11.410156 L 16.246094 11.4375 L 16.21875 11.46875 L 16.15625 11.503906 L 16.128906 11.503906 L 16.035156 11.550781 L 16.023438 11.566406 L 15.996094 11.585938 L 16.050781 11.566406 L 16.046875 11.574219 L 16.109375 11.546875 L 16.148438 11.523438 L 16.226562 11.484375 L 16.355469 11.40625 L 16.378906 11.394531 Z M 15.976562 11.40625 L 15.960938 11.417969 L 15.96875 11.414062 L 15.976562 11.417969 Z M 16.136719 11.425781 L 16.109375 11.4375 L 16.109375 11.453125 L 16.125 11.441406 Z M 15.460938 11.433594 L 15.46875 11.441406 L 15.476562 11.433594 Z M 15.648438 11.433594 L 15.539062 11.457031 L 15.554688 11.480469 L 15.621094 11.488281 L 15.664062 11.511719 L 15.714844 11.507812 L 15.730469 11.546875 L 15.769531 11.546875 L 15.785156 11.550781 L 15.839844 11.585938 L 15.96875 11.585938 L 15.96875 11.578125 L 15.996094 11.566406 L 16.003906 11.558594 L 16.019531 11.558594 L 16.042969 11.488281 L 16.023438 11.480469 L 15.992188 11.492188 L 15.984375 11.503906 L 15.992188 11.488281 L 15.972656 11.496094 L 15.96875 11.472656 L 15.917969 11.488281 L 15.941406 11.453125 L 15.921875 11.453125 L 15.890625 11.476562 L 15.910156 11.457031 L 15.90625 11.457031 L 15.910156 11.457031 L 15.894531 11.453125 L 15.882812 11.457031 L 15.878906 11.460938 L 15.894531 11.457031 L 15.878906 11.464844 L 15.816406 11.453125 L 15.8125 11.46875 L 15.769531 11.457031 L 15.753906 11.453125 L 15.679688 11.457031 L 15.6875 11.441406 Z M 15.996094 11.4375 L 15.972656 11.441406 L 15.96875 11.449219 Z M 16.042969 11.449219 L 16.007812 11.464844 L 16 11.480469 L 16.03125 11.46875 L 16.035156 11.480469 L 16.070312 11.46875 L 16.074219 11.457031 L 16.050781 11.460938 Z M 15.871094 11.453125 L 15.871094 11.460938 L 15.882812 11.453125 Z M 14.792969 11.46875 L 14.78125 11.472656 L 14.804688 11.480469 L 14.785156 11.476562 L 14.78125 11.488281 L 14.773438 11.53125 L 14.765625 11.523438 L 14.785156 11.5625 L 14.796875 11.589844 L 14.851562 11.582031 L 14.878906 11.550781 L 14.851562 11.507812 Z M 15.578125 11.527344 L 15.566406 11.53125 L 15.605469 11.53125 Z M 15.644531 11.542969 L 15.632812 11.546875 L 15.648438 11.554688 L 15.671875 11.558594 L 15.671875 11.546875 Z M 15.71875 11.582031 L 15.703125 11.589844 L 15.734375 11.59375 Z M 15.773438 11.601562 L 15.789062 11.609375 L 15.789062 11.601562 Z M 15.773438 11.601562 "/>
</g>
</svg>
