<?xml version="1.0" encoding="UTF-8"?>
<svg xmlns="http://www.w3.org/2000/svg" xmlns:xlink="http://www.w3.org/1999/xlink" width="120px" height="37px" viewBox="0 0 119 37" version="1.1">
<g id="surface1">
<path style=" stroke:none;fill-rule:nonzero;fill:rgb(45, 44, 44);fill-opacity:1;" d="M 25.933594 9.636719 C 25.933594 10.796875 25.675781 11.886719 25.160156 12.914062 C 24.652344 13.945312 23.9375 14.863281 23.035156 15.671875 C 22.128906 16.484375 21.066406 17.160156 19.851562 17.714844 C 18.628906 18.269531 17.304688 18.648438 15.875 18.839844 C 16.226562 19.929688 16.664062 21.046875 17.179688 22.199219 C 17.691406 23.34375 18.25 24.449219 18.84375 25.515625 C 19.441406 26.574219 20.0625 27.558594 20.710938 28.449219 C 21.351562 29.34375 21.984375 30.078125 22.601562 30.660156 C 22.488281 30.902344 22.3125 31.144531 22.082031 31.386719 C 21.855469 31.628906 21.59375 31.851562 21.296875 32.054688 C 21 32.261719 20.6875 32.429688 20.367188 32.566406 C 20.039062 32.695312 19.738281 32.765625 19.453125 32.765625 C 18.925781 32.765625 18.429688 32.511719 17.953125 32.003906 C 17.472656 31.496094 16.988281 30.691406 16.5 29.589844 C 16.011719 28.492188 15.496094 27.0625 14.957031 25.3125 C 14.425781 23.558594 13.832031 21.453125 13.191406 18.984375 C 12.921875 18.984375 12.664062 18.984375 12.402344 18.984375 C 12.136719 18.984375 11.933594 18.960938 11.792969 18.914062 C 11.625 18.820312 11.445312 18.648438 11.253906 18.402344 C 10.609375 19.8125 10.035156 21.125 9.535156 22.359375 C 9.035156 23.589844 8.589844 24.78125 8.191406 25.933594 C 7.796875 27.078125 7.453125 28.1875 7.15625 29.265625 C 6.859375 30.339844 6.601562 31.433594 6.382812 32.546875 C 5.570312 32.351562 4.871094 32.003906 4.269531 31.496094 C 3.675781 30.980469 3.117188 30.269531 2.597656 29.351562 C 2.6875 29.136719 2.785156 28.921875 2.890625 28.71875 C 3 28.511719 3.140625 28.222656 3.304688 27.847656 C 3.476562 27.472656 3.683594 27 3.929688 26.417969 C 4.183594 25.839844 4.519531 25.0625 4.9375 24.097656 C 5.351562 23.128906 5.855469 21.949219 6.4375 20.546875 C 7.023438 19.144531 7.738281 17.4375 8.570312 15.433594 C 8.953125 14.539062 9.277344 13.753906 9.554688 13.074219 C 9.824219 12.402344 10.070312 11.75 10.285156 11.140625 C 10.503906 10.519531 10.699219 9.90625 10.878906 9.285156 C 11.054688 8.671875 11.238281 7.964844 11.433594 7.171875 C 10.335938 7.550781 9.316406 7.984375 8.371094 8.460938 C 7.429688 8.925781 6.644531 9.429688 6.027344 9.960938 C 5.8125 9.8125 5.59375 9.59375 5.367188 9.308594 C 5.136719 9.015625 4.929688 8.695312 4.742188 8.34375 C 4.546875 8 4.382812 7.636719 4.234375 7.277344 C 4.089844 6.914062 4.007812 6.585938 3.992188 6.296875 C 4.699219 5.816406 5.578125 5.367188 6.617188 4.957031 C 7.652344 4.546875 8.761719 4.191406 9.925781 3.890625 C 11.097656 3.585938 12.292969 3.351562 13.507812 3.183594 C 14.726562 3.011719 15.863281 2.925781 16.910156 2.925781 C 19.777344 2.925781 21.996094 3.523438 23.570312 4.722656 C 25.144531 5.917969 25.933594 7.550781 25.933594 9.636719 Z M 16.769531 5.898438 L 17.199219 6.585938 C 17.035156 6.808594 16.765625 7.238281 16.40625 7.890625 C 16.046875 8.542969 15.640625 9.328125 15.175781 10.234375 C 14.710938 11.136719 14.222656 12.121094 13.707031 13.183594 C 13.191406 14.25 12.699219 15.300781 12.21875 16.339844 C 14.015625 16.339844 15.65625 16.167969 17.164062 15.832031 C 18.664062 15.496094 19.964844 15.015625 21.066406 14.402344 C 22.160156 13.785156 23.015625 13.0625 23.625 12.226562 C 24.230469 11.390625 24.535156 10.46875 24.535156 9.453125 C 24.535156 8.242188 24.109375 7.320312 23.246094 6.679688 C 22.390625 6.035156 21.066406 5.71875 19.269531 5.71875 C 18.867188 5.71875 18.460938 5.738281 18.058594 5.773438 C 17.648438 5.804688 17.222656 5.851562 16.769531 5.898438 Z M 41.113281 14.164062 C 41.898438 14.164062 42.515625 14.382812 42.957031 14.820312 C 43.402344 15.25 43.625 15.855469 43.625 16.628906 C 43.625 16.824219 43.601562 17.023438 43.566406 17.230469 C 43.53125 17.433594 43.488281 17.609375 43.441406 17.753906 C 43.128906 17.707031 42.785156 17.664062 42.402344 17.628906 C 42.019531 17.589844 41.5625 17.570312 41.039062 17.570312 C 40.019531 17.570312 38.976562 17.664062 37.929688 17.84375 C 36.878906 18.023438 35.875 18.171875 34.917969 18.296875 C 34.371094 19.574219 33.871094 20.8125 33.417969 22.015625 C 32.960938 23.207031 32.574219 24.308594 32.25 25.296875 C 31.925781 26.28125 31.679688 27.140625 31.5 27.871094 C 31.320312 28.589844 31.21875 29.136719 31.195312 29.496094 C 33.128906 29.089844 35.078125 28.738281 37.050781 28.449219 C 39.019531 28.15625 41.089844 27.941406 43.261719 27.796875 C 43.523438 28.207031 43.746094 28.652344 43.921875 29.136719 C 44.105469 29.621094 44.191406 30.140625 44.191406 30.695312 C 44.191406 30.839844 44.191406 30.996094 44.191406 31.167969 C 44.191406 31.335938 44.167969 31.507812 44.117188 31.675781 C 43.453125 31.652344 42.746094 31.632812 42.011719 31.617188 C 41.269531 31.609375 40.304688 31.601562 39.109375 31.601562 C 38.320312 31.601562 37.574219 31.617188 36.871094 31.65625 C 36.164062 31.691406 35.457031 31.75 34.738281 31.816406 C 34.027344 31.890625 33.265625 31.988281 32.46875 32.109375 C 31.667969 32.226562 30.765625 32.375 29.765625 32.546875 C 28.664062 32.113281 27.601562 31.046875 26.578125 29.351562 C 26.984375 28.484375 27.550781 27.160156 28.28125 25.382812 C 29.003906 23.609375 29.929688 21.234375 31.050781 18.265625 C 29.976562 17.921875 29.269531 17.316406 28.941406 16.449219 C 29.058594 16.332031 29.40625 16.179688 29.980469 16 C 30.550781 15.8125 31.253906 15.628906 32.089844 15.433594 C 32.445312 14.488281 32.75 13.667969 33.007812 12.964844 C 33.257812 12.261719 33.476562 11.609375 33.671875 10.996094 C 33.855469 10.375 34.03125 9.777344 34.1875 9.179688 C 34.34375 8.589844 34.492188 7.941406 34.632812 7.238281 C 33.796875 7.191406 33.140625 6.960938 32.664062 6.535156 C 32.1875 6.109375 31.949219 5.5625 31.949219 4.882812 C 31.949219 4.6875 31.976562 4.460938 32.039062 4.199219 C 32.097656 3.925781 32.160156 3.699219 32.234375 3.507812 C 32.710938 3.582031 33.167969 3.625 33.617188 3.648438 C 34.054688 3.675781 34.632812 3.691406 35.351562 3.691406 C 36.851562 3.691406 38.265625 3.644531 39.570312 3.5625 C 40.882812 3.480469 42.074219 3.386719 43.132812 3.289062 C 44.203125 3.191406 45.113281 3.101562 45.871094 3.023438 C 46.640625 2.929688 47.222656 2.886719 47.625 2.886719 C 48.179688 2.886719 48.671875 3.179688 49.097656 3.765625 C 49.53125 4.34375 49.847656 5.164062 50.066406 6.226562 C 49.324219 6.152344 48.726562 6.105469 48.261719 6.078125 C 47.792969 6.054688 47.378906 6.046875 47.019531 6.046875 C 45.707031 6.046875 44.511719 6.109375 43.421875 6.246094 C 42.335938 6.378906 41.292969 6.519531 40.292969 6.664062 C 40.148438 6.882812 39.984375 7.152344 39.8125 7.496094 C 39.625 7.832031 39.398438 8.308594 39.109375 8.90625 C 38.820312 9.511719 38.46875 10.273438 38.054688 11.191406 C 37.632812 12.109375 37.128906 13.261719 36.53125 14.640625 C 37.4375 14.492188 38.292969 14.378906 39.09375 14.289062 C 39.894531 14.207031 40.566406 14.164062 41.113281 14.164062 Z M 67.96875 18.078125 C 68.585938 18.078125 69.078125 18.296875 69.4375 18.730469 C 69.796875 19.167969 69.976562 19.773438 69.976562 20.546875 C 69.976562 20.738281 69.960938 20.9375 69.933594 21.144531 C 69.910156 21.347656 69.878906 21.523438 69.828125 21.671875 C 69.332031 21.546875 68.777344 21.476562 68.183594 21.449219 C 68.039062 22.511719 67.65625 23.628906 67.035156 24.804688 C 66.414062 25.976562 65.664062 27.078125 64.777344 28.105469 C 63.894531 29.132812 62.929688 30.035156 61.875 30.804688 C 60.832031 31.578125 59.789062 32.097656 58.761719 32.363281 C 55.570312 32.292969 53.234375 31.453125 51.761719 29.847656 C 50.300781 28.234375 49.5625 25.730469 49.5625 22.320312 C 49.5625 19.828125 50.019531 17.417969 50.921875 15.089844 C 51.832031 12.753906 53.039062 10.683594 54.539062 8.871094 C 56.042969 7.054688 57.769531 5.601562 59.710938 4.5 C 61.660156 3.40625 63.679688 2.855469 65.78125 2.855469 C 67.429688 2.855469 68.714844 3.203125 69.628906 3.902344 C 70.550781 4.605469 71.011719 5.597656 71.011719 6.882812 C 71.011719 7.726562 70.8125 8.507812 70.417969 9.234375 C 70.027344 9.960938 69.375 10.746094 68.46875 11.589844 C 67.917969 11.417969 67.445312 11.128906 67.035156 10.703125 C 66.628906 10.285156 66.378906 9.792969 66.285156 9.234375 C 67.09375 8.628906 67.667969 8.078125 68 7.570312 C 68.335938 7.054688 68.503906 6.457031 68.503906 5.753906 C 68.503906 4.640625 67.84375 4.089844 66.535156 4.089844 C 65.460938 4.089844 64.308594 4.488281 63.082031 5.300781 C 61.851562 6.109375 60.613281 7.277344 59.375 8.800781 C 57.609375 10.949219 56.316406 13.164062 55.503906 15.453125 C 54.695312 17.734375 54.289062 20.304688 54.289062 23.152344 C 54.289062 24.21875 54.402344 25.183594 54.613281 26.054688 C 54.828125 26.925781 55.113281 27.6875 55.472656 28.335938 C 55.832031 28.988281 56.253906 29.507812 56.742188 29.898438 C 57.226562 30.285156 57.761719 30.503906 58.335938 30.550781 C 59.097656 30.382812 59.863281 29.988281 60.621094 29.371094 C 61.390625 28.757812 62.089844 28.03125 62.722656 27.195312 C 63.351562 26.359375 63.890625 25.46875 64.332031 24.515625 C 64.773438 23.558594 65.042969 22.644531 65.136719 21.777344 C 64.464844 21.925781 63.832031 22.0625 63.222656 22.199219 C 62.617188 22.328125 62.035156 22.390625 61.488281 22.390625 C 60.769531 22.390625 60.140625 22.210938 59.605469 21.851562 C 59.070312 21.492188 58.707031 20.992188 58.519531 20.363281 C 58.941406 20.121094 59.570312 19.871094 60.394531 19.601562 C 61.214844 19.335938 62.097656 19.085938 63.027344 18.859375 C 63.957031 18.628906 64.871094 18.445312 65.765625 18.296875 C 66.65625 18.152344 67.394531 18.078125 67.96875 18.078125 Z M 86.1875 32.292969 C 86.144531 32.316406 86.097656 32.328125 86.046875 32.328125 C 86 32.328125 85.902344 32.328125 85.761719 32.328125 C 85.425781 32.328125 85.039062 32.273438 84.597656 32.164062 C 84.15625 32.054688 83.722656 31.921875 83.308594 31.765625 C 82.890625 31.609375 82.535156 31.433594 82.234375 31.242188 C 81.9375 31.050781 81.753906 30.878906 81.679688 30.734375 C 81.65625 30.390625 81.640625 30.039062 81.640625 29.679688 C 81.640625 29.320312 81.640625 28.96875 81.640625 28.632812 C 81.640625 25.921875 81.835938 23.09375 82.234375 20.144531 C 82.628906 17.199219 83.277344 14.007812 84.1875 10.574219 C 84.285156 10.242188 84.378906 9.8125 84.492188 9.285156 C 84.597656 8.769531 84.710938 8.207031 84.828125 7.605469 C 84.257812 8.0625 83.574219 8.792969 82.792969 9.792969 C 82 10.796875 81.171875 11.980469 80.296875 13.347656 C 79.433594 14.714844 78.558594 16.214844 77.6875 17.84375 C 76.8125 19.480469 76.023438 21.132812 75.308594 22.8125 C 74.585938 24.492188 73.972656 26.152344 73.464844 27.796875 C 72.949219 29.4375 72.628906 30.964844 72.511719 32.363281 C 71.371094 32.023438 70.574219 31.6875 70.132812 31.347656 C 69.695312 31.007812 69.46875 30.597656 69.46875 30.113281 C 69.46875 29.679688 69.601562 29.066406 69.863281 28.261719 C 70.128906 27.46875 70.5 26.527344 70.972656 25.4375 C 71.453125 24.351562 72.035156 23.132812 72.726562 21.796875 C 73.421875 20.453125 74.1875 19.011719 75.019531 17.464844 C 75.972656 15.699219 76.910156 14.039062 77.832031 12.5 C 78.75 10.949219 79.652344 9.550781 80.53125 8.292969 C 81.417969 7.039062 82.28125 5.949219 83.128906 5.03125 C 83.976562 4.113281 84.816406 3.410156 85.65625 2.925781 C 85.988281 2.925781 86.4375 3.011719 86.996094 3.183594 C 87.554688 3.351562 88.109375 3.558594 88.640625 3.796875 C 89.179688 4.039062 89.65625 4.285156 90.078125 4.539062 C 90.492188 4.792969 90.726562 5.007812 90.773438 5.171875 C 90.4375 5.851562 90.046875 6.867188 89.59375 8.21875 C 89.140625 9.574219 88.679688 11.109375 88.214844 12.828125 C 87.746094 14.539062 87.308594 16.359375 86.882812 18.277344 C 86.46875 20.199219 86.144531 22.046875 85.902344 23.808594 C 86.453125 22.480469 87.089844 21.09375 87.820312 19.652344 C 88.546875 18.21875 89.320312 16.792969 90.128906 15.375 C 90.9375 13.96875 91.765625 12.597656 92.613281 11.261719 C 93.460938 9.9375 94.292969 8.71875 95.109375 7.621094 C 95.917969 6.519531 96.679688 5.5625 97.378906 4.738281 C 98.082031 3.917969 98.710938 3.3125 99.253906 2.925781 C 99.589844 2.925781 100.042969 3.011719 100.597656 3.183594 C 101.160156 3.351562 101.707031 3.558594 102.25 3.796875 C 102.78125 4.039062 103.265625 4.285156 103.683594 4.539062 C 104.101562 4.792969 104.332031 5.007812 104.378906 5.171875 C 103.613281 6.554688 102.945312 8.230469 102.375 10.210938 C 101.800781 12.195312 101.316406 14.273438 100.921875 16.449219 C 100.53125 18.625 100.230469 20.78125 100.027344 22.917969 C 99.828125 25.058594 99.726562 26.976562 99.726562 28.664062 C 99.726562 29.21875 99.726562 29.800781 99.726562 30.40625 C 99.726562 31.007812 99.75 31.636719 99.792969 32.292969 C 99.460938 32.292969 99.0625 32.246094 98.597656 32.164062 C 98.128906 32.082031 97.675781 31.964844 97.234375 31.816406 C 96.792969 31.675781 96.394531 31.507812 96.035156 31.328125 C 95.675781 31.148438 95.425781 30.949219 95.285156 30.734375 C 95.261719 30.390625 95.25 30.039062 95.25 29.679688 C 95.25 29.320312 95.25 28.96875 95.25 28.632812 C 95.25 25.921875 95.445312 23.09375 95.839844 20.144531 C 96.230469 17.199219 96.878906 14.007812 97.792969 10.574219 C 97.890625 10.242188 97.996094 9.78125 98.113281 9.203125 C 98.230469 8.617188 98.355469 8.011719 98.472656 7.390625 C 97.800781 7.726562 97.042969 8.367188 96.199219 9.328125 C 95.347656 10.285156 94.492188 11.441406 93.617188 12.808594 C 92.746094 14.175781 91.886719 15.6875 91.039062 17.355469 C 90.195312 19.023438 89.429688 20.71875 88.75 22.453125 C 88.066406 24.179688 87.496094 25.890625 87.03125 27.597656 C 86.566406 29.300781 86.285156 30.867188 86.1875 32.292969 Z M 106.207031 27.539062 C 106.207031 26.671875 106.34375 25.539062 106.613281 24.148438 C 106.890625 22.761719 107.25 21.261719 107.691406 19.652344 C 108.132812 18.046875 108.640625 16.402344 109.214844 14.722656 C 109.785156 13.046875 110.371094 11.46875 110.964844 9.996094 C 111.5625 8.523438 112.148438 7.226562 112.722656 6.121094 C 113.292969 5.007812 113.804688 4.207031 114.257812 3.722656 C 114.5 3.75 114.816406 3.84375 115.210938 3.996094 C 115.597656 4.152344 116.003906 4.34375 116.402344 4.558594 C 116.8125 4.777344 117.183594 5.011719 117.523438 5.265625 C 117.855469 5.519531 118.066406 5.753906 118.164062 5.972656 C 117.472656 6.597656 116.785156 7.550781 116.101562 8.820312 C 115.425781 10.089844 114.769531 11.53125 114.136719 13.148438 C 113.503906 14.769531 112.914062 16.476562 112.363281 18.277344 C 111.816406 20.078125 111.335938 21.824219 110.933594 23.519531 C 110.523438 25.210938 110.210938 26.78125 109.984375 28.230469 C 109.753906 29.679688 109.644531 30.851562 109.644531 31.75 C 109.644531 32.160156 109.679688 32.414062 109.75 32.511719 C 109.222656 32.480469 108.84375 32.394531 108.601562 32.238281 C 108.363281 32.082031 108.179688 31.910156 108.050781 31.730469 C 107.917969 31.546875 107.800781 31.363281 107.691406 31.183594 C 107.582031 31.003906 107.421875 30.863281 107.207031 30.765625 C 107.042969 30.695312 106.894531 30.523438 106.777344 30.257812 C 106.65625 30 106.558594 29.703125 106.472656 29.371094 C 106.390625 29.046875 106.320312 28.714844 106.277344 28.378906 C 106.226562 28.035156 106.207031 27.761719 106.207031 27.539062 Z M 106.207031 27.539062 "/>
</g>
</svg>
