<svg width="314" height="96" xmlns="http://www.w3.org/2000/svg">

 <g>
  <title>background</title>
  <rect fill="none" id="canvas_background" height="98" width="316" y="-1" x="-1"/>
 </g>
 <g>
  <title>Layer 1</title>
  <path fill="#67bbbd" d="m67.94,24.770002l0,0q0,4.55 -2.05,8.59q-2.04,4.04 -5.65,7.22q-3.61,3.19 -8.45,5.37q-4.85,2.18 -10.55,2.95l0,0q1.42,4.27 3.47,8.78q2.04,4.51 4.41,8.7q2.38,4.18 4.95,7.69q2.56,3.51 5.03,5.79l0,0q-0.47,0.96 -1.38,1.91q-0.9,0.95 -2.09,1.75q-1.19,0.81 -2.47,1.33q-1.28,0.53 -2.42,0.53l0,0q-2.09,0 -3.99,-2q-1.9,-1.99 -3.85,-6.32q-1.94,-4.32 -4.08,-11.21q-2.14,-6.88 -4.7,-16.58l0,0q-1.05,0 -2.09,0q-1.05,0 -1.62,-0.18l0,0q-0.66,-0.39 -1.43,-1.34l0,0q-2.56,5.52 -4.56,10.36q-1.99,4.85 -3.56,9.36q-1.57,4.51 -2.75,8.74q-1.19,4.23 -2.05,8.6l0,0q-3.23,-0.76 -5.6,-2.76q-2.37,-2 -4.46,-5.61l0,0q0.37,-0.85 0.8,-1.66q0.43,-0.81 1.09,-2.28q0.67,-1.47 1.67,-3.75q1,-2.28 2.66,-6.08q1.66,-3.8 3.99,-9.31q2.33,-5.51 5.65,-13.4l0,0q1.52,-3.51 2.61,-6.17q1.09,-2.66 1.95,-5.08q0.86,-2.43 1.57,-4.85q0.71,-2.42 1.47,-5.55l0,0q-4.37,1.51 -8.12,3.37q-3.76,1.85 -6.22,3.94l0,0q-0.86,-0.57 -1.76,-1.71q-0.91,-1.14 -1.66,-2.52q-0.76,-1.37 -1.33,-2.8q-0.58,-1.43 -0.67,-2.57l0,0q2.85,-1.89 6.98,-3.51q4.13,-1.62 8.79,-2.8q4.65,-1.19 9.5,-1.85q4.85,-0.67 9.03,-0.67l0,0q11.4,0 17.66,4.7q6.28,4.7 6.28,12.88zm-24.32,-9.79l1.14,1.8q-0.67,0.86 -2.1,3.42q-1.42,2.57 -3.27,6.13q-1.85,3.56 -3.9,7.74q-2.04,4.18 -3.94,8.27l0,0q7.13,0 13.11,-1.33q5.99,-1.33 10.35,-3.75q4.37,-2.42 6.8,-5.7q2.42,-3.28 2.42,-7.27l0,0q0,-4.75 -3.42,-7.27q-3.42,-2.52 -10.55,-2.52l0,0q-1.61,0 -3.22,0.15q-1.62,0.14 -3.42,0.33l0,0zm64.59,21.66l0,0q3.14,0 4.9,1.71q1.76,1.71 1.76,4.75l0,0q0,0.76 -0.15,1.57q-0.14,0.8 -0.33,1.37l0,0q-1.24,-0.18 -2.76,-0.33q-1.51,-0.14 -3.61,-0.14l0,0q-4.08,0 -8.26,0.71q-4.18,0.71 -7.98,1.19l0,0q-2.19,5.03 -3.99,9.74q-1.8,4.7 -3.09,8.6q-1.28,3.89 -1.99,6.74q-0.72,2.85 -0.81,4.27l0,0q7.69,-1.61 15.53,-2.75q7.84,-1.14 16.48,-1.71l0,0q1.05,1.61 1.76,3.51q0.71,1.91 0.71,4.09l0,0q0,0.57 0,1.23q0,0.67 -0.19,1.34l0,0q-2.66,-0.1 -5.6,-0.15q-2.94,-0.05 -7.69,-0.05l0,0q-3.14,0 -5.94,0.15q-2.81,0.14 -5.66,0.42q-2.84,0.29 -6.03,0.76q-3.18,0.48 -7.17,1.15l0,0q-4.37,-1.71 -8.45,-8.37l0,0q1.61,-3.41 4.51,-10.4q2.89,-6.98 7.36,-18.66l0,0q-4.28,-1.34 -5.61,-4.75l0,0q0.48,-0.48 2.76,-1.19q2.28,-0.71 5.6,-1.48l0,0q1.43,-3.7 2.43,-6.46q0.99,-2.75 1.76,-5.17q0.75,-2.42 1.37,-4.75q0.62,-2.33 1.19,-5.09l0,0q-3.33,-0.18 -5.23,-1.85q-1.89,-1.66 -1.89,-4.32l0,0q0,-0.76 0.23,-1.8q0.24,-1.05 0.52,-1.81l0,0q1.9,0.29 3.66,0.38q1.76,0.1 4.61,0.1l0,0q5.98,0 11.21,-0.34q5.22,-0.33 9.45,-0.71q4.23,-0.38 7.27,-0.71q3.04,-0.34 4.65,-0.34l0,0q2.19,0 3.9,2.29q1.71,2.28 2.56,6.46l0,0q-2.94,-0.29 -4.79,-0.39q-1.86,-0.09 -3.28,-0.09l0,0q-5.23,0 -9.55,0.52q-4.32,0.53 -8.31,1.1l0,0q-0.57,0.85 -1.28,2.18q-0.72,1.33 -1.85,3.71q-1.15,2.37 -2.81,5.98q-1.66,3.61 -4.04,9.03l0,0q3.61,-0.57 6.8,-0.91q3.18,-0.33 5.36,-0.33zm71.25,10.26l0,0q2.47,0 3.9,1.71q1.43,1.71 1.43,4.75l0,0q0,0.76 -0.1,1.57q-0.09,0.8 -0.28,1.38l0,0q-2,-0.48 -4.37,-0.58l0,0q-0.58,4.18 -3.05,8.79q-2.47,4.61 -5.98,8.65q-3.52,4.04 -7.7,7.08q-4.17,3.03 -8.26,4.08l0,0q-12.73,-0.28 -18.57,-6.6q-5.84,-6.32 -5.84,-19.71l0,0q0,-9.79 3.6,-18.96q3.62,-9.17 9.6,-16.29q5.99,-7.13 13.73,-11.45q7.74,-4.32 16.1,-4.32l0,0q6.56,0 10.21,2.75q3.66,2.76 3.66,7.8l0,0q0,3.32 -1.57,6.17q-1.56,2.85 -5.17,6.17l0,0q-2.19,-0.66 -3.81,-2.32q-1.61,-1.66 -1.99,-3.85l0,0q3.23,-2.38 4.56,-4.37q1.33,-2 1.33,-4.75l0,0q0,-4.37 -5.22,-4.37l0,0q-4.28,0 -9.17,3.18q-4.89,3.18 -9.83,9.17l0,0q-7.03,8.45 -10.27,17.43q-3.22,8.98 -3.22,20.19l0,0q0,4.18 0.85,7.6q0.86,3.42 2.28,5.98q1.43,2.57 3.37,4.09q1.95,1.52 4.23,1.71l0,0q3.04,-0.67 6.08,-3.09q3.04,-2.42 5.56,-5.7q2.51,-3.28 4.27,-7.03q1.76,-3.75 2.14,-7.17l0,0q-2.66,0.57 -5.08,1.09q-2.42,0.52 -4.61,0.52l0,0q-2.85,0 -4.99,-1.42q-2.13,-1.42 -2.89,-3.9l0,0q1.71,-0.95 4.98,-1.99q3.28,-1.05 6.99,-1.95q3.7,-0.9 7.26,-1.47q3.56,-0.57 5.84,-0.57zm48.36,37.24l0,0q-0.19,0.1 -0.38,0.1q-0.19,0 -0.76,0l0,0q-1.33,0 -3.09,-0.43q-1.76,-0.43 -3.42,-1.05q-1.66,-0.61 -2.85,-1.37q-1.18,-0.76 -1.47,-1.34l0,0q-0.1,-1.33 -0.1,-2.75q0,-1.43 0,-2.75l0,0q0,-10.65 1.57,-22.24q1.57,-11.58 5.18,-25.08l0,0q0.38,-1.32 0.81,-3.37q0.43,-2.04 0.9,-4.41l0,0q-2.28,1.8 -5.41,5.74q-3.14,3.94 -6.61,9.31q-3.46,5.37 -6.93,11.78q-3.47,6.42 -6.32,13.02q-2.85,6.6 -4.89,13.06q-2.05,6.46 -2.52,11.97l0,0q-4.56,-1.33 -6.32,-2.66q-1.75,-1.33 -1.75,-3.23l0,0q0,-1.71 1.04,-4.85q1.05,-3.13 2.95,-7.41q1.89,-4.27 4.65,-9.54q2.76,-5.28 6.08,-11.35l0,0q3.8,-6.94 7.46,-13.02q3.66,-6.08 7.17,-11.02q3.52,-4.94 6.89,-8.55q3.37,-3.61 6.7,-5.51l0,0q1.33,0 3.56,0.67q2.23,0.66 4.37,1.61q2.13,0.95 3.8,1.95q1.66,0.99 1.85,1.66l0,0q-1.33,2.66 -3.13,7.98q-1.81,5.32 -3.66,12.07q-1.86,6.74 -3.52,14.29q-1.66,7.55 -2.61,14.49l0,0q2.18,-5.23 5.08,-10.88q2.9,-5.65 6.13,-11.21q3.23,-5.55 6.6,-10.78q3.37,-5.23 6.61,-9.55q3.23,-4.32 6.03,-7.55q2.8,-3.23 4.98,-4.75l0,0q1.34,0 3.57,0.67q2.23,0.66 4.37,1.61q2.13,0.95 3.8,1.95q1.66,0.99 1.85,1.66l0,0q-3.04,5.41 -5.32,13.2q-2.28,7.79 -3.85,16.35q-1.56,8.55 -2.37,16.95q-0.81,8.41 -0.81,15.06l0,0q0,2.18 0,4.56q0,2.37 0.19,4.94l0,0q-1.33,0 -3.18,-0.33q-1.86,-0.33 -3.61,-0.91q-1.76,-0.57 -3.19,-1.28q-1.42,-0.71 -1.99,-1.57l0,0q-0.09,-1.33 -0.09,-2.75q0,-1.43 0,-2.75l0,0q0,-10.65 1.56,-22.24q1.57,-11.58 5.18,-25.08l0,0q0.38,-1.32 0.86,-3.6q0.47,-2.29 0.95,-4.75l0,0q-2.67,1.32 -6.04,5.08q-3.37,3.75 -6.84,9.12q-3.47,5.37 -6.84,11.92q-3.37,6.56 -6.08,13.35q-2.71,6.79 -4.56,13.49q-1.85,6.7 -2.23,12.3zm53.11,-12.45l0,0q0,-3.42 1.09,-8.88q1.09,-5.46 2.85,-11.78q1.75,-6.32 4.04,-12.92q2.27,-6.6 4.65,-12.4q2.37,-5.79 4.66,-10.16q2.27,-4.37 4.08,-6.27l0,0q0.95,0.1 2.52,0.71q1.56,0.62 3.18,1.48q1.62,0.85 2.95,1.85q1.33,0.99 1.71,1.85l0,0q-2.76,2.47 -5.47,7.46q-2.7,4.99 -5.22,11.35q-2.52,6.36 -4.7,13.44q-2.19,7.08 -3.8,13.73q-1.62,6.65 -2.52,12.35q-0.9,5.7 -0.9,9.22l0,0q0,1.61 0.28,1.99l0,0q-2.09,-0.1 -3.04,-0.71q-0.95,-0.62 -1.47,-1.33q-0.52,-0.72 -0.95,-1.43q-0.43,-0.71 -1.28,-1.09l0,0q-0.67,-0.29 -1.15,-1.33q-0.47,-1.04 -0.8,-2.33q-0.34,-1.28 -0.52,-2.61q-0.19,-1.33 -0.19,-2.19z" id="SvgjsPath176186334"/>
 </g>
</svg>