<?xml version="1.0" encoding="UTF-8"?>
<svg xmlns="http://www.w3.org/2000/svg" xmlns:xlink="http://www.w3.org/1999/xlink" width="30px" height="30px" viewBox="0 0 30 30" version="1.1">
<g id="surface1">
<path style=" stroke:none;fill-rule:nonzero;fill:rgb(66.666669%,69.803923%,74.117649%);fill-opacity:1;" d="M 27.050781 17.070312 C 27.140625 17.25 27.1875 17.445312 27.1875 17.648438 C 27.1875 17.96875 27.074219 18.261719 26.878906 18.488281 C 26.6875 18.71875 26.417969 18.882812 26.105469 18.933594 L 25.976562 18.953125 C 26.152344 19.164062 26.25 19.429688 26.25 19.707031 C 26.25 20.242188 25.875 20.699219 25.351562 20.804688 L 24.96875 20.878906 L 24.96875 20.882812 L 25.179688 21.296875 C 25.265625 21.472656 25.3125 21.664062 25.3125 21.859375 C 25.3125 22.175781 25.195312 22.472656 25 22.691406 C 24.800781 22.914062 24.523438 23.066406 24.210938 23.105469 L 21.5625 23.4375 L 21.5625 22.476562 C 21.5625 20.464844 20.5 18.648438 18.835938 17.648438 C 19.726562 16.023438 21.4375 15 23.300781 15 L 25.199219 15 C 25.871094 15 26.515625 14.734375 26.996094 14.253906 C 27.117188 14.132812 27.285156 14.0625 27.464844 14.0625 C 27.828125 14.0625 28.125 14.359375 28.125 14.722656 C 28.125 15.335938 27.894531 15.90625 27.515625 16.335938 C 27.347656 16.527344 27.144531 16.691406 26.925781 16.824219 Z M 27.050781 17.070312 "/>
<path style=" stroke:none;fill-rule:nonzero;fill:rgb(66.666669%,69.803923%,74.117649%);fill-opacity:1;" d="M 12.136719 17.710938 C 10.71875 18.605469 10.3125 19.015625 9.976562 19.480469 C 9.328125 20.386719 8.957031 21.488281 8.957031 22.648438 L 8.957031 23.386719 L 6.726562 23.105469 C 6.414062 23.066406 6.136719 22.914062 5.9375 22.691406 C 5.742188 22.472656 5.625 22.175781 5.625 21.859375 C 5.625 21.664062 5.671875 21.472656 5.757812 21.296875 L 5.96875 20.882812 L 5.96875 20.878906 L 5.585938 20.804688 C 5.0625 20.699219 4.6875 20.242188 4.6875 19.707031 C 4.6875 19.429688 4.785156 19.164062 4.960938 18.953125 L 4.832031 18.933594 C 4.519531 18.882812 4.25 18.71875 4.058594 18.488281 C 3.863281 18.261719 3.75 17.96875 3.75 17.648438 C 3.75 17.445312 3.796875 17.25 3.886719 17.070312 L 4.011719 16.824219 C 3.792969 16.691406 3.589844 16.527344 3.421875 16.335938 C 3.042969 15.90625 2.8125 15.335938 2.8125 14.722656 C 2.8125 14.359375 3.109375 14.0625 3.472656 14.0625 C 3.652344 14.0625 3.820312 14.132812 3.941406 14.253906 C 4.421875 14.734375 5.066406 15 5.738281 15 L 7.636719 15 C 9.523438 15 11.253906 16.046875 12.136719 17.710938 Z M 12.136719 17.710938 "/>
<path style=" stroke:none;fill-rule:nonzero;fill:rgb(100%,50.980395%,43.137255%);fill-opacity:1;" d="M 16.449219 22.246094 L 17.34375 26.71875 L 15.9375 28.59375 L 14.082031 26.796875 L 14.398438 24.753906 L 15.679688 23.1875 Z M 16.449219 22.246094 "/>
<path style=" stroke:none;fill-rule:nonzero;fill:rgb(100%,50.980395%,43.137255%);fill-opacity:1;" d="M 16.40625 20.15625 L 16.398438 20.34375 C 16.179688 20.183594 15.929688 20.105469 15.679688 20.105469 C 15.347656 20.105469 15.023438 20.242188 14.789062 20.503906 L 14.46875 20.855469 L 14.15625 19.59375 L 15 18.75 Z M 16.40625 20.15625 "/>
<path style=" stroke:none;fill-rule:nonzero;fill:rgb(98.823529%,84.313726%,43.921569%);fill-opacity:1;" d="M 18.835938 17.648438 C 18.484375 17.433594 18.101562 17.257812 17.703125 17.132812 L 16.40625 20.15625 L 16.398438 20.34375 C 16.941406 20.75 17.035156 21.535156 16.601562 22.058594 L 16.449219 22.246094 L 17.34375 26.71875 L 15.9375 28.59375 L 14.082031 26.796875 L 14.398438 24.753906 L 15.679688 23.1875 L 13.753906 21.652344 L 14.46875 20.855469 L 14.15625 19.59375 L 13.59375 20.15625 L 12.328125 17.625 C 12.261719 17.652344 12.195312 17.679688 12.136719 17.710938 C 10.71875 18.605469 10.3125 19.015625 9.976562 19.480469 C 9.328125 20.386719 8.957031 21.488281 8.957031 22.648438 L 8.957031 23.386719 C 8.957031 24.773438 9.941406 25.925781 11.25 26.195312 L 11.25 29.0625 L 21.5625 29.0625 L 21.5625 22.476562 C 21.5625 20.464844 20.5 18.648438 18.835938 17.648438 Z M 18.835938 17.648438 "/>
<path style=" stroke:none;fill-rule:nonzero;fill:rgb(100%,78.039217%,16.078432%);fill-opacity:1;" d="M 15 18.28125 L 17.253906 16.929688 C 17.339844 16.992188 17.4375 17.042969 17.546875 17.078125 C 17.597656 17.089844 17.652344 17.109375 17.703125 17.132812 L 16.40625 20.15625 L 15 18.75 L 13.59375 20.15625 L 12.328125 17.625 C 12.4375 17.582031 12.542969 17.539062 12.65625 17.503906 C 12.847656 17.4375 13.011719 17.316406 13.121094 17.152344 Z M 15 18.28125 "/>
<path style=" stroke:none;fill-rule:nonzero;fill:rgb(69.803923%,47.450981%,27.450982%);fill-opacity:1;" d="M 20.234375 7.238281 C 19.984375 6.609375 19.609375 6.027344 19.128906 5.535156 C 17.925781 6.164062 16.101562 6.5625 14.0625 6.5625 C 13.421875 6.5625 12.800781 6.523438 12.214844 6.449219 C 11.21875 6.324219 10.316406 6.097656 9.578125 5.804688 L 8.980469 6.203125 C 8.640625 6.425781 8.4375 6.804688 8.4375 7.214844 C 8.4375 7.679688 8.699219 8.101562 9.113281 8.304688 L 9.375 8.4375 C 9.671875 9.320312 10.355469 10.007812 11.242188 10.308594 C 11.246094 10.246094 11.25 10.1875 11.25 10.121094 L 11.25 9.496094 C 11.25 8.855469 11.640625 8.28125 12.234375 8.042969 L 12.898438 7.777344 C 13.320312 8.183594 13.898438 8.4375 14.53125 8.4375 L 15 8.4375 C 15.515625 8.4375 15.984375 8.648438 16.328125 8.984375 C 16.664062 9.328125 16.875 9.796875 16.875 10.3125 C 17.132812 10.3125 17.367188 10.414062 17.535156 10.589844 C 17.710938 10.757812 17.8125 10.992188 17.8125 11.25 C 17.8125 11.507812 17.710938 11.742188 17.535156 11.910156 C 17.367188 12.085938 17.132812 12.1875 16.875 12.1875 L 16.875 15 L 18.257812 13.960938 C 19.75 12.84375 20.625 11.089844 20.625 9.230469 C 20.625 8.539062 20.488281 7.867188 20.234375 7.238281 Z M 20.234375 7.238281 "/>
<path style=" stroke:none;fill-rule:nonzero;fill:rgb(90.196079%,91.37255%,92.941177%);fill-opacity:1;" d="M 20.625 3.75 C 20.625 4.429688 20.0625 5.054688 19.128906 5.535156 C 17.925781 6.164062 16.101562 6.5625 14.0625 6.5625 C 13.421875 6.5625 12.800781 6.523438 12.214844 6.449219 C 11.21875 6.324219 10.316406 6.097656 9.578125 5.804688 C 8.296875 5.289062 7.5 4.554688 7.5 3.75 C 7.5 2.199219 10.4375 0.9375 14.0625 0.9375 C 17.6875 0.9375 20.625 2.199219 20.625 3.75 Z M 18.75 3.75 C 18.75 3.234375 16.648438 2.8125 14.0625 2.8125 C 11.476562 2.8125 9.375 3.234375 9.375 3.75 C 9.375 4.265625 11.476562 4.6875 14.0625 4.6875 C 16.648438 4.6875 18.75 4.265625 18.75 3.75 Z M 18.75 3.75 "/>
<path style=" stroke:none;fill-rule:nonzero;fill:rgb(94.117647%,81.568629%,70.588237%);fill-opacity:1;" d="M 15.679688 20.105469 C 15.929688 20.105469 16.179688 20.183594 16.398438 20.34375 C 16.941406 20.75 17.035156 21.535156 16.601562 22.058594 L 16.449219 22.246094 L 15.679688 23.1875 L 13.753906 21.652344 L 14.46875 20.855469 L 14.789062 20.503906 C 15.023438 20.242188 15.347656 20.105469 15.679688 20.105469 Z M 15.679688 20.105469 "/>
<path style=" stroke:none;fill-rule:nonzero;fill:rgb(94.117647%,81.568629%,70.588237%);fill-opacity:1;" d="M 15 8.4375 C 15.515625 8.4375 15.984375 8.648438 16.328125 8.984375 C 16.664062 9.328125 16.875 9.796875 16.875 10.3125 C 17.132812 10.3125 17.367188 10.414062 17.535156 10.589844 C 17.710938 10.757812 17.8125 10.992188 17.8125 11.25 C 17.8125 11.507812 17.710938 11.742188 17.535156 11.910156 C 17.367188 12.085938 17.132812 12.1875 16.875 12.1875 L 16.875 16.175781 C 16.875 16.480469 17.019531 16.757812 17.253906 16.929688 L 15 18.28125 L 13.121094 17.152344 C 13.179688 17.066406 13.226562 16.96875 13.257812 16.867188 L 13.515625 15.9375 L 13.515625 15.933594 C 12.414062 15.910156 11.5 15.113281 11.292969 14.0625 C 11.265625 13.917969 11.25 13.773438 11.25 13.617188 L 11.25 13.125 L 11.035156 13.125 C 10.636719 13.125 10.3125 12.800781 10.3125 12.402344 C 10.3125 12.261719 10.355469 12.125 10.433594 12.003906 L 10.882812 11.328125 C 11.089844 11.023438 11.210938 10.671875 11.242188 10.308594 C 11.246094 10.246094 11.25 10.1875 11.25 10.121094 L 11.25 9.496094 C 11.25 8.855469 11.640625 8.28125 12.234375 8.042969 L 12.898438 7.777344 C 13.320312 8.183594 13.898438 8.4375 14.53125 8.4375 Z M 15 8.4375 "/>
<path style=" stroke:none;fill-rule:nonzero;fill:rgb(0%,0%,0%);fill-opacity:1;" d="M 19.21875 3.75 C 19.21875 2.445312 15.273438 2.34375 14.0625 2.34375 C 12.851562 2.34375 8.90625 2.445312 8.90625 3.75 C 8.90625 5.054688 12.851562 5.15625 14.0625 5.15625 C 15.273438 5.15625 19.21875 5.054688 19.21875 3.75 Z M 14.0625 3.28125 C 16.105469 3.28125 17.472656 3.539062 18.046875 3.75 C 17.472656 3.960938 16.105469 4.21875 14.0625 4.21875 C 12.019531 4.21875 10.652344 3.960938 10.078125 3.75 C 10.652344 3.539062 12.019531 3.28125 14.0625 3.28125 Z M 14.0625 3.28125 "/>
<path style=" stroke:none;fill-rule:nonzero;fill:rgb(0%,0%,0%);fill-opacity:1;" d="M 15.46875 10.3125 L 15.46875 9.84375 L 14.53125 9.84375 L 14.53125 10.3125 C 14.53125 10.570312 14.320312 10.78125 14.0625 10.78125 C 13.804688 10.78125 13.59375 10.570312 13.59375 10.3125 L 13.59375 9.84375 L 12.65625 9.84375 L 12.65625 10.3125 C 12.65625 11.085938 13.289062 11.71875 14.0625 11.71875 C 14.835938 11.71875 15.46875 11.085938 15.46875 10.3125 Z M 15.46875 10.3125 "/>
<path style=" stroke:none;fill-rule:nonzero;fill:rgb(0%,0%,0%);fill-opacity:1;" d="M 27.460938 13.59375 C 27.164062 13.59375 26.871094 13.714844 26.660156 13.925781 C 26.269531 14.316406 25.75 14.53125 25.199219 14.53125 L 23.300781 14.53125 C 21.425781 14.53125 19.699219 15.480469 18.679688 17.027344 C 18.359375 16.867188 18.027344 16.730469 17.679688 16.625 C 17.476562 16.566406 17.34375 16.386719 17.34375 16.175781 L 17.34375 15.234375 L 18.539062 14.335938 C 20.140625 13.136719 21.09375 11.230469 21.09375 9.230469 C 21.09375 7.921875 20.65625 6.671875 19.855469 5.65625 C 20.640625 5.125 21.09375 4.472656 21.09375 3.75 C 21.09375 1.878906 18.070312 0.46875 14.0625 0.46875 C 10.054688 0.46875 7.03125 1.878906 7.03125 3.75 C 7.03125 4.578125 7.628906 5.316406 8.636719 5.882812 C 8.222656 6.199219 7.96875 6.6875 7.96875 7.214844 C 7.96875 7.859375 8.328125 8.4375 8.902344 8.726562 L 9 8.773438 C 9.320312 9.574219 9.9375 10.226562 10.710938 10.597656 C 10.664062 10.765625 10.59375 10.921875 10.492188 11.070312 L 10.042969 11.746094 C 9.914062 11.941406 9.84375 12.171875 9.84375 12.40625 C 9.84375 12.976562 10.246094 13.453125 10.78125 13.566406 L 10.78125 13.617188 C 10.78125 14.363281 11.070312 15.0625 11.597656 15.589844 C 11.96875 15.960938 12.425781 16.210938 12.921875 16.328125 L 12.804688 16.738281 C 12.765625 16.890625 12.652344 17.007812 12.503906 17.058594 C 12.441406 17.078125 12.382812 17.105469 12.324219 17.128906 C 11.3125 15.519531 9.558594 14.53125 7.636719 14.53125 L 5.738281 14.53125 C 5.1875 14.53125 4.667969 14.316406 4.277344 13.925781 C 4.066406 13.714844 3.773438 13.59375 3.476562 13.59375 C 2.851562 13.59375 2.34375 14.101562 2.34375 14.726562 C 2.34375 15.628906 2.761719 16.445312 3.421875 16.980469 C 3.335938 17.195312 3.28125 17.421875 3.28125 17.648438 C 3.28125 18.347656 3.6875 18.953125 4.292969 19.242188 C 4.246094 19.390625 4.21875 19.546875 4.21875 19.707031 C 4.21875 20.390625 4.664062 20.988281 5.296875 21.207031 C 5.210938 21.414062 5.15625 21.632812 5.15625 21.859375 C 5.15625 22.726562 5.804688 23.464844 6.667969 23.570312 L 8.519531 23.800781 C 8.679688 25.09375 9.578125 26.15625 10.78125 26.550781 L 10.78125 29.53125 L 22.03125 29.53125 L 22.03125 23.851562 L 24.269531 23.570312 C 25.132812 23.464844 25.78125 22.726562 25.78125 21.859375 C 25.78125 21.632812 25.726562 21.414062 25.640625 21.207031 C 26.273438 20.988281 26.71875 20.390625 26.71875 19.707031 C 26.71875 19.546875 26.691406 19.390625 26.644531 19.242188 C 27.25 18.953125 27.65625 18.347656 27.65625 17.648438 C 27.65625 17.421875 27.601562 17.195312 27.515625 16.980469 C 28.175781 16.445312 28.59375 15.628906 28.59375 14.726562 C 28.59375 14.101562 28.085938 13.59375 27.460938 13.59375 Z M 16.84375 26.605469 L 15.882812 27.886719 L 14.582031 26.628906 L 14.84375 24.953125 L 16.183594 23.3125 Z M 14.535156 18.550781 L 13.722656 19.363281 L 12.972656 17.867188 C 13.046875 17.828125 13.117188 17.789062 13.183594 17.738281 Z M 15 19.414062 L 15.273438 19.6875 C 15.082031 19.734375 14.894531 19.820312 14.726562 19.9375 L 14.675781 19.738281 Z M 15.136719 20.816406 C 15.390625 20.53125 15.8125 20.492188 16.113281 20.71875 C 16.277344 20.839844 16.378906 21.015625 16.402344 21.214844 C 16.425781 21.414062 16.367188 21.609375 16.242188 21.765625 L 15.609375 22.535156 L 14.433594 21.59375 Z M 16.25 19.335938 L 15.464844 18.550781 L 16.972656 17.644531 Z M 20.15625 9.230469 C 20.15625 10.9375 19.34375 12.5625 17.976562 13.585938 L 17.34375 14.0625 L 17.34375 12.574219 C 17.890625 12.382812 18.28125 11.859375 18.28125 11.25 C 18.28125 10.625 17.871094 10.097656 17.308594 9.914062 C 17.121094 8.808594 16.15625 7.96875 15 7.96875 L 14.53125 7.96875 C 13.832031 7.96875 13.207031 7.574219 12.886719 6.984375 C 13.265625 7.011719 13.660156 7.03125 14.0625 7.03125 C 16.035156 7.03125 17.765625 6.6875 19.019531 6.117188 C 19.75 6.992188 20.15625 8.082031 20.15625 9.230469 Z M 7.96875 3.75 C 7.96875 2.640625 10.472656 1.40625 14.0625 1.40625 C 17.652344 1.40625 20.15625 2.640625 20.15625 3.75 C 20.15625 4.859375 17.652344 6.09375 14.0625 6.09375 C 10.472656 6.09375 7.96875 4.859375 7.96875 3.75 Z M 9.820312 8.289062 L 9.757812 8.105469 L 9.320312 7.886719 C 9.066406 7.757812 8.90625 7.5 8.90625 7.214844 C 8.90625 6.964844 9.03125 6.730469 9.242188 6.589844 L 9.628906 6.332031 C 10.273438 6.570312 11.019531 6.753906 11.839844 6.875 C 11.910156 7.125 12.015625 7.359375 12.152344 7.574219 L 12.058594 7.609375 C 11.28125 7.921875 10.78125 8.660156 10.78125 9.496094 L 10.78125 9.554688 C 10.335938 9.25 9.992188 8.808594 9.820312 8.289062 Z M 11.96875 14.53125 L 12.078125 14.53125 C 12.902344 14.53125 13.644531 14.074219 14.011719 13.335938 L 13.175781 12.914062 C 12.964844 13.332031 12.542969 13.59375 12.078125 13.59375 L 11.71875 13.59375 L 11.71875 12.65625 L 11.03125 12.65625 C 10.894531 12.65625 10.78125 12.542969 10.78125 12.40625 C 10.78125 12.355469 10.796875 12.308594 10.824219 12.265625 L 11.273438 11.589844 C 11.566406 11.152344 11.71875 10.644531 11.71875 10.121094 L 11.71875 9.496094 C 11.71875 9.046875 11.988281 8.648438 12.40625 8.480469 L 12.824219 8.3125 C 13.304688 8.679688 13.894531 8.90625 14.53125 8.90625 L 15 8.90625 C 15.773438 8.90625 16.40625 9.539062 16.40625 10.3125 L 16.40625 10.78125 L 16.875 10.78125 C 17.132812 10.78125 17.34375 10.992188 17.34375 11.25 C 17.34375 11.507812 17.132812 11.71875 16.875 11.71875 L 16.40625 11.71875 L 16.40625 16.175781 C 16.40625 16.402344 16.460938 16.613281 16.554688 16.804688 L 15 17.734375 L 13.714844 16.964844 L 13.875 16.386719 C 14.503906 16.320312 15.089844 16.042969 15.542969 15.589844 L 15.800781 15.332031 L 15.136719 14.667969 L 14.878906 14.925781 C 14.179688 15.625 12.960938 15.625 12.261719 14.925781 C 12.140625 14.808594 12.050781 14.671875 11.96875 14.53125 Z M 6.09375 21.859375 C 6.09375 21.738281 6.121094 21.617188 6.175781 21.507812 L 6.226562 21.410156 L 6.9375 21.554688 L 7.125 20.632812 L 5.679688 20.347656 C 5.378906 20.285156 5.15625 20.015625 5.15625 19.707031 C 5.15625 19.625 5.171875 19.542969 5.199219 19.464844 L 6.484375 19.679688 L 6.640625 18.757812 L 4.910156 18.46875 C 4.511719 18.402344 4.21875 18.058594 4.21875 17.648438 C 4.21875 17.578125 4.230469 17.511719 4.246094 17.441406 C 4.453125 17.519531 4.664062 17.578125 4.886719 17.605469 L 6.503906 17.808594 L 6.621094 16.878906 L 5.003906 16.675781 C 4.023438 16.554688 3.28125 15.714844 3.28125 14.726562 C 3.28125 14.566406 3.5 14.476562 3.613281 14.589844 C 4.179688 15.15625 4.933594 15.46875 5.738281 15.46875 L 7.636719 15.46875 C 9.195312 15.46875 10.621094 16.25 11.472656 17.527344 C 9.652344 18.5625 8.488281 20.5 8.488281 22.652344 L 8.488281 22.855469 L 6.785156 22.640625 C 6.390625 22.59375 6.09375 22.253906 6.09375 21.859375 Z M 9.425781 23.386719 L 9.425781 22.652344 C 9.425781 20.773438 10.480469 19.082031 12.113281 18.242188 L 13.464844 20.949219 L 13.902344 20.511719 L 13.957031 20.726562 L 10.953125 24.0625 L 11.648438 24.6875 L 13.804688 22.292969 L 15.015625 23.261719 L 13.671875 24.902344 C 13.214844 25.460938 12.539062 25.78125 11.820312 25.78125 C 10.5 25.78125 9.425781 24.707031 9.425781 23.386719 Z M 11.71875 26.714844 C 11.753906 26.714844 11.785156 26.71875 11.820312 26.71875 C 12.507812 26.71875 13.160156 26.503906 13.710938 26.125 L 13.582031 26.964844 L 15.261719 28.59375 L 11.71875 28.59375 Z M 21.09375 28.59375 L 19.21875 28.59375 L 19.21875 21.757812 C 19.21875 21.453125 19.335938 21.171875 19.550781 20.957031 L 18.886719 20.292969 C 18.496094 20.683594 18.28125 21.203125 18.28125 21.757812 L 18.28125 28.59375 L 16.523438 28.59375 L 17.84375 26.832031 L 16.953125 22.375 L 16.96875 22.355469 C 17.257812 22.003906 17.386719 21.554688 17.332031 21.101562 C 17.289062 20.75 17.140625 20.433594 16.90625 20.179688 L 17.957031 17.726562 C 19.855469 18.53125 21.09375 20.375 21.09375 22.476562 Z M 25.933594 16.675781 L 24.316406 16.878906 L 24.433594 17.808594 L 26.050781 17.605469 C 26.273438 17.578125 26.484375 17.515625 26.691406 17.441406 C 26.707031 17.511719 26.71875 17.578125 26.71875 17.648438 C 26.71875 18.058594 26.425781 18.402344 26.027344 18.46875 L 24.296875 18.757812 L 24.453125 19.679688 L 25.738281 19.464844 C 25.765625 19.542969 25.78125 19.625 25.78125 19.707031 C 25.78125 20.015625 25.558594 20.285156 25.257812 20.34375 L 23.8125 20.632812 L 24 21.554688 L 24.710938 21.410156 L 24.761719 21.507812 C 24.816406 21.617188 24.84375 21.738281 24.84375 21.859375 C 24.84375 22.257812 24.546875 22.59375 24.152344 22.640625 L 22.03125 22.90625 L 22.03125 22.476562 C 22.03125 20.449219 21.058594 18.625 19.480469 17.507812 C 20.332031 16.242188 21.757812 15.46875 23.300781 15.46875 L 25.199219 15.46875 C 26.003906 15.46875 26.757812 15.15625 27.324219 14.589844 C 27.4375 14.476562 27.65625 14.566406 27.65625 14.726562 C 27.65625 15.714844 26.914062 16.554688 25.933594 16.675781 Z M 25.933594 16.675781 "/>
<path style=" stroke:none;fill-rule:nonzero;fill:rgb(0%,0%,0%);fill-opacity:1;" d="M 21.863281 6.128906 L 28.898438 3.320312 L 29.246094 4.191406 L 22.210938 7 Z M 21.863281 6.128906 "/>
<path style=" stroke:none;fill-rule:nonzero;fill:rgb(0%,0%,0%);fill-opacity:1;" d="M 21.851562 10.730469 L 22.199219 9.859375 L 29.234375 12.667969 L 28.886719 13.539062 Z M 21.851562 10.730469 "/>
<path style=" stroke:none;fill-rule:nonzero;fill:rgb(0%,0%,0%);fill-opacity:1;" d="M 22.03125 7.96875 L 25.78125 7.96875 L 25.78125 8.90625 L 22.03125 8.90625 Z M 22.03125 7.96875 "/>
<path style=" stroke:none;fill-rule:nonzero;fill:rgb(0%,0%,0%);fill-opacity:1;" d="M 0.753906 4.179688 L 1.121094 3.320312 L 7.683594 6.132812 L 7.3125 6.996094 Z M 0.753906 4.179688 "/>
<path style=" stroke:none;fill-rule:nonzero;fill:rgb(0%,0%,0%);fill-opacity:1;" d="M 0.753906 12.691406 L 7.316406 9.878906 L 7.683594 10.742188 L 1.121094 13.554688 Z M 0.753906 12.691406 "/>
<path style=" stroke:none;fill-rule:nonzero;fill:rgb(0%,0%,0%);fill-opacity:1;" d="M 4.21875 7.96875 L 7.03125 7.96875 L 7.03125 8.90625 L 4.21875 8.90625 Z M 4.21875 7.96875 "/>
</g>
</svg>
