<svg height="100%" width="100%" viewBox="0 0 540 508" xmlns="http://www.w3.org/2000/svg"><path xmlns="http://www.w3.org/2000/svg" id="SvgjsPath176186334" d="M74.20-52.34L74.20-52.34Q74.20-47.79 72.15-43.75Q70.11-39.71 66.50-36.53Q62.89-33.34 58.05-31.16Q53.20-28.98 47.50-28.21L47.50-28.21Q48.92-23.94 50.97-19.43Q53.01-14.92 55.38-10.73Q57.76-6.55 60.33-3.04Q62.89 0.47 65.36 2.75L65.36 2.75Q64.89 3.71 63.98 4.66Q63.08 5.61 61.89 6.41Q60.70 7.22 59.42 7.74Q58.14 8.27 57 8.27L57 8.27Q54.91 8.27 53.01 6.27Q51.11 4.28 49.16-0.05Q47.22-4.37 45.08-11.26Q42.94-18.14 40.38-27.84L40.38-27.84Q39.33-27.84 38.29-27.84Q37.24-27.84 36.67-28.02L36.67-28.02Q36.01-28.41 35.24-29.36L35.24-29.36Q32.68-23.84 30.68-19Q28.69-14.15 27.12-9.64Q25.55-5.13 24.37-0.90Q23.18 3.33 22.32 7.70L22.32 7.70Q19.09 6.94 16.72 4.94Q14.35 2.94 12.26-0.67L12.26-0.67Q12.63-1.52 13.06-2.33Q13.49-3.14 14.15-4.61Q14.82-6.08 15.82-8.36Q16.82-10.64 18.48-14.44Q20.14-18.24 22.47-23.75Q24.80-29.26 28.12-37.15L28.12-37.15Q29.64-40.66 30.73-43.32Q31.82-45.98 32.68-48.40Q33.54-50.83 34.25-53.25Q34.96-55.67 35.72-58.80L35.72-58.80Q31.35-57.29 27.60-55.43Q23.84-53.58 21.38-51.49L21.38-51.49Q20.52-52.06 19.62-53.20Q18.71-54.34 17.96-55.72Q17.20-57.09 16.63-58.52Q16.05-59.95 15.96-61.09L15.96-61.09Q18.81-62.98 22.94-64.60Q27.07-66.22 31.73-67.40Q36.38-68.59 41.23-69.25Q46.08-69.92 50.26-69.92L50.26-69.92Q61.66-69.92 67.92-65.22Q74.20-60.52 74.20-52.34ZM49.88-62.13L51.02-60.33Q50.35-59.47 48.92-56.91Q47.50-54.34 45.65-50.78Q43.80-47.22 41.75-43.04Q39.71-38.86 37.81-34.77L37.81-34.77Q44.94-34.77 50.92-36.10Q56.91-37.43 61.27-39.85Q65.64-42.27 68.07-45.55Q70.49-48.83 70.49-52.82L70.49-52.82Q70.49-57.57 67.07-60.09Q63.65-62.61 56.52-62.61L56.52-62.61Q54.91-62.61 53.30-62.46Q51.68-62.32 49.88-62.13L49.88-62.13ZM114.47-40.47L114.47-40.47Q117.61-40.47 119.37-38.76Q121.13-37.05 121.13-34.01L121.13-34.01Q121.13-33.25 120.98-32.44Q120.84-31.64 120.65-31.07L120.65-31.07Q119.41-31.25 117.89-31.40Q116.38-31.54 114.28-31.54L114.28-31.54Q110.20-31.54 106.02-30.83Q101.84-30.12 98.04-29.64L98.04-29.64Q95.85-24.61 94.05-19.90Q92.25-15.20 90.96-11.30Q89.68-7.41 88.97-4.56Q88.25-1.71 88.16-0.29L88.16-0.29Q95.85-1.90 103.69-3.04Q111.53-4.18 120.17-4.75L120.17-4.75Q121.22-3.14 121.93-1.24Q122.64 0.67 122.64 2.85L122.64 2.85Q122.64 3.42 122.64 4.08Q122.64 4.75 122.45 5.42L122.45 5.42Q119.79 5.32 116.85 5.27Q113.91 5.22 109.16 5.22L109.16 5.22Q106.02 5.22 103.22 5.37Q100.41 5.51 97.56 5.79Q94.72 6.08 91.53 6.55Q88.35 7.03 84.36 7.70L84.36 7.70Q79.99 5.99 75.91-0.67L75.91-0.67Q77.52-4.08 80.42-11.07Q83.31-18.05 87.78-29.73L87.78-29.73Q83.50-31.07 82.17-34.48L82.17-34.48Q82.65-34.96 84.93-35.67Q87.21-36.38 90.53-37.15L90.53-37.15Q91.96-40.85 92.96-43.61Q93.95-46.36 94.72-48.78Q95.47-51.20 96.09-53.53Q96.71-55.86 97.28-58.62L97.28-58.62Q93.95-58.80 92.05-60.47Q90.16-62.13 90.16-64.79L90.16-64.79Q90.16-65.55 90.39-66.59Q90.63-67.64 90.91-68.40L90.91-68.40Q92.81-68.11 94.57-68.02Q96.33-67.92 99.18-67.92L99.18-67.92Q105.16-67.92 110.39-68.26Q115.61-68.59 119.84-68.97Q124.07-69.35 127.11-69.68Q130.15-70.02 131.76-70.02L131.76-70.02Q133.95-70.02 135.66-67.73Q137.37-65.45 138.22-61.27L138.22-61.27Q135.28-61.56 133.43-61.66Q131.57-61.75 130.15-61.75L130.15-61.75Q124.92-61.75 120.60-61.23Q116.28-60.70 112.29-60.13L112.29-60.13Q111.72-59.28 111.01-57.95Q110.29-56.62 109.16-54.24Q108.01-51.87 106.35-48.26Q104.69-44.65 102.31-39.23L102.31-39.23Q105.92-39.80 109.11-40.14Q112.29-40.47 114.47-40.47ZM185.72-30.21L185.72-30.21Q188.19-30.21 189.62-28.50Q191.05-26.79 191.05-23.75L191.05-23.75Q191.05-22.99 190.95-22.18Q190.86-21.38 190.67-20.80L190.67-20.80Q188.67-21.28 186.30-21.38L186.30-21.38Q185.72-17.20 183.25-12.59Q180.78-7.98 177.27-3.94Q173.75 0.10 169.57 3.14Q165.40 6.17 161.31 7.22L161.31 7.22Q148.58 6.94 142.74 0.62Q136.90-5.70 136.90-19.09L136.90-19.09Q136.90-28.88 140.50-38.05Q144.12-47.22 150.10-54.34Q156.09-61.47 163.83-65.79Q171.57-70.11 179.93-70.11L179.93-70.11Q186.49-70.11 190.14-67.36Q193.80-64.60 193.80-59.56L193.80-59.56Q193.80-56.24 192.23-53.39Q190.67-50.54 187.06-47.22L187.06-47.22Q184.87-47.88 183.25-49.54Q181.64-51.20 181.26-53.39L181.26-53.39Q184.49-55.77 185.82-57.76Q187.15-59.76 187.15-62.51L187.15-62.51Q187.15-66.88 181.93-66.88L181.93-66.88Q177.65-66.88 172.76-63.70Q167.87-60.52 162.93-54.53L162.93-54.53Q155.90-46.08 152.66-37.10Q149.44-28.12 149.44-16.91L149.44-16.91Q149.44-12.73 150.29-9.31Q151.15-5.89 152.57-3.33Q154.00-0.76 155.94 0.76Q157.89 2.28 160.17 2.47L160.17 2.47Q163.21 1.80 166.25-0.62Q169.29-3.04 171.81-6.32Q174.32-9.60 176.08-13.35Q177.84-17.10 178.22-20.52L178.22-20.52Q175.56-19.95 173.14-19.43Q170.72-18.91 168.53-18.91L168.53-18.91Q165.68-18.91 163.54-20.33Q161.41-21.75 160.65-24.23L160.65-24.23Q162.36-25.18 165.63-26.22Q168.91-27.27 172.62-28.17Q176.32-29.07 179.88-29.64Q183.44-30.21 185.72-30.21ZM234.08 7.03L234.08 7.03Q233.89 7.13 233.70 7.13Q233.51 7.13 232.94 7.13L232.94 7.13Q231.61 7.13 229.85 6.70Q228.09 6.27 226.43 5.65Q224.77 5.04 223.58 4.28Q222.40 3.52 222.11 2.94L222.11 2.94Q222.01 1.61 222.01 0.19Q222.01-1.24 222.01-2.56L222.01-2.56Q222.01-13.21 223.58-24.80Q225.15-36.38 228.76-49.88L228.76-49.88Q229.14-51.20 229.57-53.25Q230.00-55.29 230.47-57.66L230.47-57.66Q228.19-55.86 225.06-51.92Q221.92-47.98 218.45-42.61Q214.99-37.24 211.52-30.83Q208.05-24.41 205.20-17.81Q202.35-11.21 200.31-4.75Q198.26 1.71 197.79 7.22L197.79 7.22Q193.23 5.89 191.47 4.56Q189.72 3.23 189.72 1.33L189.72 1.33Q189.72-0.38 190.76-3.52Q191.81-6.65 193.71-10.93Q195.60-15.20 198.36-20.47Q201.12-25.75 204.44-31.82L204.44-31.82Q208.24-38.76 211.90-44.84Q215.56-50.92 219.07-55.86Q222.59-60.80 225.96-64.41Q229.33-68.02 232.66-69.92L232.66-69.92Q233.99-69.92 236.22-69.25Q238.45-68.59 240.59-67.64Q242.72-66.69 244.39-65.69Q246.05-64.70 246.24-64.03L246.24-64.03Q244.91-61.37 243.11-56.05Q241.30-50.73 239.45-43.98Q237.59-37.24 235.93-29.69Q234.27-22.14 233.32-15.20L233.32-15.20Q235.50-20.43 238.40-26.08Q241.30-31.73 244.53-37.29Q247.76-42.84 251.13-48.07Q254.50-53.30 257.74-57.62Q260.97-61.94 263.77-65.17Q266.57-68.40 268.75-69.92L268.75-69.92Q270.09-69.92 272.32-69.25Q274.55-68.59 276.69-67.64Q278.82-66.69 280.49-65.69Q282.15-64.70 282.34-64.03L282.34-64.03Q279.30-58.62 277.02-50.83Q274.74-43.04 273.17-34.48Q271.61-25.93 270.80-17.53Q269.99-9.12 269.99-2.47L269.99-2.47Q269.99-0.29 269.99 2.09Q269.99 4.46 270.18 7.03L270.18 7.03Q268.85 7.03 267.00 6.70Q265.14 6.37 263.39 5.79Q261.63 5.22 260.20 4.51Q258.78 3.80 258.21 2.94L258.21 2.94Q258.12 1.61 258.12 0.19Q258.12-1.24 258.12-2.56L258.12-2.56Q258.12-13.21 259.68-24.80Q261.25-36.38 264.86-49.88L264.86-49.88Q265.24-51.20 265.72-53.48Q266.19-55.77 266.67-58.23L266.67-58.23Q264.00-56.91 260.63-53.15Q257.26-49.40 253.79-44.03Q250.32-38.66 246.95-32.11Q243.58-25.55 240.87-18.76Q238.16-11.97 236.31-5.27Q234.46 1.43 234.08 7.03ZM287.19-5.42L287.19-5.42Q287.19-8.84 288.28-14.30Q289.37-19.76 291.13-26.08Q292.88-32.40 295.17-39.00Q297.44-45.60 299.82-51.40Q302.19-57.19 304.48-61.56Q306.75-65.93 308.56-67.83L308.56-67.83Q309.51-67.73 311.08-67.12Q312.64-66.50 314.26-65.64Q315.88-64.79 317.21-63.79Q318.54-62.80 318.92-61.94L318.92-61.94Q316.16-59.47 313.45-54.48Q310.75-49.49 308.23-43.13Q305.71-36.77 303.53-29.69Q301.34-22.61 299.73-15.96Q298.11-9.31 297.21-3.61Q296.31 2.09 296.31 5.61L296.31 5.61Q296.31 7.22 296.59 7.60L296.59 7.60Q294.50 7.50 293.55 6.89Q292.60 6.27 292.08 5.56Q291.56 4.84 291.13 4.13Q290.70 3.42 289.85 3.04L289.85 3.04Q289.18 2.75 288.70 1.71Q288.23 0.67 287.90-0.62Q287.56-1.90 287.38-3.23Q287.19-4.56 287.19-5.42Z" fill="#67bbbd" fontsize="15" transform="matrix(1,0,0,1,105.91,286.42)"></path></svg>