<?xml version="1.0" encoding="UTF-8"?>
<svg xmlns="http://www.w3.org/2000/svg" xmlns:xlink="http://www.w3.org/1999/xlink" width="30px" height="30px" viewBox="0 0 30 30" version="1.1">
<g id="surface1">
<path style=" stroke:none;fill-rule:nonzero;fill:rgb(83.137256%,90.196079%,90.588236%);fill-opacity:1;" d="M 28.5 4.5 L 28.5 26.691406 L 26.691406 28.5 L 2 28.5 C 1.171875 28.5 0.5 27.828125 0.5 27 L 0.5 4.5 L 1 4 L 28 4 Z M 28.5 4.5 "/>
<path style=" stroke:none;fill-rule:nonzero;fill:rgb(56.078434%,36.078432%,29.019609%);fill-opacity:1;" d="M 29.25 28.644531 L 28.644531 29.25 C 28.484375 29.410156 28.269531 29.5 28.039062 29.5 C 27.816406 29.5 27.601562 29.410156 27.441406 29.25 L 24.046875 25.855469 L 24.5 24.5 L 25.855469 24.046875 L 29.25 27.441406 C 29.410156 27.601562 29.5 27.816406 29.5 28.039062 C 29.5 28.269531 29.410156 28.484375 29.25 28.644531 Z M 29.25 28.644531 "/>
<path style=" stroke:none;fill-rule:nonzero;fill:rgb(66.666669%,78.039217%,78.431374%);fill-opacity:1;" d="M 22.597656 24.417969 L 24.40625 22.601562 L 25.847656 24.046875 L 24.039062 25.855469 Z M 22.597656 24.417969 "/>
<path style=" stroke:none;fill-rule:nonzero;fill:rgb(41.568628%,77.254903%,47.450981%);fill-opacity:1;" d="M 28.5 2 L 28.5 4.5 L 0.5 4.5 L 0.5 2 C 0.5 1.171875 1.171875 0.5 2 0.5 L 27 0.5 C 27.828125 0.5 28.5 1.171875 28.5 2 Z M 28.5 2 "/>
<path style=" stroke:none;fill-rule:nonzero;fill:rgb(95.686275%,97.647059%,97.647059%);fill-opacity:1;" d="M 26.5 16.5 C 26.5 10.976562 22.023438 6.5 16.5 6.5 C 10.976562 6.5 6.5 10.976562 6.5 16.5 C 6.5 22.023438 10.976562 26.5 16.5 26.5 C 22.023438 26.5 26.5 22.023438 26.5 16.5 Z M 26.5 16.5 "/>
<path style=" stroke:none;fill-rule:nonzero;fill:rgb(47.450981%,87.058824%,53.725493%);fill-opacity:1;" d="M 24.5 16.5 C 24.5 12.078125 20.921875 8.5 16.5 8.5 C 12.078125 8.5 8.5 12.078125 8.5 16.5 C 8.5 20.921875 12.078125 24.5 16.5 24.5 C 20.921875 24.5 24.5 20.921875 24.5 16.5 Z M 24.5 16.5 "/>
<path style=" stroke:none;fill-rule:nonzero;fill:rgb(84.705883%,25.490198%,36.862746%);fill-opacity:1;" d="M 17.890625 11.738281 L 21.730469 17.5 C 22.058594 18 22.082031 18.648438 21.789062 19.167969 C 21.496094 19.691406 20.9375 20.015625 20.339844 20 L 12.660156 20 C 12.0625 20.015625 11.503906 19.691406 11.210938 19.167969 C 10.917969 18.648438 10.941406 18 11.269531 17.5 L 15.109375 11.738281 C 15.421875 11.273438 15.941406 11 16.5 11 C 17.058594 11 17.578125 11.273438 17.890625 11.738281 Z M 17.890625 11.738281 "/>
<path style=" stroke:none;fill-rule:nonzero;fill:rgb(100%,100%,100%);fill-opacity:1;" d="M 3 3 L 2.5 3 C 2.222656 3 2 2.773438 2 2.5 C 2 2.222656 2.222656 2 2.5 2 L 3 2 C 3.277344 2 3.5 2.222656 3.5 2.5 C 3.5 2.773438 3.277344 3 3 3 Z M 3 3 "/>
<path style=" stroke:none;fill-rule:nonzero;fill:rgb(100%,100%,100%);fill-opacity:1;" d="M 5.5 3 L 5 3 C 4.726562 3 4.5 2.773438 4.5 2.5 C 4.5 2.222656 4.726562 2 5 2 L 5.5 2 C 5.773438 2 6 2.222656 6 2.5 C 6 2.773438 5.773438 3 5.5 3 Z M 5.5 3 "/>
<path style=" stroke:none;fill-rule:nonzero;fill:rgb(100%,100%,100%);fill-opacity:1;" d="M 8 3 L 7.5 3 C 7.222656 3 7 2.773438 7 2.5 C 7 2.222656 7.222656 2 7.5 2 L 8 2 C 8.277344 2 8.5 2.222656 8.5 2.5 C 8.5 2.773438 8.277344 3 8 3 Z M 8 3 "/>
<path style=" stroke:none;fill-rule:nonzero;fill:rgb(33.333334%,62.7451%,37.64706%);fill-opacity:1;" d="M 26.5 3 L 23.5 3 C 23.222656 3 23 2.773438 23 2.5 C 23 2.222656 23.222656 2 23.5 2 L 26.5 2 C 26.773438 2 27 2.222656 27 2.5 C 27 2.773438 26.773438 3 26.5 3 Z M 26.5 3 "/>
<path style=" stroke:none;fill-rule:nonzero;fill:rgb(41.568628%,77.254903%,47.450981%);fill-opacity:1;" d="M 16.5 25 C 11.808594 25 8 21.191406 8 16.5 C 8 11.808594 11.808594 8 16.5 8 C 16.777344 8 17 8.222656 17 8.5 C 17 8.773438 16.777344 9 16.5 9 C 12.542969 9.003906 9.273438 12.078125 9.023438 16.027344 C 8.78125 19.972656 11.640625 23.433594 15.566406 23.929688 C 19.492188 24.425781 23.125 21.789062 23.867188 17.902344 C 24.609375 14.015625 22.203125 10.222656 18.375 9.238281 C 18.113281 9.164062 17.957031 8.890625 18.027344 8.628906 C 18.09375 8.367188 18.359375 8.207031 18.625 8.269531 C 22.773438 9.335938 25.476562 13.320312 24.9375 17.570312 C 24.398438 21.820312 20.78125 25.003906 16.5 25 Z M 16.5 25 "/>
<path style=" stroke:none;fill-rule:nonzero;fill:rgb(100%,100%,100%);fill-opacity:1;" d="M 16.5 16.5 C 16.222656 16.5 16 16.273438 16 16 L 16 14 C 16 13.726562 16.222656 13.5 16.5 13.5 C 16.777344 13.5 17 13.726562 17 14 L 17 16 C 17 16.273438 16.777344 16.5 16.5 16.5 Z M 16.5 16.5 "/>
<path style=" stroke:none;fill-rule:nonzero;fill:rgb(100%,100%,100%);fill-opacity:1;" d="M 16.5 18.5 C 16.222656 18.5 16 18.277344 16 18 C 16 17.722656 16.222656 17.492188 16.5 17.488281 C 16.632812 17.484375 16.757812 17.535156 16.851562 17.625 C 16.945312 17.71875 17 17.84375 17 17.976562 L 17 18 C 17 18.277344 16.777344 18.5 16.5 18.5 Z M 16.5 18.5 "/>
</g>
</svg>
