<?xml version="1.0" encoding="UTF-8"?>
<svg xmlns="http://www.w3.org/2000/svg" xmlns:xlink="http://www.w3.org/1999/xlink" width="25px" height="25px" viewBox="0 0 25 25" version="1.1">
<g id="surface1">
<path style=" stroke:none;fill-rule:nonzero;fill:rgb(52.941179%,82.352942%,95.294118%);fill-opacity:1;" d="M 14.0625 7.296875 C 14.0625 3.558594 11.03125 0.527344 7.292969 0.527344 C 3.554688 0.527344 0.523438 3.558594 0.523438 7.296875 C 0.523438 11.035156 3.554688 14.066406 7.292969 14.066406 C 11.03125 14.066406 14.0625 11.035156 14.0625 7.296875 Z M 14.0625 7.296875 "/>
<path style=" stroke:none;fill-rule:nonzero;fill:rgb(100%,100%,100%);fill-opacity:1;" d="M 8.332031 22.394531 L 8.332031 23.4375 C 8.332031 24.011719 7.867188 24.480469 7.292969 24.480469 C 6.71875 24.480469 6.253906 24.011719 6.253906 23.4375 L 6.253906 18.230469 C 6.253906 17.65625 6.71875 17.191406 7.292969 17.191406 C 7.867188 17.195312 8.332031 17.660156 8.332031 18.230469 Z M 8.332031 22.394531 "/>
<path style=" stroke:none;fill-rule:nonzero;fill:rgb(52.941179%,82.352942%,95.294118%);fill-opacity:1;" d="M 24.476562 17.191406 L 19.269531 22.394531 L 19.269531 19.273438 C 19.269531 18.121094 20.203125 17.191406 21.351562 17.191406 Z M 24.476562 17.191406 "/>
<path style=" stroke:none;fill-rule:nonzero;fill:rgb(100%,100%,100%);fill-opacity:1;" d="M 24.476562 2.609375 L 24.476562 17.191406 L 21.351562 17.191406 C 20.203125 17.191406 19.269531 18.121094 19.269531 19.273438 L 19.269531 22.394531 L 8.332031 22.394531 L 8.332031 18.230469 C 8.332031 17.660156 7.867188 17.195312 7.292969 17.191406 L 7.292969 14.066406 C 11.03125 14.066406 14.0625 11.035156 14.0625 7.296875 C 14.0625 3.558594 11.03125 0.527344 7.292969 0.527344 L 22.394531 0.527344 C 23.542969 0.527344 24.476562 1.460938 24.476562 2.609375 Z M 24.476562 2.609375 "/>
<path style=" stroke:none;fill-rule:nonzero;fill:rgb(12.941177%,43.921569%,65.098041%);fill-opacity:1;" d="M 7.816406 16.765625 L 7.816406 14.558594 C 11.828125 14.273438 14.851562 10.785156 14.5625 6.769531 C 14.277344 2.753906 10.789062 -0.269531 6.773438 0.0195312 C 2.757812 0.304688 -0.261719 3.796875 0.0234375 7.808594 C 0.285156 11.425781 3.15625 14.300781 6.773438 14.558594 L 6.773438 16.765625 C 6.152344 16.984375 5.734375 17.570312 5.730469 18.230469 L 5.730469 23.4375 C 5.730469 24.300781 6.433594 25 7.292969 25 C 8.15625 25 8.855469 24.300781 8.855469 23.4375 L 8.855469 18.230469 C 8.855469 17.570312 8.4375 16.980469 7.816406 16.765625 Z M 1.042969 7.296875 C 1.042969 3.847656 3.84375 1.046875 7.292969 1.046875 C 10.746094 1.046875 13.542969 3.847656 13.542969 7.296875 C 13.542969 10.75 10.746094 13.542969 7.292969 13.542969 C 3.84375 13.542969 1.046875 10.746094 1.042969 7.296875 Z M 7.816406 23.4375 C 7.816406 23.722656 7.582031 23.957031 7.292969 23.957031 C 7.003906 23.957031 6.773438 23.722656 6.773438 23.4375 L 6.773438 18.230469 C 6.773438 17.941406 7.003906 17.710938 7.292969 17.710938 C 7.433594 17.710938 7.566406 17.765625 7.664062 17.871094 C 7.761719 17.964844 7.816406 18.097656 7.816406 18.230469 Z M 7.816406 23.4375 "/>
<path style=" stroke:none;fill-rule:nonzero;fill:rgb(12.941177%,43.921569%,65.098041%);fill-opacity:1;" d="M 22.394531 0.0117188 L 13.542969 0.0117188 L 13.542969 1.046875 L 22.394531 1.046875 C 23.253906 1.046875 23.957031 1.746094 23.957031 2.609375 L 23.957031 16.667969 L 21.351562 16.667969 C 19.914062 16.667969 18.75 17.835938 18.746094 19.273438 L 18.746094 21.875 L 10.417969 21.875 L 10.417969 22.917969 L 19.269531 22.917969 C 19.40625 22.917969 19.539062 22.863281 19.636719 22.761719 L 24.84375 17.558594 C 24.941406 17.460938 24.996094 17.328125 24.996094 17.191406 L 24.996094 2.609375 C 24.992188 1.175781 23.832031 0.0117188 22.394531 0.0117188 Z M 21.351562 17.710938 L 23.21875 17.710938 L 19.789062 21.140625 L 19.789062 19.273438 C 19.789062 18.410156 20.488281 17.710938 21.351562 17.710938 Z M 21.351562 17.710938 "/>
<path style=" stroke:none;fill-rule:nonzero;fill:rgb(12.941177%,43.921569%,65.098041%);fill-opacity:1;" d="M 7.292969 3.132812 C 4.992188 3.136719 3.132812 4.996094 3.128906 7.296875 L 4.167969 7.296875 C 4.167969 5.574219 5.570312 4.175781 7.292969 4.171875 Z M 7.292969 3.132812 "/>
</g>
</svg>
