<?xml version="1.0" encoding="UTF-8"?>
<svg xmlns="http://www.w3.org/2000/svg" xmlns:xlink="http://www.w3.org/1999/xlink" width="30px" height="30px" viewBox="0 0 30 30" version="1.1">
<g id="surface1">
<path style=" stroke:none;fill-rule:nonzero;fill:rgb(48.235294%,76.078433%,80.000001%);fill-opacity:1;" d="M 6.09375 2.34375 C 6.09375 1.308594 5.253906 0.46875 4.21875 0.46875 C 3.183594 0.46875 2.34375 1.308594 2.34375 2.34375 C 2.34375 3.378906 3.183594 4.21875 4.21875 4.21875 C 5.253906 4.21875 6.09375 3.378906 6.09375 2.34375 Z M 6.09375 2.34375 "/>
<path style=" stroke:none;fill-rule:nonzero;fill:rgb(48.235294%,76.078433%,80.000001%);fill-opacity:1;" d="M 4.21875 4.21875 C 2.148438 4.21875 0.46875 5.898438 0.46875 7.96875 L 0.46875 8.90625 L 7.96875 8.90625 L 7.96875 7.96875 C 7.96875 5.898438 6.289062 4.21875 4.21875 4.21875 Z M 4.21875 4.21875 "/>
<path style=" stroke:none;fill-rule:nonzero;fill:rgb(92.941177%,51.372552%,51.372552%);fill-opacity:1;" d="M 27.65625 22.96875 C 27.65625 21.933594 26.816406 21.09375 25.78125 21.09375 C 24.746094 21.09375 23.90625 21.933594 23.90625 22.96875 C 23.90625 24.003906 24.746094 24.84375 25.78125 24.84375 C 26.816406 24.84375 27.65625 24.003906 27.65625 22.96875 Z M 27.65625 22.96875 "/>
<path style=" stroke:none;fill-rule:nonzero;fill:rgb(92.941177%,51.372552%,51.372552%);fill-opacity:1;" d="M 25.78125 24.84375 C 23.710938 24.84375 22.03125 26.523438 22.03125 28.59375 L 22.03125 29.53125 L 29.53125 29.53125 L 29.53125 28.59375 C 29.53125 26.523438 27.851562 24.84375 25.78125 24.84375 Z M 25.78125 24.84375 "/>
<path style=" stroke:none;fill-rule:nonzero;fill:rgb(100%,77.254903%,45.490196%);fill-opacity:1;" d="M 15.9375 3.28125 C 15.9375 2.503906 15.308594 1.875 14.53125 1.875 C 13.753906 1.875 13.125 2.503906 13.125 3.28125 C 13.125 4.058594 13.753906 4.6875 14.53125 4.6875 C 15.308594 4.6875 15.9375 4.058594 15.9375 3.28125 Z M 15.9375 3.28125 "/>
<path style=" stroke:none;fill-rule:nonzero;fill:rgb(100%,77.254903%,45.490196%);fill-opacity:1;" d="M 29.53125 12.65625 C 29.53125 11.878906 28.902344 11.25 28.125 11.25 C 27.347656 11.25 26.71875 11.878906 26.71875 12.65625 C 26.71875 13.433594 27.347656 14.0625 28.125 14.0625 C 28.902344 14.0625 29.53125 13.433594 29.53125 12.65625 Z M 29.53125 12.65625 "/>
<path style=" stroke:none;fill-rule:nonzero;fill:rgb(100%,77.254903%,45.490196%);fill-opacity:1;" d="M 5.15625 18.75 C 5.15625 17.972656 4.527344 17.34375 3.75 17.34375 C 2.972656 17.34375 2.34375 17.972656 2.34375 18.75 C 2.34375 19.527344 2.972656 20.15625 3.75 20.15625 C 4.527344 20.15625 5.15625 19.527344 5.15625 18.75 Z M 5.15625 18.75 "/>
<path style=" stroke:none;fill-rule:nonzero;fill:rgb(100%,77.254903%,45.490196%);fill-opacity:1;" d="M 3.28125 28.125 C 3.28125 27.347656 2.652344 26.71875 1.875 26.71875 C 1.097656 26.71875 0.46875 27.347656 0.46875 28.125 C 0.46875 28.902344 1.097656 29.53125 1.875 29.53125 C 2.652344 29.53125 3.28125 28.902344 3.28125 28.125 Z M 3.28125 28.125 "/>
<path style=" stroke:none;fill-rule:nonzero;fill:rgb(100%,77.254903%,45.490196%);fill-opacity:1;" d="M 14.0625 25.78125 C 14.0625 25.003906 13.433594 24.375 12.65625 24.375 C 11.878906 24.375 11.25 25.003906 11.25 25.78125 C 11.25 26.558594 11.878906 27.1875 12.65625 27.1875 C 13.433594 27.1875 14.0625 26.558594 14.0625 25.78125 Z M 14.0625 25.78125 "/>
<path style=" stroke:none;fill-rule:nonzero;fill:rgb(100%,77.254903%,45.490196%);fill-opacity:1;" d="M 27.65625 1.875 C 27.65625 1.097656 27.027344 0.46875 26.25 0.46875 C 25.472656 0.46875 24.84375 1.097656 24.84375 1.875 C 24.84375 2.652344 25.472656 3.28125 26.25 3.28125 C 27.027344 3.28125 27.65625 2.652344 27.65625 1.875 Z M 27.65625 1.875 "/>
<path style=" stroke:none;fill-rule:nonzero;fill:rgb(100%,83.529413%,44.705883%);fill-opacity:1;" d="M 20.15625 15 C 20.15625 12.152344 17.847656 9.84375 15 9.84375 C 12.152344 9.84375 9.84375 12.152344 9.84375 15 C 9.84375 17.847656 12.152344 20.15625 15 20.15625 C 17.847656 20.15625 20.15625 17.847656 20.15625 15 Z M 20.15625 15 "/>
<path style=" stroke:none;fill-rule:nonzero;fill:rgb(23.137255%,20%,26.666668%);fill-opacity:1;" d="M 12.765625 17.054688 L 16.515625 12.367188 L 17.25 12.953125 L 13.496094 17.640625 Z M 12.765625 17.054688 "/>
<path style=" stroke:none;fill-rule:nonzero;fill:rgb(23.137255%,20%,26.666668%);fill-opacity:1;" d="M 13.125 13.125 L 14.0625 13.125 L 14.0625 14.0625 L 13.125 14.0625 Z M 13.125 13.125 "/>
<path style=" stroke:none;fill-rule:nonzero;fill:rgb(23.137255%,20%,26.666668%);fill-opacity:1;" d="M 15.9375 15.9375 L 16.875 15.9375 L 16.875 16.875 L 15.9375 16.875 Z M 15.9375 15.9375 "/>
<path style=" stroke:none;fill-rule:nonzero;fill:rgb(23.137255%,20%,26.666668%);fill-opacity:1;" d="M 27.363281 24.6875 C 27.828125 24.257812 28.125 23.648438 28.125 22.96875 C 28.125 21.992188 27.519531 21.152344 26.667969 20.800781 L 28.164062 14.527344 C 29.179688 14.507812 30 13.675781 30 12.65625 C 30 11.675781 29.238281 10.875 28.277344 10.796875 L 27.019531 3.578125 C 27.671875 3.285156 28.125 2.632812 28.125 1.875 C 28.125 0.839844 27.285156 0 26.25 0 C 25.300781 0 24.523438 0.710938 24.398438 1.625 L 16.273438 2.597656 C 16 1.902344 15.324219 1.40625 14.53125 1.40625 C 13.496094 1.40625 12.65625 2.246094 12.65625 3.28125 C 12.65625 3.367188 12.671875 3.453125 12.683594 3.535156 L 7.699219 5.589844 C 7.234375 4.910156 6.574219 4.375 5.800781 4.0625 C 6.265625 3.632812 6.5625 3.023438 6.5625 2.34375 C 6.5625 1.050781 5.511719 0 4.21875 0 C 2.925781 0 1.875 1.050781 1.875 2.34375 C 1.875 3.023438 2.171875 3.632812 2.636719 4.0625 C 1.09375 4.6875 0 6.203125 0 7.96875 L 0 8.90625 C 0 9.164062 0.210938 9.375 0.46875 9.375 L 3.726562 9.375 L 3.367188 16.914062 C 2.515625 17.09375 1.875 17.847656 1.875 18.75 C 1.875 19.492188 2.308594 20.125 2.933594 20.429688 L 1.769531 26.261719 C 0.785156 26.316406 0 27.128906 0 28.125 C 0 29.160156 0.839844 30 1.875 30 C 2.882812 30 3.703125 29.195312 3.742188 28.195312 L 10.992188 26.625 C 11.300781 27.234375 11.925781 27.65625 12.65625 27.65625 C 13.429688 27.65625 14.097656 27.183594 14.382812 26.511719 L 21.6875 27.59375 C 21.609375 27.914062 21.5625 28.25 21.5625 28.59375 L 21.5625 29.53125 C 21.5625 29.789062 21.773438 30 22.03125 30 L 29.53125 30 C 29.789062 30 30 29.789062 30 29.53125 L 30 28.59375 C 30 26.828125 28.90625 25.3125 27.363281 24.6875 Z M 27.1875 22.96875 C 27.1875 23.742188 26.554688 24.375 25.78125 24.375 C 25.007812 24.375 24.375 23.742188 24.375 22.96875 C 24.375 22.195312 25.007812 21.5625 25.78125 21.5625 C 26.554688 21.5625 27.1875 22.195312 27.1875 22.96875 Z M 29.0625 12.65625 C 29.0625 13.171875 28.640625 13.59375 28.125 13.59375 C 27.609375 13.59375 27.1875 13.171875 27.1875 12.65625 C 27.1875 12.140625 27.609375 11.71875 28.125 11.71875 C 28.640625 11.71875 29.0625 12.140625 29.0625 12.65625 Z M 20.429688 13.554688 C 19.808594 11.230469 17.738281 9.496094 15.246094 9.386719 L 15.070312 5.066406 C 15.328125 4.988281 15.554688 4.863281 15.753906 4.691406 L 26.371094 12.015625 C 26.3125 12.171875 26.277344 12.339844 26.265625 12.511719 Z M 12.582031 23.914062 C 12.1875 23.929688 11.824219 24.066406 11.53125 24.292969 L 5.460938 19.507812 C 5.566406 19.273438 5.625 19.019531 5.625 18.75 C 5.625 18.707031 5.613281 18.664062 5.613281 18.621094 L 9.832031 17.214844 C 10.480469 18.722656 11.765625 19.890625 13.351562 20.378906 Z M 2.691406 26.445312 L 3.855469 20.613281 C 4.238281 20.59375 4.589844 20.457031 4.875 20.238281 L 10.945312 25.023438 C 10.851562 25.234375 10.796875 25.464844 10.789062 25.710938 L 3.539062 27.28125 C 3.355469 26.917969 3.058594 26.625 2.691406 26.445312 Z M 10.3125 15 C 10.3125 12.414062 12.414062 10.3125 15 10.3125 C 17.585938 10.3125 19.6875 12.414062 19.6875 15 C 19.6875 17.585938 17.585938 19.6875 15 19.6875 C 12.414062 19.6875 10.3125 17.585938 10.3125 15 Z M 26.25 0.9375 C 26.765625 0.9375 27.1875 1.359375 27.1875 1.875 C 27.1875 2.390625 26.765625 2.8125 26.25 2.8125 C 25.734375 2.8125 25.3125 2.390625 25.3125 1.875 C 25.3125 1.359375 25.734375 0.9375 26.25 0.9375 Z M 26.097656 3.734375 L 27.355469 10.953125 C 27.1875 11.027344 27.039062 11.128906 26.902344 11.246094 L 16.285156 3.921875 C 16.332031 3.796875 16.363281 3.664062 16.382812 3.53125 L 24.507812 2.558594 C 24.761719 3.207031 25.371094 3.675781 26.097656 3.734375 Z M 14.53125 2.34375 C 15.046875 2.34375 15.46875 2.765625 15.46875 3.28125 C 15.46875 3.796875 15.046875 4.21875 14.53125 4.21875 C 14.015625 4.21875 13.59375 3.796875 13.59375 3.28125 C 13.59375 2.765625 14.015625 2.34375 14.53125 2.34375 Z M 2.8125 2.34375 C 2.8125 1.570312 3.445312 0.9375 4.21875 0.9375 C 4.992188 0.9375 5.625 1.570312 5.625 2.34375 C 5.625 3.117188 4.992188 3.75 4.21875 3.75 C 3.445312 3.75 2.8125 3.117188 2.8125 2.34375 Z M 0.9375 7.96875 C 0.9375 6.160156 2.410156 4.6875 4.21875 4.6875 C 6.027344 4.6875 7.5 6.160156 7.5 7.96875 L 7.5 8.4375 L 0.9375 8.4375 Z M 7.96875 9.375 C 8.226562 9.375 8.4375 9.164062 8.4375 8.90625 L 8.4375 7.96875 C 8.4375 7.421875 8.328125 6.902344 8.140625 6.421875 L 13.039062 4.402344 C 13.304688 4.757812 13.6875 5.015625 14.136719 5.113281 L 14.308594 9.421875 C 11.53125 9.765625 9.375 12.132812 9.375 15 C 9.375 15.457031 9.4375 15.898438 9.539062 16.324219 L 5.320312 17.730469 C 5.085938 17.367188 4.726562 17.097656 4.304688 16.96875 L 4.664062 9.375 Z M 3.75 17.8125 C 4.265625 17.8125 4.6875 18.234375 4.6875 18.75 C 4.6875 19.265625 4.265625 19.6875 3.75 19.6875 C 3.234375 19.6875 2.8125 19.265625 2.8125 18.75 C 2.8125 18.234375 3.234375 17.8125 3.75 17.8125 Z M 1.875 29.0625 C 1.359375 29.0625 0.9375 28.640625 0.9375 28.125 C 0.9375 27.609375 1.359375 27.1875 1.875 27.1875 C 2.390625 27.1875 2.8125 27.609375 2.8125 28.125 C 2.8125 28.640625 2.390625 29.0625 1.875 29.0625 Z M 12.65625 26.71875 C 12.140625 26.71875 11.71875 26.296875 11.71875 25.78125 C 11.71875 25.265625 12.140625 24.84375 12.65625 24.84375 C 13.171875 24.84375 13.59375 25.265625 13.59375 25.78125 C 13.59375 26.296875 13.171875 26.71875 12.65625 26.71875 Z M 14.511719 25.582031 C 14.441406 24.941406 14.050781 24.398438 13.5 24.117188 L 14.265625 20.570312 C 14.507812 20.601562 14.75 20.625 15 20.625 C 18.101562 20.625 20.625 18.101562 20.625 15 C 20.625 14.824219 20.613281 14.648438 20.597656 14.476562 L 26.425781 13.4375 C 26.597656 13.8125 26.890625 14.113281 27.253906 14.304688 L 25.746094 20.628906 C 24.46875 20.648438 23.4375 21.6875 23.4375 22.96875 C 23.4375 23.648438 23.734375 24.257812 24.199219 24.6875 C 23.25 25.070312 22.476562 25.789062 22.019531 26.695312 Z M 29.0625 29.0625 L 22.5 29.0625 L 22.5 28.59375 C 22.5 26.785156 23.972656 25.3125 25.78125 25.3125 C 27.589844 25.3125 29.0625 26.785156 29.0625 28.59375 Z M 29.0625 29.0625 "/>
</g>
</svg>
