<?xml version="1.0" encoding="UTF-8"?>
<svg xmlns="http://www.w3.org/2000/svg" xmlns:xlink="http://www.w3.org/1999/xlink" width="30px" height="30px" viewBox="0 0 30 30" version="1.1">
<g id="surface1">
<path style=" stroke:none;fill-rule:nonzero;fill:rgb(50.980395%,76.47059%,82.352942%);fill-opacity:1;" d="M 29.484375 5.171875 L 0.515625 5.171875 C 0.230469 5.171875 0 5.402344 0 5.691406 L 0 24.308594 C 0 24.597656 0.230469 24.828125 0.515625 24.828125 L 29.484375 24.828125 C 29.769531 24.828125 30 24.597656 30 24.308594 L 30 5.691406 C 30 5.402344 29.769531 5.171875 29.484375 5.171875 Z M 29.484375 5.171875 "/>
<path style=" stroke:none;fill-rule:nonzero;fill:rgb(100%,88.235295%,35.294119%);fill-opacity:1;" d="M 3.488281 7.527344 C 3.441406 7.328125 3.429688 7.253906 3.519531 7.164062 C 3.5625 7.121094 3.5625 7.050781 3.519531 7.007812 C 3.472656 6.964844 3.402344 6.964844 3.359375 7.007812 C 3.179688 7.1875 3.222656 7.375 3.269531 7.574219 C 3.128906 7.527344 2.980469 7.5625 2.902344 7.660156 C 2.863281 7.710938 2.789062 7.851562 2.929688 8.074219 C 2.960938 8.125 3.03125 8.140625 3.082031 8.105469 C 3.132812 8.074219 3.148438 8.003906 3.117188 7.953125 C 3.0625 7.871094 3.0625 7.816406 3.078125 7.800781 C 3.09375 7.777344 3.148438 7.765625 3.207031 7.785156 C 3.242188 7.796875 3.328125 7.84375 3.328125 7.976562 C 3.328125 8.082031 3.277344 8.179688 3.191406 8.242188 C 3.105469 8.308594 2.996094 8.324219 2.886719 8.292969 C 2.753906 8.25 2.660156 8.113281 2.660156 7.953125 C 2.660156 7.835938 2.6875 7.722656 2.730469 7.621094 C 2.738281 7.605469 2.910156 7.253906 2.953125 7.125 C 3.039062 6.863281 2.949219 6.734375 2.890625 6.679688 C 2.808594 6.605469 2.691406 6.589844 2.59375 6.632812 C 2.578125 6.640625 2.5625 6.648438 2.550781 6.660156 C 2.539062 6.648438 2.523438 6.640625 2.507812 6.632812 C 2.410156 6.589844 2.292969 6.605469 2.210938 6.679688 C 2.152344 6.734375 2.0625 6.863281 2.148438 7.125 C 2.195312 7.253906 2.363281 7.605469 2.367188 7.617188 C 2.414062 7.722656 2.441406 7.835938 2.441406 7.953125 C 2.441406 8.113281 2.347656 8.25 2.214844 8.292969 C 2.105469 8.324219 1.996094 8.308594 1.910156 8.242188 C 1.824219 8.179688 1.773438 8.082031 1.773438 7.976562 C 1.773438 7.84375 1.859375 7.796875 1.894531 7.785156 C 1.953125 7.765625 2.007812 7.777344 2.027344 7.800781 C 2.039062 7.816406 2.039062 7.871094 1.984375 7.953125 C 1.953125 8.003906 1.96875 8.074219 2.019531 8.105469 C 2.070312 8.140625 2.140625 8.125 2.171875 8.074219 C 2.316406 7.851562 2.238281 7.710938 2.199219 7.660156 C 2.121094 7.5625 1.972656 7.527344 1.832031 7.574219 C 1.878906 7.375 1.921875 7.1875 1.742188 7.007812 C 1.699219 6.964844 1.628906 6.964844 1.585938 7.007812 C 1.539062 7.050781 1.539062 7.121094 1.585938 7.167969 C 1.671875 7.253906 1.660156 7.328125 1.613281 7.527344 C 1.585938 7.644531 1.550781 7.792969 1.550781 7.976562 C 1.550781 8.097656 1.59375 8.214844 1.667969 8.308594 L 1.664062 8.308594 C 1.601562 8.308594 1.550781 8.359375 1.550781 8.417969 C 1.550781 8.480469 1.601562 8.53125 1.664062 8.53125 L 1.667969 8.53125 C 1.59375 8.625 1.550781 8.742188 1.550781 8.863281 C 1.550781 9.046875 1.585938 9.195312 1.613281 9.3125 C 1.660156 9.511719 1.671875 9.585938 1.585938 9.671875 C 1.539062 9.71875 1.539062 9.789062 1.585938 9.832031 C 1.605469 9.851562 1.632812 9.863281 1.664062 9.863281 C 1.691406 9.863281 1.71875 9.851562 1.742188 9.832031 C 1.921875 9.652344 1.878906 9.464844 1.832031 9.265625 C 1.972656 9.3125 2.121094 9.277344 2.199219 9.179688 C 2.238281 9.128906 2.316406 8.988281 2.171875 8.765625 C 2.140625 8.714844 2.070312 8.699219 2.019531 8.734375 C 1.96875 8.765625 1.953125 8.835938 1.984375 8.886719 C 2.039062 8.96875 2.039062 9.023438 2.027344 9.039062 C 2.007812 9.0625 1.953125 9.074219 1.894531 9.054688 C 1.859375 9.042969 1.773438 8.996094 1.773438 8.863281 C 1.773438 8.757812 1.824219 8.660156 1.910156 8.597656 C 1.996094 8.53125 2.105469 8.515625 2.214844 8.546875 C 2.347656 8.589844 2.441406 8.726562 2.441406 8.886719 C 2.441406 9.003906 2.414062 9.117188 2.367188 9.222656 L 1.640625 10.859375 C 1.582031 10.992188 1.550781 11.136719 1.550781 11.28125 C 1.550781 11.472656 1.636719 11.644531 1.773438 11.75 C 1.636719 11.855469 1.550781 12.027344 1.550781 12.21875 C 1.550781 12.367188 1.582031 12.507812 1.640625 12.644531 L 2.367188 14.277344 C 2.414062 14.382812 2.441406 14.5 2.441406 14.613281 C 2.441406 14.773438 2.347656 14.914062 2.214844 14.953125 C 2.105469 14.988281 1.996094 14.96875 1.910156 14.90625 C 1.824219 14.839844 1.773438 14.742188 1.773438 14.636719 C 1.773438 14.503906 1.859375 14.460938 1.894531 14.445312 C 1.953125 14.425781 2.007812 14.4375 2.027344 14.460938 C 2.039062 14.480469 2.039062 14.53125 1.984375 14.613281 C 1.953125 14.667969 1.96875 14.734375 2.019531 14.769531 C 2.070312 14.800781 2.140625 14.785156 2.171875 14.734375 C 2.3125 14.511719 2.238281 14.371094 2.199219 14.324219 C 2.121094 14.222656 1.972656 14.1875 1.832031 14.234375 C 1.878906 14.039062 1.921875 13.851562 1.742188 13.671875 C 1.699219 13.628906 1.628906 13.628906 1.585938 13.671875 C 1.539062 13.714844 1.539062 13.785156 1.585938 13.828125 C 1.671875 13.917969 1.660156 13.988281 1.613281 14.1875 C 1.585938 14.304688 1.550781 14.453125 1.550781 14.636719 C 1.550781 14.757812 1.59375 14.875 1.667969 14.96875 L 1.664062 14.96875 C 1.601562 14.96875 1.550781 15.019531 1.550781 15.082031 C 1.550781 15.144531 1.601562 15.191406 1.664062 15.191406 L 1.667969 15.191406 C 1.59375 15.289062 1.550781 15.402344 1.550781 15.527344 C 1.550781 15.707031 1.585938 15.855469 1.613281 15.976562 C 1.660156 16.171875 1.671875 16.246094 1.585938 16.335938 C 1.539062 16.378906 1.539062 16.449219 1.585938 16.492188 C 1.605469 16.515625 1.632812 16.523438 1.664062 16.523438 C 1.691406 16.523438 1.71875 16.515625 1.742188 16.492188 C 1.921875 16.3125 1.878906 16.125 1.832031 15.925781 C 1.972656 15.972656 2.121094 15.9375 2.199219 15.839844 C 2.238281 15.789062 2.316406 15.652344 2.171875 15.429688 C 2.140625 15.378906 2.070312 15.363281 2.019531 15.394531 C 1.96875 15.425781 1.953125 15.496094 1.984375 15.546875 C 2.039062 15.632812 2.039062 15.683594 2.027344 15.703125 C 2.007812 15.722656 1.953125 15.734375 1.894531 15.714844 C 1.859375 15.703125 1.773438 15.660156 1.773438 15.523438 C 1.773438 15.417969 1.824219 15.320312 1.910156 15.257812 C 1.996094 15.195312 2.105469 15.175781 2.214844 15.207031 C 2.347656 15.25 2.441406 15.390625 2.441406 15.550781 C 2.441406 15.664062 2.414062 15.777344 2.367188 15.882812 L 1.640625 17.519531 C 1.582031 17.652344 1.550781 17.796875 1.550781 17.945312 C 1.550781 18.132812 1.636719 18.308594 1.773438 18.414062 C 1.636719 18.519531 1.550781 18.691406 1.550781 18.878906 C 1.550781 19.027344 1.582031 19.171875 1.640625 19.304688 L 2.367188 20.941406 C 2.414062 21.046875 2.441406 21.160156 2.441406 21.273438 C 2.441406 21.433594 2.347656 21.574219 2.214844 21.617188 C 2.105469 21.648438 1.996094 21.628906 1.910156 21.566406 C 1.824219 21.503906 1.773438 21.40625 1.773438 21.300781 C 1.773438 21.164062 1.859375 21.121094 1.894531 21.109375 C 1.953125 21.089844 2.007812 21.101562 2.027344 21.121094 C 2.039062 21.140625 2.039062 21.191406 1.984375 21.277344 C 1.953125 21.328125 1.96875 21.398438 2.019531 21.429688 C 2.070312 21.460938 2.140625 21.449219 2.171875 21.394531 C 2.3125 21.171875 2.238281 21.035156 2.199219 20.984375 C 2.121094 20.882812 1.972656 20.851562 1.832031 20.898438 C 1.878906 20.699219 1.921875 20.511719 1.742188 20.332031 C 1.699219 20.289062 1.628906 20.289062 1.585938 20.332031 C 1.539062 20.375 1.539062 20.445312 1.585938 20.488281 C 1.671875 20.578125 1.660156 20.652344 1.613281 20.847656 C 1.585938 20.96875 1.550781 21.117188 1.550781 21.296875 C 1.550781 21.472656 1.636719 21.636719 1.773438 21.742188 C 1.636719 21.847656 1.550781 22.011719 1.550781 22.1875 C 1.550781 22.371094 1.585938 22.519531 1.613281 22.636719 C 1.660156 22.835938 1.671875 22.90625 1.585938 22.996094 C 1.539062 23.039062 1.539062 23.109375 1.585938 23.152344 C 1.605469 23.175781 1.632812 23.1875 1.664062 23.1875 C 1.691406 23.1875 1.71875 23.175781 1.742188 23.152344 C 1.921875 22.972656 1.878906 22.785156 1.832031 22.589844 C 1.972656 22.636719 2.121094 22.601562 2.199219 22.5 C 2.238281 22.453125 2.316406 22.3125 2.171875 22.089844 C 2.140625 22.039062 2.070312 22.023438 2.019531 22.054688 C 1.96875 22.089844 1.953125 22.15625 1.984375 22.210938 C 2.039062 22.292969 2.039062 22.34375 2.027344 22.363281 C 2.007812 22.386719 1.953125 22.398438 1.894531 22.378906 C 1.859375 22.363281 1.773438 22.320312 1.773438 22.1875 C 1.773438 22.082031 1.824219 21.984375 1.910156 21.917969 C 1.996094 21.855469 2.105469 21.835938 2.214844 21.871094 C 2.347656 21.910156 2.441406 22.050781 2.441406 22.210938 C 2.441406 22.324219 2.414062 22.441406 2.371094 22.542969 C 2.363281 22.558594 2.195312 22.910156 2.148438 23.039062 C 2.0625 23.296875 2.152344 23.429688 2.210938 23.484375 C 2.261719 23.53125 2.328125 23.554688 2.394531 23.554688 C 2.433594 23.554688 2.472656 23.546875 2.507812 23.53125 C 2.523438 23.523438 2.539062 23.515625 2.550781 23.503906 C 2.5625 23.515625 2.578125 23.523438 2.59375 23.53125 C 2.628906 23.546875 2.667969 23.554688 2.707031 23.554688 C 2.773438 23.554688 2.839844 23.53125 2.890625 23.484375 C 2.949219 23.429688 3.039062 23.296875 2.953125 23.039062 C 2.910156 22.910156 2.738281 22.558594 2.734375 22.546875 C 2.6875 22.441406 2.660156 22.324219 2.660156 22.210938 C 2.660156 22.050781 2.753906 21.910156 2.886719 21.871094 C 2.996094 21.835938 3.105469 21.855469 3.191406 21.917969 C 3.277344 21.984375 3.328125 22.082031 3.328125 22.1875 C 3.328125 22.320312 3.242188 22.363281 3.207031 22.378906 C 3.148438 22.398438 3.09375 22.386719 3.078125 22.363281 C 3.0625 22.34375 3.0625 22.292969 3.117188 22.210938 C 3.148438 22.15625 3.132812 22.089844 3.082031 22.054688 C 3.03125 22.023438 2.960938 22.039062 2.929688 22.089844 C 2.789062 22.3125 2.863281 22.453125 2.902344 22.5 C 2.980469 22.601562 3.128906 22.636719 3.269531 22.589844 C 3.222656 22.785156 3.179688 22.972656 3.359375 23.152344 C 3.382812 23.175781 3.410156 23.1875 3.4375 23.1875 C 3.46875 23.1875 3.496094 23.175781 3.519531 23.152344 C 3.5625 23.109375 3.5625 23.039062 3.519531 22.996094 C 3.429688 22.90625 3.441406 22.835938 3.488281 22.636719 C 3.515625 22.519531 3.550781 22.371094 3.550781 22.1875 C 3.550781 22.011719 3.46875 21.847656 3.328125 21.742188 C 3.46875 21.636719 3.550781 21.472656 3.550781 21.296875 C 3.550781 21.117188 3.515625 20.96875 3.488281 20.847656 C 3.441406 20.652344 3.429688 20.578125 3.519531 20.488281 C 3.5625 20.445312 3.5625 20.375 3.519531 20.332031 C 3.472656 20.289062 3.402344 20.289062 3.359375 20.332031 C 3.179688 20.511719 3.222656 20.699219 3.269531 20.898438 C 3.128906 20.851562 2.980469 20.882812 2.902344 20.984375 C 2.863281 21.035156 2.789062 21.171875 2.929688 21.394531 C 2.960938 21.445312 3.03125 21.460938 3.082031 21.429688 C 3.132812 21.398438 3.148438 21.328125 3.117188 21.277344 C 3.0625 21.191406 3.0625 21.140625 3.078125 21.121094 C 3.09375 21.101562 3.148438 21.089844 3.207031 21.109375 C 3.242188 21.121094 3.328125 21.164062 3.328125 21.300781 C 3.328125 21.40625 3.277344 21.503906 3.191406 21.566406 C 3.105469 21.628906 2.996094 21.648438 2.886719 21.613281 C 2.753906 21.574219 2.664062 21.433594 2.664062 21.273438 C 2.664062 21.160156 2.6875 21.046875 2.734375 20.941406 L 3.460938 19.304688 C 3.519531 19.171875 3.550781 19.027344 3.550781 18.878906 C 3.550781 18.691406 3.464844 18.519531 3.328125 18.414062 C 3.464844 18.304688 3.550781 18.132812 3.550781 17.945312 C 3.550781 17.796875 3.519531 17.652344 3.460938 17.519531 L 2.734375 15.882812 C 2.6875 15.78125 2.664062 15.664062 2.664062 15.550781 C 2.664062 15.390625 2.753906 15.25 2.886719 15.210938 C 2.996094 15.175781 3.105469 15.195312 3.191406 15.257812 C 3.277344 15.320312 3.328125 15.417969 3.328125 15.527344 C 3.328125 15.660156 3.242188 15.703125 3.207031 15.714844 C 3.148438 15.738281 3.09375 15.726562 3.078125 15.703125 C 3.0625 15.683594 3.0625 15.632812 3.117188 15.546875 C 3.148438 15.496094 3.132812 15.429688 3.082031 15.394531 C 3.03125 15.363281 2.960938 15.378906 2.929688 15.429688 C 2.789062 15.652344 2.863281 15.789062 2.902344 15.839844 C 2.980469 15.941406 3.128906 15.972656 3.269531 15.925781 C 3.222656 16.125 3.179688 16.3125 3.359375 16.492188 C 3.382812 16.515625 3.410156 16.523438 3.4375 16.523438 C 3.46875 16.523438 3.496094 16.515625 3.519531 16.492188 C 3.5625 16.449219 3.5625 16.378906 3.519531 16.335938 C 3.429688 16.246094 3.441406 16.171875 3.488281 15.976562 C 3.515625 15.855469 3.550781 15.707031 3.550781 15.527344 C 3.550781 15.402344 3.507812 15.289062 3.4375 15.191406 L 3.441406 15.191406 C 3.5 15.191406 3.550781 15.144531 3.550781 15.082031 C 3.550781 15.019531 3.5 14.96875 3.441406 14.96875 L 3.4375 14.96875 C 3.507812 14.875 3.550781 14.757812 3.550781 14.636719 C 3.550781 14.453125 3.515625 14.308594 3.488281 14.1875 C 3.441406 13.988281 3.429688 13.917969 3.519531 13.828125 C 3.5625 13.785156 3.5625 13.714844 3.519531 13.671875 C 3.472656 13.628906 3.40625 13.628906 3.359375 13.671875 C 3.179688 13.851562 3.222656 14.039062 3.269531 14.234375 C 3.128906 14.1875 2.980469 14.222656 2.902344 14.324219 C 2.863281 14.371094 2.789062 14.511719 2.929688 14.734375 C 2.960938 14.785156 3.03125 14.800781 3.082031 14.769531 C 3.132812 14.734375 3.148438 14.667969 3.117188 14.613281 C 3.0625 14.53125 3.0625 14.480469 3.078125 14.460938 C 3.09375 14.4375 3.148438 14.425781 3.207031 14.445312 C 3.242188 14.460938 3.328125 14.503906 3.328125 14.636719 C 3.328125 14.746094 3.277344 14.84375 3.191406 14.90625 C 3.105469 14.96875 2.996094 14.988281 2.886719 14.953125 C 2.753906 14.914062 2.664062 14.773438 2.664062 14.613281 C 2.664062 14.5 2.6875 14.382812 2.734375 14.28125 L 3.460938 12.644531 C 3.519531 12.507812 3.550781 12.367188 3.550781 12.21875 C 3.550781 12.03125 3.464844 11.855469 3.328125 11.75 C 3.464844 11.644531 3.550781 11.472656 3.550781 11.28125 C 3.550781 11.136719 3.519531 10.992188 3.460938 10.859375 L 2.734375 9.222656 C 2.6875 9.117188 2.664062 9.003906 2.664062 8.886719 C 2.664062 8.726562 2.753906 8.589844 2.886719 8.546875 C 2.996094 8.515625 3.105469 8.53125 3.191406 8.597656 C 3.277344 8.660156 3.328125 8.757812 3.328125 8.863281 C 3.328125 8.996094 3.242188 9.042969 3.207031 9.054688 C 3.148438 9.074219 3.09375 9.0625 3.078125 9.039062 C 3.0625 9.023438 3.0625 8.96875 3.117188 8.886719 C 3.148438 8.835938 3.132812 8.765625 3.082031 8.734375 C 3.03125 8.699219 2.960938 8.714844 2.929688 8.765625 C 2.789062 8.988281 2.863281 9.128906 2.902344 9.179688 C 2.980469 9.277344 3.128906 9.3125 3.269531 9.265625 C 3.222656 9.464844 3.179688 9.652344 3.359375 9.832031 C 3.382812 9.851562 3.410156 9.863281 3.441406 9.863281 C 3.46875 9.863281 3.496094 9.851562 3.519531 9.832031 C 3.5625 9.789062 3.5625 9.71875 3.519531 9.675781 C 3.429688 9.585938 3.441406 9.511719 3.488281 9.3125 C 3.515625 9.195312 3.550781 9.046875 3.550781 8.863281 C 3.550781 8.742188 3.507812 8.625 3.4375 8.53125 L 3.441406 8.53125 C 3.5 8.53125 3.550781 8.480469 3.550781 8.421875 C 3.550781 8.359375 3.5 8.308594 3.441406 8.308594 L 3.4375 8.308594 C 3.507812 8.214844 3.550781 8.097656 3.550781 7.976562 C 3.550781 7.792969 3.515625 7.644531 3.488281 7.527344 Z M 2.359375 7.054688 C 2.320312 6.933594 2.335938 6.867188 2.359375 6.84375 C 2.378906 6.828125 2.402344 6.828125 2.421875 6.835938 C 2.441406 6.84375 2.441406 6.859375 2.441406 6.867188 C 2.441406 6.925781 2.488281 6.976562 2.550781 6.976562 C 2.613281 6.976562 2.660156 6.925781 2.660156 6.867188 C 2.660156 6.859375 2.660156 6.84375 2.683594 6.835938 C 2.699219 6.828125 2.722656 6.828125 2.742188 6.84375 C 2.765625 6.867188 2.78125 6.933594 2.742188 7.054688 C 2.710938 7.140625 2.609375 7.363281 2.550781 7.484375 C 2.496094 7.363281 2.390625 7.140625 2.359375 7.054688 Z M 2.550781 11.632812 C 2.582031 11.675781 2.617188 11.71875 2.664062 11.75 C 2.617188 11.785156 2.582031 11.824219 2.550781 11.867188 C 2.519531 11.824219 2.484375 11.785156 2.4375 11.75 C 2.484375 11.71875 2.519531 11.675781 2.550781 11.632812 Z M 2.550781 18.296875 C 2.582031 18.339844 2.617188 18.378906 2.664062 18.414062 C 2.617188 18.445312 2.582031 18.484375 2.550781 18.527344 C 2.519531 18.484375 2.484375 18.445312 2.4375 18.414062 C 2.484375 18.378906 2.519531 18.339844 2.550781 18.296875 Z M 2.742188 23.109375 C 2.78125 23.226562 2.765625 23.296875 2.742188 23.320312 C 2.722656 23.335938 2.699219 23.335938 2.683594 23.328125 C 2.660156 23.320312 2.660156 23.304688 2.660156 23.296875 C 2.660156 23.234375 2.613281 23.1875 2.550781 23.1875 C 2.488281 23.1875 2.441406 23.234375 2.441406 23.296875 C 2.441406 23.304688 2.441406 23.320312 2.417969 23.328125 C 2.402344 23.335938 2.378906 23.335938 2.359375 23.320312 C 2.335938 23.296875 2.320312 23.226562 2.359375 23.109375 C 2.390625 23.023438 2.492188 22.800781 2.550781 22.679688 C 2.609375 22.796875 2.710938 23.023438 2.742188 23.109375 Z M 2.660156 21.742188 C 2.621094 21.777344 2.582031 21.816406 2.550781 21.859375 C 2.519531 21.816406 2.480469 21.777344 2.441406 21.742188 C 2.480469 21.710938 2.519531 21.671875 2.550781 21.628906 C 2.582031 21.671875 2.621094 21.710938 2.660156 21.742188 Z M 3.257812 19.214844 L 2.550781 20.804688 L 1.84375 19.214844 C 1.796875 19.109375 1.773438 18.996094 1.773438 18.878906 C 1.773438 18.71875 1.867188 18.582031 2 18.539062 C 2.105469 18.507812 2.21875 18.523438 2.304688 18.589844 C 2.390625 18.652344 2.441406 18.75 2.441406 18.855469 C 2.441406 18.988281 2.355469 19.035156 2.316406 19.046875 C 2.261719 19.066406 2.207031 19.054688 2.1875 19.03125 C 2.171875 19.015625 2.175781 18.960938 2.226562 18.878906 C 2.261719 18.828125 2.246094 18.757812 2.195312 18.726562 C 2.140625 18.691406 2.074219 18.707031 2.042969 18.757812 C 1.898438 18.980469 1.976562 19.121094 2.015625 19.171875 C 2.09375 19.273438 2.246094 19.308594 2.390625 19.257812 C 2.40625 19.25 2.421875 19.242188 2.441406 19.234375 L 2.441406 19.515625 C 2.4375 19.457031 2.386719 19.410156 2.328125 19.410156 C 2.265625 19.410156 2.21875 19.460938 2.21875 19.523438 C 2.21875 19.59375 2.269531 19.71875 2.441406 19.757812 L 2.441406 19.964844 C 2.441406 20.027344 2.488281 20.078125 2.550781 20.078125 C 2.613281 20.078125 2.660156 20.027344 2.660156 19.964844 L 2.660156 19.757812 C 2.832031 19.71875 2.882812 19.59375 2.882812 19.523438 C 2.882812 19.460938 2.835938 19.40625 2.773438 19.40625 C 2.710938 19.40625 2.664062 19.453125 2.664062 19.515625 C 2.664062 19.515625 2.660156 19.515625 2.660156 19.515625 L 2.660156 19.234375 C 2.679688 19.242188 2.695312 19.25 2.710938 19.257812 C 2.855469 19.308594 3.007812 19.273438 3.085938 19.171875 C 3.125 19.121094 3.203125 18.980469 3.0625 18.757812 C 3.027344 18.707031 2.960938 18.691406 2.90625 18.726562 C 2.855469 18.757812 2.839844 18.828125 2.875 18.878906 C 2.925781 18.960938 2.929688 19.015625 2.914062 19.03125 C 2.894531 19.054688 2.839844 19.066406 2.785156 19.046875 C 2.746094 19.035156 2.660156 18.988281 2.660156 18.855469 C 2.660156 18.75 2.710938 18.652344 2.796875 18.589844 C 2.882812 18.523438 2.996094 18.507812 3.101562 18.539062 C 3.234375 18.582031 3.328125 18.71875 3.328125 18.878906 C 3.328125 18.996094 3.304688 19.109375 3.257812 19.214844 Z M 3.257812 17.609375 C 3.304688 17.714844 3.328125 17.828125 3.328125 17.945312 C 3.328125 18.105469 3.234375 18.242188 3.101562 18.285156 C 2.996094 18.316406 2.882812 18.300781 2.796875 18.234375 C 2.710938 18.171875 2.660156 18.074219 2.660156 17.96875 C 2.660156 17.835938 2.746094 17.789062 2.785156 17.777344 C 2.839844 17.757812 2.894531 17.769531 2.914062 17.792969 C 2.929688 17.808594 2.925781 17.863281 2.875 17.945312 C 2.839844 17.996094 2.855469 18.066406 2.90625 18.097656 C 2.960938 18.132812 3.027344 18.117188 3.0625 18.066406 C 3.203125 17.84375 3.128906 17.703125 3.085938 17.652344 C 3.007812 17.550781 2.855469 17.519531 2.710938 17.566406 C 2.695312 17.574219 2.679688 17.582031 2.660156 17.589844 L 2.660156 17.308594 L 2.664062 17.308594 C 2.664062 17.367188 2.714844 17.414062 2.773438 17.414062 C 2.835938 17.414062 2.882812 17.363281 2.882812 17.300781 C 2.882812 17.230469 2.832031 17.105469 2.660156 17.066406 L 2.660156 16.859375 C 2.660156 16.796875 2.613281 16.746094 2.550781 16.746094 C 2.488281 16.746094 2.441406 16.796875 2.441406 16.859375 L 2.441406 17.066406 C 2.269531 17.105469 2.21875 17.230469 2.21875 17.300781 C 2.21875 17.363281 2.265625 17.417969 2.328125 17.417969 C 2.390625 17.417969 2.441406 17.371094 2.441406 17.308594 L 2.441406 17.589844 C 2.421875 17.582031 2.40625 17.574219 2.390625 17.566406 C 2.246094 17.519531 2.09375 17.550781 2.015625 17.652344 C 1.976562 17.703125 1.898438 17.84375 2.042969 18.066406 C 2.074219 18.117188 2.144531 18.132812 2.195312 18.097656 C 2.246094 18.066406 2.261719 17.996094 2.226562 17.945312 C 2.175781 17.863281 2.171875 17.808594 2.1875 17.792969 C 2.207031 17.769531 2.261719 17.757812 2.316406 17.777344 C 2.355469 17.789062 2.441406 17.835938 2.441406 17.96875 C 2.441406 18.074219 2.390625 18.171875 2.304688 18.234375 C 2.21875 18.300781 2.105469 18.316406 2 18.285156 C 1.867188 18.242188 1.773438 18.105469 1.773438 17.945312 C 1.773438 17.828125 1.796875 17.714844 1.84375 17.609375 L 2.550781 16.019531 Z M 2.660156 15.082031 C 2.621094 15.113281 2.582031 15.152344 2.550781 15.199219 C 2.519531 15.152344 2.480469 15.113281 2.441406 15.082031 C 2.480469 15.046875 2.519531 15.007812 2.550781 14.964844 C 2.582031 15.007812 2.621094 15.046875 2.660156 15.082031 Z M 3.257812 12.554688 L 2.550781 14.140625 L 1.84375 12.554688 C 1.796875 12.449219 1.773438 12.332031 1.773438 12.21875 C 1.773438 12.058594 1.867188 11.917969 2 11.878906 C 2.105469 11.84375 2.21875 11.863281 2.304688 11.925781 C 2.390625 11.992188 2.441406 12.089844 2.441406 12.195312 C 2.441406 12.328125 2.355469 12.371094 2.316406 12.386719 C 2.261719 12.40625 2.207031 12.394531 2.1875 12.371094 C 2.171875 12.351562 2.175781 12.300781 2.226562 12.21875 C 2.261719 12.164062 2.246094 12.097656 2.195312 12.0625 C 2.140625 12.03125 2.074219 12.046875 2.042969 12.097656 C 1.898438 12.320312 1.976562 12.460938 2.015625 12.507812 C 2.09375 12.609375 2.246094 12.644531 2.390625 12.59375 C 2.40625 12.589844 2.421875 12.582031 2.441406 12.574219 L 2.441406 12.855469 C 2.4375 12.796875 2.386719 12.75 2.328125 12.75 C 2.265625 12.75 2.21875 12.800781 2.21875 12.859375 C 2.21875 12.933594 2.269531 13.058594 2.441406 13.097656 L 2.441406 13.304688 C 2.441406 13.367188 2.488281 13.414062 2.550781 13.414062 C 2.613281 13.414062 2.660156 13.367188 2.660156 13.304688 L 2.660156 13.097656 C 2.832031 13.058594 2.882812 12.933594 2.882812 12.859375 C 2.882812 12.800781 2.835938 12.746094 2.773438 12.746094 C 2.710938 12.746094 2.664062 12.792969 2.664062 12.851562 C 2.664062 12.855469 2.660156 12.855469 2.660156 12.855469 L 2.660156 12.574219 C 2.679688 12.582031 2.695312 12.589844 2.710938 12.59375 C 2.855469 12.644531 3.007812 12.609375 3.085938 12.507812 C 3.125 12.460938 3.203125 12.320312 3.0625 12.097656 C 3.027344 12.046875 2.960938 12.03125 2.90625 12.0625 C 2.855469 12.097656 2.839844 12.164062 2.875 12.21875 C 2.925781 12.300781 2.929688 12.351562 2.914062 12.371094 C 2.894531 12.394531 2.839844 12.40625 2.785156 12.386719 C 2.746094 12.371094 2.660156 12.328125 2.660156 12.195312 C 2.660156 12.089844 2.710938 11.988281 2.796875 11.925781 C 2.882812 11.863281 2.996094 11.84375 3.101562 11.878906 C 3.234375 11.917969 3.328125 12.058594 3.328125 12.21875 C 3.328125 12.332031 3.304688 12.449219 3.257812 12.554688 Z M 3.257812 10.949219 C 3.304688 11.054688 3.328125 11.167969 3.328125 11.28125 C 3.328125 11.441406 3.234375 11.582031 3.101562 11.621094 C 2.996094 11.65625 2.882812 11.636719 2.796875 11.574219 C 2.710938 11.511719 2.660156 11.414062 2.660156 11.304688 C 2.660156 11.171875 2.746094 11.128906 2.785156 11.117188 C 2.839844 11.097656 2.894531 11.105469 2.914062 11.128906 C 2.929688 11.148438 2.925781 11.199219 2.875 11.285156 C 2.839844 11.335938 2.855469 11.40625 2.90625 11.4375 C 2.960938 11.46875 3.027344 11.453125 3.0625 11.402344 C 3.203125 11.179688 3.128906 11.042969 3.085938 10.992188 C 3.007812 10.890625 2.855469 10.855469 2.710938 10.90625 C 2.695312 10.910156 2.679688 10.917969 2.660156 10.925781 L 2.660156 10.648438 C 2.660156 10.648438 2.664062 10.648438 2.664062 10.648438 C 2.664062 10.707031 2.714844 10.75 2.773438 10.75 C 2.835938 10.75 2.882812 10.703125 2.882812 10.640625 C 2.882812 10.566406 2.832031 10.441406 2.660156 10.402344 L 2.660156 10.195312 C 2.660156 10.136719 2.613281 10.085938 2.550781 10.085938 C 2.488281 10.085938 2.441406 10.136719 2.441406 10.195312 L 2.441406 10.402344 C 2.269531 10.441406 2.21875 10.566406 2.21875 10.640625 C 2.21875 10.703125 2.265625 10.753906 2.328125 10.753906 C 2.390625 10.753906 2.441406 10.710938 2.441406 10.648438 L 2.441406 10.925781 C 2.421875 10.917969 2.40625 10.910156 2.390625 10.90625 C 2.246094 10.855469 2.09375 10.890625 2.015625 10.992188 C 1.976562 11.042969 1.898438 11.179688 2.042969 11.402344 C 2.074219 11.453125 2.144531 11.46875 2.195312 11.4375 C 2.246094 11.402344 2.261719 11.335938 2.226562 11.285156 C 2.175781 11.199219 2.171875 11.148438 2.1875 11.128906 C 2.207031 11.105469 2.261719 11.097656 2.316406 11.117188 C 2.355469 11.128906 2.441406 11.171875 2.441406 11.304688 C 2.441406 11.414062 2.390625 11.511719 2.304688 11.574219 C 2.21875 11.636719 2.105469 11.65625 2 11.621094 C 1.867188 11.582031 1.773438 11.441406 1.773438 11.28125 C 1.773438 11.167969 1.796875 11.054688 1.84375 10.949219 L 2.550781 9.359375 Z M 2.441406 8.417969 C 2.480469 8.386719 2.519531 8.347656 2.550781 8.304688 C 2.582031 8.347656 2.621094 8.386719 2.660156 8.417969 C 2.621094 8.453125 2.582031 8.492188 2.550781 8.535156 C 2.519531 8.492188 2.480469 8.453125 2.441406 8.417969 Z M 2.441406 8.417969 "/>
<path style=" stroke:none;fill-rule:nonzero;fill:rgb(100%,88.235295%,35.294119%);fill-opacity:1;" d="M 18.535156 13.769531 C 18.535156 12.296875 17.339844 11.097656 15.863281 11.097656 C 14.386719 11.097656 13.191406 12.296875 13.191406 13.769531 C 13.191406 15.246094 14.386719 16.445312 15.863281 16.445312 C 17.339844 16.445312 18.535156 15.246094 18.535156 13.769531 Z M 18.535156 13.769531 "/>
<path style=" stroke:none;fill-rule:nonzero;fill:rgb(100%,88.235295%,35.294119%);fill-opacity:1;" d="M 16.0625 10.363281 C 16.0625 10.476562 15.976562 10.566406 15.863281 10.566406 C 15.753906 10.566406 15.664062 10.476562 15.664062 10.363281 C 15.664062 10.253906 15.863281 9.761719 15.863281 9.761719 C 15.863281 9.761719 16.0625 10.253906 16.0625 10.363281 Z M 16.0625 10.363281 "/>
<path style=" stroke:none;fill-rule:nonzero;fill:rgb(100%,88.235295%,35.294119%);fill-opacity:1;" d="M 15.664062 17.179688 C 15.664062 17.066406 15.753906 16.976562 15.863281 16.976562 C 15.976562 16.976562 16.066406 17.066406 16.066406 17.179688 C 16.066406 17.289062 15.863281 17.78125 15.863281 17.78125 C 15.863281 17.78125 15.664062 17.289062 15.664062 17.179688 Z M 15.664062 17.179688 "/>
<path style=" stroke:none;fill-rule:nonzero;fill:rgb(100%,88.235295%,35.294119%);fill-opacity:1;" d="M 19.269531 13.972656 C 19.160156 13.972656 19.070312 13.882812 19.070312 13.773438 C 19.070312 13.660156 19.160156 13.570312 19.269531 13.570312 C 19.382812 13.570312 19.871094 13.773438 19.871094 13.773438 C 19.871094 13.773438 19.382812 13.972656 19.269531 13.972656 Z M 19.269531 13.972656 "/>
<path style=" stroke:none;fill-rule:nonzero;fill:rgb(100%,88.235295%,35.294119%);fill-opacity:1;" d="M 12.457031 13.570312 C 12.566406 13.570312 12.65625 13.660156 12.65625 13.773438 C 12.65625 13.882812 12.566406 13.972656 12.457031 13.972656 C 12.347656 13.972656 11.855469 13.773438 11.855469 13.773438 C 11.855469 13.773438 12.347656 13.570312 12.457031 13.570312 Z M 12.457031 13.570312 "/>
<path style=" stroke:none;fill-rule:nonzero;fill:rgb(100%,88.235295%,35.294119%);fill-opacity:1;" d="M 18.414062 11.503906 C 18.335938 11.582031 18.210938 11.582031 18.132812 11.503906 C 18.054688 11.425781 18.054688 11.296875 18.132812 11.21875 C 18.210938 11.140625 18.699219 10.9375 18.699219 10.9375 C 18.699219 10.9375 18.492188 11.425781 18.414062 11.503906 Z M 18.414062 11.503906 "/>
<path style=" stroke:none;fill-rule:nonzero;fill:rgb(100%,88.235295%,35.294119%);fill-opacity:1;" d="M 13.3125 16.039062 C 13.390625 15.960938 13.519531 15.960938 13.597656 16.039062 C 13.675781 16.117188 13.675781 16.246094 13.597656 16.324219 C 13.519531 16.402344 13.03125 16.605469 13.03125 16.605469 C 13.03125 16.605469 13.234375 16.117188 13.3125 16.039062 Z M 13.3125 16.039062 "/>
<path style=" stroke:none;fill-rule:nonzero;fill:rgb(100%,88.235295%,35.294119%);fill-opacity:1;" d="M 18.132812 16.324219 C 18.054688 16.246094 18.054688 16.117188 18.132812 16.039062 C 18.210938 15.960938 18.335938 15.960938 18.414062 16.039062 C 18.492188 16.117188 18.699219 16.605469 18.699219 16.605469 C 18.699219 16.605469 18.210938 16.402344 18.132812 16.324219 Z M 18.132812 16.324219 "/>
<path style=" stroke:none;fill-rule:nonzero;fill:rgb(100%,88.235295%,35.294119%);fill-opacity:1;" d="M 13.597656 11.21875 C 13.675781 11.296875 13.675781 11.425781 13.597656 11.503906 C 13.519531 11.582031 13.390625 11.582031 13.3125 11.503906 C 13.234375 11.425781 13.03125 10.9375 13.03125 10.9375 C 13.03125 10.9375 13.519531 11.140625 13.597656 11.21875 Z M 13.597656 11.21875 "/>
<path style=" stroke:none;fill-rule:nonzero;fill:rgb(100%,88.235295%,35.294119%);fill-opacity:1;" d="M 14.746094 10.546875 C 14.789062 10.648438 14.738281 10.765625 14.636719 10.808594 C 14.535156 10.851562 14.417969 10.800781 14.375 10.699219 C 14.332031 10.597656 14.328125 10.066406 14.328125 10.066406 C 14.328125 10.066406 14.703125 10.445312 14.746094 10.546875 Z M 14.746094 10.546875 "/>
<path style=" stroke:none;fill-rule:nonzero;fill:rgb(100%,88.235295%,35.294119%);fill-opacity:1;" d="M 16.984375 16.996094 C 16.941406 16.894531 16.988281 16.777344 17.089844 16.734375 C 17.195312 16.691406 17.3125 16.742188 17.351562 16.84375 C 17.394531 16.945312 17.398438 17.476562 17.398438 17.476562 C 17.398438 17.476562 17.023438 17.097656 16.984375 16.996094 Z M 16.984375 16.996094 "/>
<path style=" stroke:none;fill-rule:nonzero;fill:rgb(100%,88.235295%,35.294119%);fill-opacity:1;" d="M 19.089844 12.652344 C 18.988281 12.695312 18.871094 12.648438 18.828125 12.542969 C 18.785156 12.441406 18.832031 12.324219 18.933594 12.28125 C 19.039062 12.238281 19.566406 12.238281 19.566406 12.238281 C 19.566406 12.238281 19.191406 12.609375 19.089844 12.652344 Z M 19.089844 12.652344 "/>
<path style=" stroke:none;fill-rule:nonzero;fill:rgb(100%,88.235295%,35.294119%);fill-opacity:1;" d="M 12.640625 14.890625 C 12.742188 14.847656 12.859375 14.894531 12.902344 15 C 12.945312 15.101562 12.894531 15.21875 12.792969 15.261719 C 12.691406 15.304688 12.160156 15.304688 12.160156 15.304688 C 12.160156 15.304688 12.535156 14.933594 12.640625 14.890625 Z M 12.640625 14.890625 "/>
<path style=" stroke:none;fill-rule:nonzero;fill:rgb(100%,88.235295%,35.294119%);fill-opacity:1;" d="M 17.351562 10.699219 C 17.3125 10.800781 17.195312 10.851562 17.089844 10.808594 C 16.988281 10.765625 16.941406 10.648438 16.984375 10.546875 C 17.023438 10.445312 17.398438 10.066406 17.398438 10.066406 C 17.398438 10.066406 17.394531 10.597656 17.351562 10.699219 Z M 17.351562 10.699219 "/>
<path style=" stroke:none;fill-rule:nonzero;fill:rgb(100%,88.235295%,35.294119%);fill-opacity:1;" d="M 14.375 16.84375 C 14.417969 16.742188 14.535156 16.691406 14.636719 16.734375 C 14.738281 16.777344 14.789062 16.894531 14.746094 16.996094 C 14.703125 17.097656 14.328125 17.476562 14.328125 17.476562 C 14.328125 17.476562 14.332031 16.945312 14.375 16.84375 Z M 14.375 16.84375 "/>
<path style=" stroke:none;fill-rule:nonzero;fill:rgb(100%,88.235295%,35.294119%);fill-opacity:1;" d="M 18.933594 15.261719 C 18.832031 15.21875 18.785156 15.101562 18.828125 15 C 18.871094 14.894531 18.988281 14.847656 19.089844 14.890625 C 19.191406 14.933594 19.566406 15.304688 19.566406 15.304688 C 19.566406 15.304688 19.039062 15.304688 18.933594 15.261719 Z M 18.933594 15.261719 "/>
<path style=" stroke:none;fill-rule:nonzero;fill:rgb(100%,88.235295%,35.294119%);fill-opacity:1;" d="M 12.792969 12.28125 C 12.894531 12.324219 12.945312 12.441406 12.902344 12.542969 C 12.859375 12.648438 12.742188 12.695312 12.640625 12.652344 C 12.539062 12.609375 12.160156 12.238281 12.160156 12.238281 C 12.160156 12.238281 12.691406 12.238281 12.792969 12.28125 Z M 12.792969 12.28125 "/>
<path style=" stroke:none;fill-rule:nonzero;fill:rgb(100%,88.235295%,35.294119%);fill-opacity:1;" d="M 15.394531 10.390625 C 15.417969 10.5 15.347656 10.605469 15.238281 10.625 C 15.128906 10.648438 15.023438 10.578125 15.003906 10.46875 C 14.980469 10.359375 15.082031 9.839844 15.082031 9.839844 C 15.082031 9.839844 15.375 10.28125 15.394531 10.390625 Z M 15.394531 10.390625 "/>
<path style=" stroke:none;fill-rule:nonzero;fill:rgb(100%,88.235295%,35.294119%);fill-opacity:1;" d="M 16.332031 17.152344 C 16.3125 17.042969 16.382812 16.9375 16.488281 16.917969 C 16.597656 16.894531 16.703125 16.964844 16.726562 17.074219 C 16.746094 17.183594 16.644531 17.703125 16.644531 17.703125 C 16.644531 17.703125 16.355469 17.261719 16.332031 17.152344 Z M 16.332031 17.152344 "/>
<path style=" stroke:none;fill-rule:nonzero;fill:rgb(100%,88.235295%,35.294119%);fill-opacity:1;" d="M 19.246094 13.304688 C 19.136719 13.324219 19.03125 13.253906 19.007812 13.144531 C 18.988281 13.039062 19.058594 12.933594 19.167969 12.910156 C 19.277344 12.886719 19.796875 12.988281 19.796875 12.988281 C 19.796875 12.988281 19.355469 13.28125 19.246094 13.304688 Z M 19.246094 13.304688 "/>
<path style=" stroke:none;fill-rule:nonzero;fill:rgb(100%,88.235295%,35.294119%);fill-opacity:1;" d="M 12.484375 14.238281 C 12.589844 14.21875 12.695312 14.289062 12.71875 14.398438 C 12.742188 14.503906 12.667969 14.609375 12.5625 14.632812 C 12.453125 14.65625 11.933594 14.554688 11.933594 14.554688 C 11.933594 14.554688 12.375 14.261719 12.484375 14.238281 Z M 12.484375 14.238281 "/>
<path style=" stroke:none;fill-rule:nonzero;fill:rgb(100%,88.235295%,35.294119%);fill-opacity:1;" d="M 17.921875 11.050781 C 17.863281 11.140625 17.738281 11.167969 17.644531 11.105469 C 17.554688 11.042969 17.527344 10.917969 17.589844 10.828125 C 17.652344 10.734375 18.089844 10.4375 18.089844 10.4375 C 18.089844 10.4375 17.984375 10.957031 17.921875 11.050781 Z M 17.921875 11.050781 "/>
<path style=" stroke:none;fill-rule:nonzero;fill:rgb(100%,88.235295%,35.294119%);fill-opacity:1;" d="M 13.804688 16.492188 C 13.867188 16.402344 13.992188 16.375 14.082031 16.4375 C 14.175781 16.5 14.199219 16.625 14.136719 16.714844 C 14.078125 16.808594 13.636719 17.105469 13.636719 17.105469 C 13.636719 17.105469 13.742188 16.585938 13.804688 16.492188 Z M 13.804688 16.492188 "/>
<path style=" stroke:none;fill-rule:nonzero;fill:rgb(100%,88.235295%,35.294119%);fill-opacity:1;" d="M 18.585938 15.832031 C 18.492188 15.769531 18.46875 15.644531 18.53125 15.554688 C 18.59375 15.460938 18.714844 15.4375 18.808594 15.496094 C 18.902344 15.558594 19.195312 16 19.195312 16 C 19.195312 16 18.679688 15.894531 18.585938 15.832031 Z M 18.585938 15.832031 "/>
<path style=" stroke:none;fill-rule:nonzero;fill:rgb(100%,88.235295%,35.294119%);fill-opacity:1;" d="M 13.140625 11.710938 C 13.234375 11.773438 13.257812 11.898438 13.199219 11.988281 C 13.136719 12.082031 13.011719 12.105469 12.917969 12.046875 C 12.828125 11.984375 12.53125 11.542969 12.53125 11.542969 C 12.53125 11.542969 13.050781 11.652344 13.140625 11.710938 Z M 13.140625 11.710938 "/>
<path style=" stroke:none;fill-rule:nonzero;fill:rgb(100%,88.235295%,35.294119%);fill-opacity:1;" d="M 14.136719 10.828125 C 14.199219 10.917969 14.175781 11.042969 14.082031 11.105469 C 13.992188 11.167969 13.867188 11.140625 13.804688 11.050781 C 13.742188 10.957031 13.636719 10.4375 13.636719 10.4375 C 13.636719 10.4375 14.078125 10.734375 14.136719 10.828125 Z M 14.136719 10.828125 "/>
<path style=" stroke:none;fill-rule:nonzero;fill:rgb(100%,88.235295%,35.294119%);fill-opacity:1;" d="M 17.589844 16.714844 C 17.527344 16.625 17.554688 16.5 17.644531 16.4375 C 17.738281 16.375 17.863281 16.402344 17.921875 16.492188 C 17.984375 16.585938 18.089844 17.105469 18.089844 17.105469 C 18.089844 17.105469 17.652344 16.808594 17.589844 16.714844 Z M 17.589844 16.714844 "/>
<path style=" stroke:none;fill-rule:nonzero;fill:rgb(100%,88.235295%,35.294119%);fill-opacity:1;" d="M 18.808594 12.046875 C 18.714844 12.105469 18.59375 12.082031 18.53125 11.988281 C 18.46875 11.898438 18.492188 11.773438 18.585938 11.710938 C 18.679688 11.652344 19.195312 11.542969 19.195312 11.542969 C 19.195312 11.542969 18.902344 11.984375 18.808594 12.046875 Z M 18.808594 12.046875 "/>
<path style=" stroke:none;fill-rule:nonzero;fill:rgb(100%,88.235295%,35.294119%);fill-opacity:1;" d="M 12.917969 15.496094 C 13.011719 15.4375 13.136719 15.460938 13.199219 15.554688 C 13.257812 15.644531 13.234375 15.769531 13.140625 15.832031 C 13.050781 15.894531 12.53125 16 12.53125 16 C 12.53125 16 12.828125 15.558594 12.917969 15.496094 Z M 12.917969 15.496094 "/>
<path style=" stroke:none;fill-rule:nonzero;fill:rgb(100%,88.235295%,35.294119%);fill-opacity:1;" d="M 16.726562 10.46875 C 16.703125 10.578125 16.597656 10.648438 16.488281 10.625 C 16.382812 10.605469 16.3125 10.5 16.332031 10.390625 C 16.355469 10.28125 16.644531 9.839844 16.644531 9.839844 C 16.644531 9.839844 16.746094 10.359375 16.726562 10.46875 Z M 16.726562 10.46875 "/>
<path style=" stroke:none;fill-rule:nonzero;fill:rgb(100%,88.235295%,35.294119%);fill-opacity:1;" d="M 15.003906 17.074219 C 15.023438 16.964844 15.128906 16.894531 15.238281 16.917969 C 15.347656 16.9375 15.417969 17.042969 15.394531 17.152344 C 15.375 17.261719 15.082031 17.703125 15.082031 17.703125 C 15.082031 17.703125 14.980469 17.183594 15.003906 17.074219 Z M 15.003906 17.074219 "/>
<path style=" stroke:none;fill-rule:nonzero;fill:rgb(100%,88.235295%,35.294119%);fill-opacity:1;" d="M 19.167969 14.632812 C 19.058594 14.609375 18.988281 14.503906 19.007812 14.398438 C 19.03125 14.289062 19.136719 14.21875 19.246094 14.238281 C 19.355469 14.261719 19.796875 14.554688 19.796875 14.554688 C 19.796875 14.554688 19.273438 14.65625 19.167969 14.632812 Z M 19.167969 14.632812 "/>
<path style=" stroke:none;fill-rule:nonzero;fill:rgb(100%,88.235295%,35.294119%);fill-opacity:1;" d="M 12.5625 12.910156 C 12.667969 12.933594 12.742188 13.039062 12.71875 13.144531 C 12.695312 13.253906 12.589844 13.324219 12.484375 13.304688 C 12.375 13.28125 11.933594 12.988281 11.933594 12.988281 C 11.933594 12.988281 12.453125 12.886719 12.5625 12.910156 Z M 12.5625 12.910156 "/>
<path style=" stroke:none;fill-rule:nonzero;fill:rgb(100%,88.235295%,35.294119%);fill-opacity:1;" d="M 22.148438 14.476562 C 22.070312 14.441406 21.980469 14.480469 21.949219 14.558594 C 21.949219 14.558594 21.945312 14.566406 21.941406 14.578125 C 21.824219 14.847656 21.585938 15.246094 21.34375 15.617188 C 21.570312 14.890625 21.773438 14.117188 21.789062 14.0625 C 21.8125 13.980469 21.761719 13.898438 21.679688 13.875 C 21.601562 13.851562 21.515625 13.898438 21.492188 13.980469 C 21.386719 14.359375 21.171875 14.855469 20.972656 15.273438 C 21.011719 14.804688 21.019531 14.371094 21.019531 14.339844 C 21.019531 14.257812 20.953125 14.1875 20.871094 14.183594 C 20.792969 14.1875 20.71875 14.246094 20.710938 14.328125 C 20.515625 17.027344 17.917969 18.234375 17.664062 18.34375 C 17.535156 18.359375 16.917969 18.429688 16.359375 18.621094 C 16.292969 18.644531 16.242188 18.667969 16.1875 18.6875 C 16.167969 18.679688 16.144531 18.675781 16.121094 18.675781 C 14.40625 18.800781 13.035156 18.097656 12.050781 16.589844 C 11.308594 15.449219 11.078125 14.25 11.074219 14.238281 C 11.058594 14.15625 10.976562 14.101562 10.894531 14.117188 C 10.8125 14.132812 10.757812 14.214844 10.773438 14.296875 C 10.777344 14.328125 10.882812 14.851562 11.164062 15.539062 C 10.785156 14.945312 10.523438 14.222656 10.429688 13.847656 C 10.429688 13.839844 10.425781 13.835938 10.421875 13.828125 C 10.417969 13.816406 10.414062 13.808594 10.40625 13.796875 C 10.402344 13.792969 10.398438 13.785156 10.390625 13.78125 C 10.382812 13.773438 10.375 13.761719 10.363281 13.757812 C 10.359375 13.753906 10.351562 13.75 10.347656 13.75 C 10.335938 13.742188 10.324219 13.738281 10.3125 13.734375 C 10.300781 13.734375 10.292969 13.734375 10.285156 13.734375 C 10.273438 13.734375 10.265625 13.730469 10.257812 13.734375 C 10.253906 13.734375 10.253906 13.734375 10.25 13.734375 C 10.25 13.734375 10.246094 13.734375 10.246094 13.734375 C 10.238281 13.738281 10.230469 13.742188 10.222656 13.746094 C 10.214844 13.75 10.203125 13.753906 10.195312 13.757812 C 10.1875 13.765625 10.179688 13.773438 10.175781 13.78125 C 10.167969 13.785156 10.160156 13.792969 10.15625 13.800781 C 10.148438 13.808594 10.148438 13.820312 10.144531 13.828125 C 10.140625 13.835938 10.136719 13.84375 10.132812 13.855469 C 10.132812 13.863281 10.132812 13.875 10.132812 13.886719 C 10.132812 13.894531 10.128906 13.902344 10.132812 13.910156 C 10.132812 13.914062 10.132812 13.917969 10.132812 13.921875 C 10.230469 14.480469 10.453125 15.0625 10.660156 15.503906 C 10.335938 15.132812 10.0625 14.710938 9.96875 14.460938 C 9.964844 14.453125 9.960938 14.445312 9.957031 14.441406 C 9.949219 14.429688 9.945312 14.417969 9.9375 14.410156 C 9.929688 14.40625 9.925781 14.402344 9.917969 14.398438 C 9.910156 14.390625 9.902344 14.382812 9.890625 14.375 C 9.882812 14.371094 9.875 14.371094 9.867188 14.371094 C 9.855469 14.367188 9.847656 14.363281 9.832031 14.363281 C 9.824219 14.359375 9.816406 14.363281 9.804688 14.363281 C 9.796875 14.367188 9.789062 14.363281 9.777344 14.367188 C 9.777344 14.367188 9.777344 14.371094 9.773438 14.371094 C 9.773438 14.371094 9.769531 14.371094 9.769531 14.371094 C 9.761719 14.375 9.753906 14.378906 9.746094 14.382812 C 9.738281 14.390625 9.730469 14.394531 9.722656 14.402344 C 9.714844 14.40625 9.710938 14.414062 9.703125 14.425781 C 9.699219 14.433594 9.691406 14.4375 9.6875 14.445312 C 9.683594 14.457031 9.679688 14.464844 9.679688 14.476562 C 9.675781 14.484375 9.671875 14.492188 9.671875 14.503906 C 9.671875 14.511719 9.675781 14.523438 9.675781 14.535156 C 9.675781 14.542969 9.675781 14.550781 9.679688 14.558594 C 9.84375 15.097656 10.246094 15.738281 10.558594 16.1875 C 10.296875 15.984375 10.105469 15.769531 10.050781 15.703125 C 10.042969 15.695312 10.039062 15.6875 10.03125 15.679688 C 9.976562 15.617188 9.882812 15.605469 9.816406 15.660156 C 9.75 15.710938 9.742188 15.808594 9.792969 15.875 C 9.796875 15.878906 9.808594 15.890625 9.828125 15.914062 C 10.058594 16.1875 10.308594 16.441406 10.535156 16.660156 L 10.226562 16.527344 C 10.152344 16.496094 10.070312 16.523438 10.03125 16.589844 C 9.992188 16.660156 10.011719 16.742188 10.074219 16.789062 C 10.101562 16.8125 10.652344 17.222656 11.128906 17.464844 C 11.082031 17.46875 11.03125 17.464844 10.972656 17.460938 C 10.898438 17.453125 10.828125 17.503906 10.8125 17.578125 C 10.792969 17.652344 10.832031 17.726562 10.902344 17.753906 C 10.914062 17.761719 11.058594 17.820312 11.238281 17.882812 C 11.195312 17.902344 11.164062 17.9375 11.148438 17.980469 C 11.128906 18.050781 11.15625 18.125 11.21875 18.160156 C 11.234375 18.167969 11.453125 18.292969 11.71875 18.402344 C 11.714844 18.414062 11.707031 18.425781 11.703125 18.4375 C 11.683594 18.503906 11.707031 18.574219 11.761719 18.613281 C 11.808594 18.644531 12.847656 19.351562 14.066406 19.351562 C 14.144531 19.351562 14.226562 19.347656 14.304688 19.339844 C 14.390625 19.335938 14.453125 19.261719 14.445312 19.175781 C 14.441406 19.089844 14.367188 19.027344 14.28125 19.035156 C 13.519531 19.097656 12.78125 18.8125 12.34375 18.589844 C 12.402344 18.578125 12.4375 18.566406 12.445312 18.5625 C 12.511719 18.535156 12.550781 18.464844 12.539062 18.390625 C 12.523438 18.320312 12.460938 18.265625 12.390625 18.265625 C 12.210938 18.261719 11.964844 18.175781 11.753906 18.082031 C 11.835938 18.042969 11.882812 18.003906 11.886719 18 C 11.929688 17.960938 11.949219 17.902344 11.933594 17.84375 C 11.917969 17.785156 11.871094 17.742188 11.8125 17.730469 C 11.746094 17.722656 11.664062 17.699219 11.582031 17.675781 C 11.664062 17.628906 11.699219 17.574219 11.710938 17.546875 C 11.734375 17.503906 11.734375 17.457031 11.714844 17.414062 C 11.691406 17.371094 11.652344 17.339844 11.605469 17.328125 C 11.566406 17.320312 11.523438 17.304688 11.472656 17.289062 C 11.480469 17.277344 11.488281 17.269531 11.496094 17.257812 C 11.535156 17.191406 11.519531 17.105469 11.457031 17.058594 C 11.457031 17.054688 11.335938 16.960938 11.15625 16.804688 C 11.183594 16.796875 11.210938 16.777344 11.230469 16.75 C 11.265625 16.695312 11.265625 16.621094 11.222656 16.566406 C 11.21875 16.5625 11.101562 16.414062 10.933594 16.1875 C 10.988281 16.226562 11.042969 16.269531 11.097656 16.304688 C 11.125 16.320312 11.152344 16.328125 11.179688 16.328125 C 11.21875 16.328125 11.257812 16.316406 11.289062 16.285156 C 11.300781 16.273438 11.308594 16.261719 11.316406 16.246094 C 11.410156 16.347656 11.507812 16.4375 11.609375 16.515625 C 11.625 16.523438 11.640625 16.523438 11.65625 16.527344 C 11.699219 16.601562 11.742188 16.675781 11.789062 16.746094 C 12.722656 18.179688 14.035156 18.945312 15.605469 18.992188 C 15.460938 19.082031 15.304688 19.171875 15.054688 19.269531 C 15 19.289062 14.953125 19.3125 14.90625 19.332031 C 14.882812 19.335938 14.859375 19.34375 14.84375 19.359375 C 14.40625 19.5625 14.226562 19.757812 14.152344 19.898438 C 14.082031 20.035156 14.144531 20.179688 14.234375 20.253906 C 14.261719 20.273438 14.296875 20.285156 14.332031 20.285156 C 14.355469 20.285156 14.378906 20.28125 14.402344 20.269531 C 14.457031 20.242188 14.492188 20.1875 14.488281 20.125 C 14.496094 20.121094 14.523438 20.097656 14.605469 20.09375 C 14.667969 20.089844 14.796875 20.101562 14.945312 20.113281 C 15.085938 20.125 15.257812 20.140625 15.4375 20.148438 C 15.324219 20.28125 15.195312 20.433594 15.195312 20.433594 C 15.152344 20.480469 15.144531 20.546875 15.171875 20.601562 C 15.199219 20.65625 15.253906 20.691406 15.316406 20.6875 C 15.4375 20.683594 15.519531 20.683594 15.574219 20.679688 C 15.621094 20.742188 15.675781 20.765625 15.714844 20.777344 C 15.820312 20.804688 15.925781 20.761719 16.003906 20.710938 C 16.0625 20.753906 16.125 20.773438 16.171875 20.78125 C 16.277344 20.792969 16.378906 20.761719 16.449219 20.726562 C 16.523438 20.777344 16.597656 20.789062 16.652344 20.789062 C 16.773438 20.789062 16.878906 20.730469 16.953125 20.671875 C 17.019531 20.710938 17.082031 20.722656 17.128906 20.726562 C 17.238281 20.730469 17.328125 20.6875 17.390625 20.648438 C 17.605469 20.691406 17.792969 20.589844 17.914062 20.476562 C 17.972656 20.511719 18.023438 20.519531 18.066406 20.515625 C 18.175781 20.511719 18.257812 20.445312 18.3125 20.386719 C 18.558594 20.417969 18.734375 20.371094 18.835938 20.25 C 18.890625 20.183594 18.914062 20.109375 18.917969 20.042969 C 19.597656 20.039062 19.660156 19.667969 19.664062 19.621094 C 19.667969 19.582031 19.65625 19.539062 19.628906 19.507812 C 19.601562 19.476562 19.5625 19.457031 19.523438 19.453125 L 17.742188 19.347656 C 17.667969 19.339844 17.601562 19.390625 17.582031 19.464844 C 17.582031 19.464844 17.550781 19.578125 17.457031 19.667969 C 17.328125 19.789062 17.125 19.855469 16.898438 19.890625 C 16.898438 19.867188 16.898438 19.847656 16.890625 19.828125 C 16.859375 19.75 16.769531 19.710938 16.691406 19.738281 C 16.324219 19.882812 15.726562 19.863281 15.261719 19.832031 C 15.335938 19.773438 15.421875 19.714844 15.488281 19.679688 C 15.546875 19.644531 15.578125 19.582031 15.566406 19.515625 C 15.558594 19.46875 15.523438 19.433594 15.480469 19.414062 C 15.609375 19.347656 15.71875 19.285156 15.816406 19.222656 C 15.992188 19.117188 16.15625 19.015625 16.457031 18.910156 C 17.039062 18.710938 17.710938 18.648438 17.71875 18.648438 C 17.734375 18.648438 17.75 18.644531 17.761719 18.636719 C 17.785156 18.628906 19.683594 17.832031 20.574219 16 C 20.5625 16.054688 20.550781 16.105469 20.535156 16.152344 C 20.511719 16.226562 20.550781 16.308594 20.625 16.335938 C 20.679688 16.359375 20.742188 16.347656 20.789062 16.308594 C 20.730469 16.457031 20.679688 16.574219 20.636719 16.644531 C 20.597656 16.714844 20.617188 16.804688 20.683594 16.851562 C 20.699219 16.859375 20.71875 16.867188 20.734375 16.871094 C 20.667969 16.972656 20.597656 17.070312 20.527344 17.15625 C 20.480469 17.214844 20.484375 17.300781 20.53125 17.355469 C 20.410156 17.480469 20.304688 17.582031 20.222656 17.648438 C 20.171875 17.691406 20.152344 17.761719 20.179688 17.824219 C 20.101562 17.871094 20.035156 17.902344 19.992188 17.914062 C 19.917969 17.9375 19.871094 18.011719 19.886719 18.089844 C 19.894531 18.128906 19.914062 18.164062 19.945312 18.183594 C 19.851562 18.210938 19.75 18.234375 19.640625 18.257812 C 19.578125 18.269531 19.527344 18.320312 19.519531 18.382812 C 19.507812 18.445312 19.539062 18.507812 19.59375 18.539062 C 19.597656 18.542969 19.648438 18.574219 19.730469 18.605469 C 19.433594 18.726562 18.90625 18.882812 18.035156 18.96875 C 17.953125 18.976562 17.890625 19.050781 17.898438 19.136719 C 17.90625 19.21875 17.980469 19.277344 18.066406 19.273438 C 19.714844 19.109375 20.222656 18.695312 20.246094 18.679688 C 20.292969 18.640625 20.3125 18.574219 20.292969 18.515625 C 20.28125 18.476562 20.253906 18.445312 20.21875 18.425781 C 20.742188 18.261719 20.96875 18.078125 20.980469 18.066406 C 21.039062 18.019531 21.054688 17.9375 21.015625 17.871094 C 20.976562 17.804688 20.898438 17.777344 20.828125 17.804688 C 20.808594 17.8125 20.777344 17.820312 20.738281 17.828125 C 21.09375 17.585938 21.46875 17.296875 21.632812 17.171875 C 21.660156 17.148438 21.6875 17.128906 21.710938 17.109375 C 21.773438 17.054688 21.785156 16.960938 21.730469 16.894531 C 21.679688 16.828125 21.582031 16.820312 21.515625 16.871094 C 21.492188 16.890625 21.46875 16.910156 21.441406 16.929688 C 21.367188 16.984375 21.269531 17.050781 21.164062 17.117188 C 21.5625 16.660156 21.96875 16.167969 22.082031 16.023438 C 22.09375 16.011719 22.105469 16 22.113281 15.984375 C 22.167969 15.917969 22.15625 15.824219 22.089844 15.769531 C 22.027344 15.714844 21.929688 15.726562 21.875 15.792969 C 21.871094 15.796875 21.859375 15.8125 21.839844 15.839844 C 21.71875 15.988281 21.589844 16.128906 21.464844 16.265625 C 21.871094 15.523438 22.183594 14.792969 22.226562 14.6875 C 22.230469 14.683594 22.230469 14.679688 22.234375 14.675781 C 22.265625 14.597656 22.226562 14.507812 22.148438 14.476562 Z M 14.96875 19.640625 L 15.007812 19.644531 C 14.957031 19.695312 14.914062 19.746094 14.882812 19.804688 C 14.808594 19.796875 14.742188 19.792969 14.691406 19.789062 C 14.761719 19.742188 14.855469 19.691406 14.96875 19.640625 Z M 14.96875 19.640625 "/>
</g>
</svg>
