<?xml version="1.0" encoding="UTF-8"?>
<svg xmlns="http://www.w3.org/2000/svg" xmlns:xlink="http://www.w3.org/1999/xlink" width="30px" height="30px" viewBox="0 0 30 30" version="1.1">
<g id="surface1">
<path style=" stroke:none;fill-rule:nonzero;fill:rgb(16.862746%,57.647061%,79.607844%);fill-opacity:1;" d="M 1.875 5.15625 L 20.625 5.15625 C 20.882812 5.15625 21.09375 5.367188 21.09375 5.625 L 21.09375 28.125 C 21.09375 28.382812 20.882812 28.59375 20.625 28.59375 L 1.875 28.59375 C 1.617188 28.59375 1.40625 28.382812 1.40625 28.125 L 1.40625 5.625 C 1.40625 5.367188 1.617188 5.15625 1.875 5.15625 Z M 1.875 5.15625 "/>
<path style=" stroke:none;fill-rule:nonzero;fill:rgb(93.333334%,72.941178%,16.862746%);fill-opacity:1;" d="M 6.09375 6.5625 L 6.09375 5.40625 C 6.09375 5.25 6.171875 5.105469 6.300781 5.015625 L 7.5 4.21875 L 8.90625 4.21875 L 8.90625 3.046875 C 8.90625 2.898438 8.976562 2.761719 9.09375 2.671875 L 10.65625 1.5 C 10.738281 1.4375 10.835938 1.40625 10.9375 1.40625 L 11.5625 1.40625 C 11.664062 1.40625 11.761719 1.4375 11.84375 1.5 L 13.40625 2.671875 C 13.523438 2.761719 13.59375 2.898438 13.59375 3.046875 L 13.59375 4.21875 L 15 4.21875 L 16.199219 5.015625 C 16.328125 5.105469 16.40625 5.25 16.40625 5.40625 L 16.40625 6.5625 C 16.40625 6.820312 16.195312 7.03125 15.9375 7.03125 L 6.5625 7.03125 C 6.304688 7.03125 6.09375 6.820312 6.09375 6.5625 Z M 6.09375 6.5625 "/>
<path style=" stroke:none;fill-rule:nonzero;fill:rgb(78.039217%,46.666667%,3.137255%);fill-opacity:1;" d="M 11.71875 3.28125 C 11.71875 3.023438 11.507812 2.8125 11.25 2.8125 C 10.992188 2.8125 10.78125 3.023438 10.78125 3.28125 C 10.78125 3.539062 10.992188 3.75 11.25 3.75 C 11.507812 3.75 11.71875 3.539062 11.71875 3.28125 Z M 11.71875 3.28125 "/>
<path style=" stroke:none;fill-rule:nonzero;fill:rgb(93.333334%,72.941178%,16.862746%);fill-opacity:1;" d="M 4.21875 18.75 L 6.09375 18.75 C 6.351562 18.75 6.5625 18.960938 6.5625 19.21875 L 6.5625 21.09375 C 6.5625 21.351562 6.351562 21.5625 6.09375 21.5625 L 4.21875 21.5625 C 3.960938 21.5625 3.75 21.351562 3.75 21.09375 L 3.75 19.21875 C 3.75 18.960938 3.960938 18.75 4.21875 18.75 Z M 4.21875 18.75 "/>
<path style=" stroke:none;fill-rule:nonzero;fill:rgb(93.333334%,72.941178%,16.862746%);fill-opacity:1;" d="M 4.21875 23.90625 L 6.09375 23.90625 C 6.351562 23.90625 6.5625 24.117188 6.5625 24.375 L 6.5625 26.25 C 6.5625 26.507812 6.351562 26.71875 6.09375 26.71875 L 4.21875 26.71875 C 3.960938 26.71875 3.75 26.507812 3.75 26.25 L 3.75 24.375 C 3.75 24.117188 3.960938 23.90625 4.21875 23.90625 Z M 4.21875 23.90625 "/>
<path style=" stroke:none;fill-rule:nonzero;fill:rgb(9.803922%,31.764707%,52.156866%);fill-opacity:1;" d="M 4.851562 19.792969 L 7.660156 17.453125 L 8.261719 18.171875 L 5.449219 20.515625 Z M 4.851562 19.792969 "/>
<path style=" stroke:none;fill-rule:nonzero;fill:rgb(9.803922%,31.764707%,52.156866%);fill-opacity:1;" d="M 4.847656 24.949219 L 7.660156 22.605469 L 8.261719 23.328125 L 5.449219 25.671875 Z M 4.847656 24.949219 "/>
<path style=" stroke:none;fill-rule:nonzero;fill:rgb(12.941177%,43.137255%,67.843139%);fill-opacity:1;" d="M 4.21875 9.375 L 8.4375 9.375 L 8.4375 12.1875 L 3.75 12.1875 L 3.75 9.84375 C 3.75 9.585938 3.960938 9.375 4.21875 9.375 Z M 4.21875 9.375 "/>
<path style=" stroke:none;fill-rule:nonzero;fill:rgb(9.803922%,31.764707%,52.156866%);fill-opacity:1;" d="M 9.84375 18.75 L 10.78125 18.75 L 10.78125 19.6875 L 9.84375 19.6875 Z M 9.84375 18.75 "/>
<path style=" stroke:none;fill-rule:nonzero;fill:rgb(9.803922%,31.764707%,52.156866%);fill-opacity:1;" d="M 11.71875 18.75 L 17.8125 18.75 L 17.8125 19.6875 L 11.71875 19.6875 Z M 11.71875 18.75 "/>
<path style=" stroke:none;fill-rule:nonzero;fill:rgb(9.803922%,31.764707%,52.156866%);fill-opacity:1;" d="M 8.90625 20.625 L 12.1875 20.625 L 12.1875 21.5625 L 8.90625 21.5625 Z M 8.90625 20.625 "/>
<path style=" stroke:none;fill-rule:nonzero;fill:rgb(9.803922%,31.764707%,52.156866%);fill-opacity:1;" d="M 13.125 20.625 L 17.8125 20.625 L 17.8125 21.5625 L 13.125 21.5625 Z M 13.125 20.625 "/>
<path style=" stroke:none;fill-rule:nonzero;fill:rgb(9.803922%,31.764707%,52.156866%);fill-opacity:1;" d="M 9.84375 23.90625 L 10.78125 23.90625 L 10.78125 24.84375 L 9.84375 24.84375 Z M 9.84375 23.90625 "/>
<path style=" stroke:none;fill-rule:nonzero;fill:rgb(9.803922%,31.764707%,52.156866%);fill-opacity:1;" d="M 11.71875 23.90625 L 18.28125 23.90625 L 18.28125 24.84375 L 11.71875 24.84375 Z M 11.71875 23.90625 "/>
<path style=" stroke:none;fill-rule:nonzero;fill:rgb(9.803922%,31.764707%,52.156866%);fill-opacity:1;" d="M 8.90625 25.78125 L 12.1875 25.78125 L 12.1875 26.71875 L 8.90625 26.71875 Z M 8.90625 25.78125 "/>
<path style=" stroke:none;fill-rule:nonzero;fill:rgb(9.803922%,31.764707%,52.156866%);fill-opacity:1;" d="M 13.125 25.78125 L 18.28125 25.78125 L 18.28125 26.71875 L 13.125 26.71875 Z M 13.125 25.78125 "/>
<path style=" stroke:none;fill-rule:nonzero;fill:rgb(9.803922%,31.764707%,52.156866%);fill-opacity:1;" d="M 18.75 12.1875 L 8.4375 12.1875 L 8.4375 9.375 L 18.28125 9.375 C 18.539062 9.375 18.75 9.585938 18.75 9.84375 Z M 18.75 12.1875 "/>
<path style=" stroke:none;fill-rule:nonzero;fill:rgb(9.803922%,31.764707%,52.156866%);fill-opacity:1;" d="M 3.75 12.1875 L 8.4375 12.1875 L 8.4375 15.9375 L 4.21875 15.9375 C 3.960938 15.9375 3.75 15.726562 3.75 15.46875 Z M 3.75 12.1875 "/>
<path style=" stroke:none;fill-rule:nonzero;fill:rgb(3.921569%,16.862746%,38.82353%);fill-opacity:1;" d="M 18.28125 15.9375 L 8.4375 15.9375 L 8.4375 12.1875 L 18.75 12.1875 L 18.75 15.46875 C 18.75 15.726562 18.539062 15.9375 18.28125 15.9375 Z M 18.28125 15.9375 "/>
<path style=" stroke:none;fill-rule:nonzero;fill:rgb(83.92157%,67.450982%,53.725493%);fill-opacity:1;" d="M 26.25 16.875 L 26.25 16.011719 C 26.25 15.675781 26.070312 15.367188 25.777344 15.199219 L 23.363281 13.816406 C 23.113281 13.675781 22.8125 13.65625 22.546875 13.761719 L 20.625 14.53125 L 20.625 20.625 L 25.765625 20.625 C 26.035156 20.625 26.25 20.410156 26.25 20.140625 Z M 26.25 16.875 "/>
<path style=" stroke:none;fill-rule:nonzero;fill:rgb(12.941177%,43.137255%,67.843139%);fill-opacity:1;" d="M 17.8125 15.46875 L 17.34375 14.0625 L 18.75 13.59375 L 28.59375 18.28125 L 27.65625 20.15625 Z M 17.8125 15.46875 "/>
<path style=" stroke:none;fill-rule:nonzero;fill:rgb(96.078432%,78.823531%,61.56863%);fill-opacity:1;" d="M 25.667969 20.015625 L 26.03125 20.160156 C 26.164062 20.210938 26.25 20.34375 26.238281 20.484375 C 26.199219 20.953125 26.042969 21.40625 25.78125 21.796875 C 25.476562 22.253906 25.3125 22.792969 25.3125 23.34375 L 25.3125 28.59375 L 20.625 28.59375 L 20.625 22.609375 C 20.625 22.539062 20.609375 22.464844 20.574219 22.402344 L 19.738281 20.722656 C 19.703125 20.660156 19.6875 20.585938 19.6875 20.515625 L 19.6875 17.34375 C 19.6875 16.824219 20.105469 16.40625 20.625 16.40625 C 21.144531 16.40625 21.5625 16.824219 21.5625 17.34375 L 21.5625 18.75 L 22.363281 19.550781 C 22.449219 19.636719 22.570312 19.6875 22.695312 19.6875 L 23.957031 19.6875 C 24.542969 19.6875 25.125 19.800781 25.667969 20.015625 Z M 25.667969 20.015625 "/>
</g>
</svg>
