<?xml version="1.0" encoding="UTF-8"?>
<svg xmlns="http://www.w3.org/2000/svg" xmlns:xlink="http://www.w3.org/1999/xlink" width="30px" height="30px" viewBox="0 0 30 30" version="1.1">
<g id="surface1">
<path style=" stroke:none;fill-rule:nonzero;fill:rgb(99.607843%,74.117649%,67.843139%);fill-opacity:1;" d="M 25.898438 16.035156 L 25.898438 10.898438 C 25.898438 9.925781 26.683594 9.140625 27.65625 9.140625 C 28.628906 9.140625 29.414062 9.925781 29.414062 10.898438 L 29.414062 18.714844 C 29.414062 19.335938 29.164062 19.9375 28.726562 20.375 L 25.070312 24.03125 C 24.847656 24.253906 24.726562 24.550781 24.726562 24.859375 L 24.726562 25.722656 L 18.867188 25.722656 L 18.867188 21.6875 C 18.867188 21.0625 19.117188 20.46875 19.554688 20.03125 L 23.480469 16.097656 C 24.144531 15.4375 25.210938 15.414062 25.898438 16.035156 Z M 25.898438 16.035156 "/>
<path style=" stroke:none;fill-rule:nonzero;fill:rgb(36.470589%,80.392158%,99.215686%);fill-opacity:1;" d="M 25.898438 25.722656 L 25.898438 29.414062 L 17.695312 29.414062 L 17.695312 25.722656 Z M 25.898438 25.722656 "/>
<path style=" stroke:none;fill-rule:nonzero;fill:rgb(99.607843%,71.764708%,33.725491%);fill-opacity:1;" d="M 15 0.585938 C 19.523438 0.585938 23.203125 4.265625 23.203125 8.789062 C 23.203125 13.3125 19.523438 16.992188 15 16.992188 C 10.476562 16.992188 6.796875 13.3125 6.796875 8.789062 C 6.796875 4.265625 10.476562 0.585938 15 0.585938 Z M 15 0.585938 "/>
<path style=" stroke:none;fill-rule:nonzero;fill:rgb(36.470589%,80.392158%,99.215686%);fill-opacity:1;" d="M 12.304688 25.722656 L 12.304688 29.414062 L 4.101562 29.414062 L 4.101562 25.722656 Z M 12.304688 25.722656 "/>
<path style=" stroke:none;fill-rule:nonzero;fill:rgb(99.607843%,74.117649%,67.843139%);fill-opacity:1;" d="M 4.101562 16.035156 C 4.789062 15.414062 5.855469 15.4375 6.519531 16.097656 L 10.445312 20.03125 C 10.882812 20.46875 11.132812 21.0625 11.132812 21.6875 L 11.132812 25.722656 L 5.273438 25.722656 L 5.273438 24.859375 C 5.273438 24.550781 5.152344 24.253906 4.929688 24.03125 L 1.273438 20.375 C 0.835938 19.9375 0.585938 19.335938 0.585938 18.714844 L 0.585938 10.898438 C 0.585938 9.925781 1.371094 9.140625 2.34375 9.140625 C 3.316406 9.140625 4.101562 9.925781 4.101562 10.898438 Z M 4.101562 16.035156 "/>
<path style=" stroke:none;fill-rule:nonzero;fill:rgb(0%,0%,0%);fill-opacity:1;" d="M 11.484375 4.6875 C 11.804688 4.6875 12.070312 4.421875 12.070312 4.101562 C 12.070312 3.78125 11.804688 3.515625 11.484375 3.515625 C 11.164062 3.515625 10.898438 3.78125 10.898438 4.101562 C 10.898438 4.421875 11.164062 4.6875 11.484375 4.6875 Z M 11.484375 4.6875 "/>
<path style=" stroke:none;fill-rule:nonzero;fill:rgb(0%,0%,0%);fill-opacity:1;" d="M 15 10.546875 C 14.75 10.546875 14.476562 10.390625 14.238281 10.101562 C 14.03125 9.851562 13.664062 9.824219 13.414062 10.035156 C 13.164062 10.238281 13.132812 10.609375 13.339844 10.859375 C 13.65625 11.230469 14.023438 11.488281 14.414062 11.621094 L 14.414062 12.304688 C 14.414062 12.625 14.679688 12.890625 15 12.890625 C 15.320312 12.890625 15.585938 12.625 15.585938 12.304688 L 15.585938 11.617188 C 16.269531 11.375 16.757812 10.722656 16.757812 9.960938 C 16.757812 8.988281 15.972656 8.203125 15 8.203125 C 14.679688 8.203125 14.414062 7.9375 14.414062 7.617188 C 14.414062 7.296875 14.679688 7.03125 15 7.03125 C 15.210938 7.03125 15.425781 7.140625 15.632812 7.339844 C 15.863281 7.5625 16.234375 7.558594 16.460938 7.324219 C 16.6875 7.089844 16.679688 6.71875 16.449219 6.492188 C 16.152344 6.207031 15.855469 6.046875 15.585938 5.957031 L 15.585938 5.273438 C 15.585938 4.953125 15.320312 4.6875 15 4.6875 C 14.679688 4.6875 14.414062 4.953125 14.414062 5.273438 L 14.414062 5.960938 C 13.730469 6.203125 13.242188 6.855469 13.242188 7.617188 C 13.242188 8.589844 14.027344 9.375 15 9.375 C 15.320312 9.375 15.585938 9.640625 15.585938 9.960938 C 15.585938 10.28125 15.320312 10.546875 15 10.546875 Z M 15 10.546875 "/>
<path style=" stroke:none;fill-rule:nonzero;fill:rgb(0%,0%,0%);fill-opacity:1;" d="M 27.65625 8.554688 C 26.363281 8.554688 25.3125 9.605469 25.3125 10.898438 L 25.3125 15.074219 C 24.535156 14.875 23.675781 15.082031 23.070312 15.6875 L 19.140625 19.613281 C 18.585938 20.171875 18.28125 20.902344 18.28125 21.6875 L 18.28125 25.136719 L 17.695312 25.136719 C 17.375 25.136719 17.109375 25.398438 17.109375 25.722656 L 17.109375 29.414062 C 17.109375 29.734375 17.375 30 17.695312 30 L 25.898438 30 C 26.21875 30 26.484375 29.734375 26.484375 29.414062 L 26.484375 25.722656 C 26.484375 25.398438 26.21875 25.136719 25.898438 25.136719 L 25.3125 25.136719 L 25.3125 24.859375 C 25.3125 24.707031 25.375 24.554688 25.484375 24.449219 L 29.140625 20.785156 C 29.695312 20.234375 30 19.496094 30 18.714844 L 30 10.898438 C 30 9.605469 28.949219 8.554688 27.65625 8.554688 Z M 25.3125 28.828125 L 18.28125 28.828125 L 18.28125 26.308594 L 25.3125 26.308594 Z M 28.828125 18.714844 C 28.828125 19.183594 28.648438 19.628906 28.316406 19.960938 L 24.652344 23.617188 C 24.328125 23.945312 24.140625 24.398438 24.140625 24.859375 L 24.140625 25.136719 L 19.453125 25.136719 L 19.453125 21.6875 C 19.453125 21.21875 19.632812 20.777344 19.964844 20.445312 L 23.898438 16.515625 C 24.335938 16.074219 25.042969 16.054688 25.507812 16.46875 C 25.507812 16.476562 25.511719 16.476562 25.515625 16.480469 C 25.53125 16.488281 25.542969 16.503906 25.554688 16.515625 C 25.777344 16.738281 25.898438 17.03125 25.898438 17.34375 C 25.898438 17.65625 25.777344 17.949219 25.554688 18.171875 L 22.640625 21.085938 C 22.417969 21.3125 22.417969 21.683594 22.640625 21.914062 C 22.871094 22.144531 23.242188 22.144531 23.472656 21.914062 L 26.382812 19 C 26.828125 18.558594 27.070312 17.96875 27.070312 17.34375 C 27.070312 16.765625 26.867188 16.21875 26.484375 15.796875 L 26.484375 10.898438 C 26.484375 10.253906 27.011719 9.726562 27.65625 9.726562 C 28.300781 9.726562 28.828125 10.253906 28.828125 10.898438 Z M 28.828125 18.714844 "/>
<path style=" stroke:none;fill-rule:nonzero;fill:rgb(0%,0%,0%);fill-opacity:1;" d="M 12.304688 25.136719 L 11.71875 25.136719 L 11.71875 21.6875 C 11.71875 20.902344 11.414062 20.171875 10.859375 19.613281 L 6.929688 15.6875 C 6.324219 15.082031 5.464844 14.875 4.6875 15.074219 L 4.6875 10.898438 C 4.6875 9.605469 3.636719 8.554688 2.34375 8.554688 C 1.050781 8.554688 0 9.605469 0 10.898438 L 0 18.714844 C 0 19.496094 0.304688 20.234375 0.859375 20.785156 L 4.515625 24.449219 C 4.625 24.554688 4.6875 24.707031 4.6875 24.859375 L 4.6875 25.136719 L 4.101562 25.136719 C 3.78125 25.136719 3.515625 25.398438 3.515625 25.722656 L 3.515625 29.414062 C 3.515625 29.734375 3.78125 30 4.101562 30 L 12.304688 30 C 12.625 30 12.890625 29.734375 12.890625 29.414062 L 12.890625 25.722656 C 12.890625 25.398438 12.625 25.136719 12.304688 25.136719 Z M 5.347656 23.617188 L 1.683594 19.960938 C 1.351562 19.628906 1.171875 19.183594 1.171875 18.714844 L 1.171875 10.898438 C 1.171875 10.253906 1.699219 9.726562 2.34375 9.726562 C 2.988281 9.726562 3.515625 10.253906 3.515625 10.898438 L 3.515625 15.796875 C 3.132812 16.21875 2.929688 16.765625 2.929688 17.34375 C 2.929688 17.96875 3.171875 18.558594 3.617188 19 L 6.546875 21.929688 C 6.777344 22.15625 7.144531 22.15625 7.375 21.929688 C 7.601562 21.703125 7.601562 21.332031 7.375 21.101562 L 4.445312 18.171875 C 4.222656 17.949219 4.101562 17.65625 4.101562 17.34375 C 4.101562 17.03125 4.222656 16.738281 4.445312 16.515625 C 4.457031 16.503906 4.46875 16.488281 4.484375 16.480469 L 4.492188 16.46875 C 4.957031 16.054688 5.664062 16.074219 6.101562 16.515625 L 10.035156 20.445312 C 10.367188 20.777344 10.546875 21.21875 10.546875 21.6875 L 10.546875 25.136719 L 5.859375 25.136719 L 5.859375 24.859375 C 5.859375 24.398438 5.671875 23.945312 5.347656 23.617188 Z M 11.71875 28.828125 L 4.6875 28.828125 L 4.6875 26.308594 L 11.71875 26.308594 Z M 11.71875 28.828125 "/>
<path style=" stroke:none;fill-rule:nonzero;fill:rgb(0%,0%,0%);fill-opacity:1;" d="M 23.789062 8.789062 C 23.789062 3.941406 19.847656 0 15 0 C 10.152344 0 6.210938 3.941406 6.210938 8.789062 C 6.210938 13.636719 10.152344 17.578125 15 17.578125 C 19.847656 17.578125 23.789062 13.636719 23.789062 8.789062 Z M 15 16.40625 C 10.800781 16.40625 7.382812 12.988281 7.382812 8.789062 C 7.382812 4.589844 10.800781 1.171875 15 1.171875 C 19.199219 1.171875 22.617188 4.589844 22.617188 8.789062 C 22.617188 12.988281 19.199219 16.40625 15 16.40625 Z M 15 16.40625 "/>
<path style=" stroke:none;fill-rule:nonzero;fill:rgb(0%,0%,0%);fill-opacity:1;" d="M 19.046875 3.769531 C 17.519531 2.539062 15.527344 2.074219 13.574219 2.496094 C 13.257812 2.5625 13.054688 2.875 13.125 3.195312 C 13.195312 3.511719 13.5 3.710938 13.820312 3.640625 C 15.425781 3.296875 17.0625 3.675781 18.3125 4.683594 C 19.554688 5.6875 20.273438 7.1875 20.273438 8.789062 C 20.273438 11.699219 17.910156 14.0625 15 14.0625 C 12.089844 14.0625 9.726562 11.699219 9.726562 8.789062 C 9.726562 7.921875 9.941406 7.0625 10.351562 6.296875 C 10.503906 6.015625 10.394531 5.660156 10.113281 5.507812 C 9.824219 5.351562 9.472656 5.460938 9.316406 5.746094 C 8.820312 6.675781 8.554688 7.730469 8.554688 8.789062 C 8.554688 12.34375 11.445312 15.234375 15 15.234375 C 18.554688 15.234375 21.445312 12.34375 21.445312 8.789062 C 21.445312 6.832031 20.570312 5.003906 19.046875 3.769531 Z M 19.046875 3.769531 "/>
</g>
</svg>
